<svg width="621" height="614" viewBox="0 0 621 614" fill="none" xmlns="http://www.w3.org/2000/svg">
<path d="M208.292 83.4227C271.676 68.0139 376.751 -24.9769 432.416 81.2254C488.081 187.428 447.797 158.863 533.491 189.625C619.186 220.387 601.607 236.501 589.156 356.619C576.705 476.738 690.964 662.043 548.872 601.983C406.781 541.924 357.708 517.754 256.633 551.446C155.557 585.137 75.7226 570.489 72.0605 518.486C68.3983 466.484 49.3551 366.141 94.0334 311.208C138.712 256.276 164.347 288.503 139.444 205.739C114.541 122.974 167.463 93.3484 208.292 83.4227Z" fill="#F55B53" fill-opacity="0.8"/>
<path d="M164.986 352.931L477.506 352.587L478.193 389.03H164.986V352.931Z" fill="#ECEFF4"/>
<path d="M164.986 352.931L164.299 166.588L476.474 168.651L477.506 352.587L164.986 352.931Z" fill="#1C2834" stroke="black" stroke-linejoin="round"/>
<path d="M176.332 180.34L464.441 180.684L465.129 339.866L177.364 340.554L175.645 178.965" fill="#061E44"/>
<path d="M286.041 389.08L286.406 432.839L262.46 432.718L262.217 441.348L380.489 441.105L380.61 432.232L355.935 433.082V388.715L286.041 389.08Z" fill="#BFC2C7"/>
<path d="M219.674 486.445L219.553 493.373L420.724 493.495L420.967 486.08L219.674 486.445Z" fill="#C3C1C6"/>
<path d="M219.674 486.445L230.826 469.309L410.636 469.653L420.967 486.08L219.674 486.445Z" fill="#ECEFF4"/>
<path d="M492.075 486.809H439.199C439.199 486.809 441.387 493.008 446.249 493.008C451.111 493.008 485.876 493.13 485.876 493.13C485.876 493.13 490.009 491.55 492.075 486.809V486.809Z" fill="#C3C1C6"/>
<path d="M439.198 486.809L492.074 486.809C492.074 486.809 494.14 481.704 493.046 478.179C492.066 475.021 489.035 470.156 484.294 469.67C479.554 469.184 450.118 468.73 446.248 469.791C442.877 470.716 438.226 472.83 437.982 478.543C437.739 484.256 439.198 486.809 439.198 486.809V486.809Z" fill="#ECEFF4"/>
<g filter="url(#filter0_f_559_674)">
<path d="M177.322 193.989H317.251" stroke="white" stroke-width="1.17859"/>
<path d="M244.891 207.488H362.068H244.891Z" fill="#A9383E"/>
<path d="M244.891 207.488H362.068" stroke="#B01A00"/>
<path d="M244.891 217.477H362.068H244.891Z" fill="#A9383E"/>
<path d="M244.891 217.477H362.068" stroke="#B01A00"/>
<path d="M244.891 227.465H362.068H244.891Z" fill="#A9383E"/>
<path d="M244.891 227.465H362.068" stroke="#B01A00"/>
<path d="M177.064 207.71H199.187H177.064Z" fill="#4A83B4"/>
<path d="M177.064 207.71H199.187" stroke="black" stroke-width="0.434507"/>
<path d="M177.064 217.698H199.187H177.064Z" fill="#4A83B4"/>
<path d="M177.064 217.698H199.187" stroke="black" stroke-width="0.434507"/>
<path d="M177.064 227.687H199.187H177.064Z" fill="#4A83B4"/>
<path d="M177.064 227.687H199.187" stroke="black" stroke-width="0.434507"/>
<path d="M244.891 232.459H362.068H244.891Z" fill="#A9383E"/>
<path d="M244.891 232.459H362.068" stroke="#B01A00"/>
<path d="M244.891 237.453H362.068H244.891Z" fill="#A9383E"/>
<path d="M244.891 237.453H362.068" stroke="#B01A00"/>
<path d="M333.27 253.295H450.447H333.27Z" fill="#CBA238"/>
<path d="M333.27 253.295H450.447" stroke="#FFFF00"/>
<path d="M333.27 263.283H450.447H333.27Z" fill="#CBA238"/>
<path d="M333.27 263.283H450.447" stroke="#FFFF00"/>
<path d="M178.451 278.266H295.629" stroke="#7F837F"/>
<path d="M178.451 283.26H244.402" stroke="#7F837F" stroke-width="0.750217"/>
<path d="M229.678 293.249H295.628H229.678Z" fill="#CBA238"/>
<path d="M229.678 293.249H295.628" stroke="#FFFF00" stroke-width="0.750217"/>
<path d="M400.109 193.989H447.211" stroke="white" stroke-width="0.683795"/>
<path d="M427.957 198.983H447.21" stroke="white" stroke-width="0.437179"/>
</g>
<mask id="mask0_559_674" style="mask-type:alpha" maskUnits="userSpaceOnUse" x="234" y="105" width="189" height="230">
<path d="M351.049 241.504V258.768H354.804C392.136 258.768 422.399 289.031 422.399 326.363V334.812H234.635V326.363C234.635 289.031 264.898 258.768 302.23 258.768H305.985V241.504C289.802 233.816 278.17 218.105 276.229 199.511C270.761 198.737 266.555 194.038 266.555 188.356V175.213C266.555 169.63 270.615 164.996 275.943 164.103V158.314C275.943 129.278 299.481 105.74 328.517 105.74C357.553 105.74 381.091 129.278 381.091 158.314V164.103C386.419 164.996 390.479 169.63 390.479 175.213V188.356C390.479 194.038 386.273 198.737 380.805 199.511C378.864 218.105 367.232 233.816 351.049 241.504Z" fill="white"/>
</mask>
<g mask="url(#mask0_559_674)">
<path d="M351.049 241.504V258.768H354.804C392.136 258.768 422.399 289.031 422.399 326.363V334.812H234.635V326.363C234.635 289.031 264.898 258.768 302.23 258.768H305.985V241.504C289.802 233.816 278.17 218.105 276.229 199.511C270.761 198.737 266.555 194.038 266.555 188.356V175.213C266.555 169.63 270.615 164.996 275.943 164.103V158.314C275.943 129.278 299.481 105.74 328.517 105.74C357.553 105.74 381.091 129.278 381.091 158.314V164.103C386.419 164.996 390.479 169.63 390.479 175.213V188.356C390.479 194.038 386.273 198.737 380.805 199.511C378.864 218.105 367.232 233.816 351.049 241.504Z" fill="#D0C6AC"/>
<path d="M482.484 105.74H234.635V368.61H482.484V105.74Z" fill="#EDB98A"/>
<path fill-rule="evenodd" clip-rule="evenodd" d="M381.091 179.907V201.5C381.091 230.536 357.553 254.074 328.517 254.074C299.482 254.074 275.943 230.536 275.943 201.5V179.907V193.989C275.943 223.025 299.482 246.563 328.517 246.563C357.553 246.563 381.091 223.025 381.091 193.989V179.907Z" fill="black" fill-opacity="0.1"/>
</g>
<mask id="mask1_559_674" style="mask-type:alpha" maskUnits="userSpaceOnUse" x="234" y="243" width="189" height="92">
<path d="M305.985 243.813C289.163 245.695 276.206 250.836 275.947 264.067C251.671 274.322 234.635 298.353 234.635 326.362V334.812H422.399V326.362C422.399 298.353 405.363 274.322 381.087 264.067C380.828 250.836 367.871 245.695 351.049 243.813V261.584C351.049 274.028 340.961 284.116 328.517 284.116C316.073 284.116 305.985 274.028 305.985 261.584V243.813Z" fill="white"/>
</mask>
<g mask="url(#mask1_559_674)">
<path d="M305.985 243.813C289.163 245.695 276.206 250.836 275.947 264.067C251.671 274.322 234.635 298.353 234.635 326.362V334.812H422.399V326.362C422.399 298.353 405.363 274.322 381.087 264.067C380.828 250.836 367.871 245.695 351.049 243.813V261.584C351.049 274.028 340.961 284.116 328.517 284.116C316.073 284.116 305.985 274.028 305.985 261.584V243.813Z" fill="#B7C1DB"/>
<path d="M452.441 231.542H204.592V334.812H452.441V231.542Z" fill="#4A83B4"/>
<path fill-rule="evenodd" clip-rule="evenodd" d="M300.351 289.504V334.813H293.779V286.135C295.848 287.365 298.048 288.492 300.351 289.504ZM363.252 286.135V324.016C363.252 325.831 361.781 327.302 359.966 327.302C358.152 327.302 356.68 325.831 356.68 324.016V289.504C358.984 288.492 361.183 287.365 363.252 286.135Z" fill="#F55B53"/>
<path fill-rule="evenodd" clip-rule="evenodd" d="M289.988 243.487C275.858 246.16 266.086 251.485 266.086 261.873C266.086 280.379 297.102 295.381 328.518 295.381C359.933 295.381 390.949 280.379 390.949 261.873C390.949 251.485 381.177 246.16 367.047 243.487C375.576 246.632 381.092 251.92 381.092 260.717C381.092 279.862 354.973 295.381 328.518 295.381C302.063 295.381 275.944 279.862 275.944 260.717C275.944 251.92 281.459 246.632 289.988 243.487Z" fill="black" fill-opacity="0.16"/>
</g>
<path fill-rule="evenodd" clip-rule="evenodd" d="M315.373 211.825C315.373 219.084 321.258 224.969 328.517 224.969C335.776 224.969 341.66 219.084 341.66 211.825" fill="black" fill-opacity="0.7"/>
<path fill-rule="evenodd" clip-rule="evenodd" d="M317.25 193.987C317.25 198.135 322.294 201.498 328.516 201.498C334.738 201.498 339.782 198.135 339.782 193.987" fill="black" fill-opacity="0.16"/>
<path d="M304.108 182.722C307.219 182.722 309.74 180.2 309.74 177.089C309.74 173.978 307.219 171.457 304.108 171.457C300.997 171.457 298.475 173.978 298.475 177.089C298.475 180.2 300.997 182.722 304.108 182.722Z" fill="black" fill-opacity="0.6"/>
<path d="M352.926 182.722C356.037 182.722 358.559 180.2 358.559 177.089C358.559 173.978 356.037 171.457 352.926 171.457C349.815 171.457 347.293 173.978 347.293 177.089C347.293 180.2 349.815 182.722 352.926 182.722Z" fill="black" fill-opacity="0.6"/>
<path d="M290.615 165.033C294.291 159.861 304.367 156.961 313.046 159.093C314.053 159.34 315.07 158.724 315.318 157.717C315.565 156.71 314.949 155.693 313.942 155.446C303.862 152.97 292.194 156.328 287.554 162.857C286.954 163.703 287.152 164.875 287.997 165.476C288.842 166.076 290.015 165.878 290.615 165.033Z" fill="black" fill-opacity="0.6"/>
<path d="M366.416 165.033C362.741 159.861 352.664 156.961 343.985 159.093C342.978 159.34 341.961 158.724 341.714 157.717C341.466 156.71 342.082 155.693 343.089 155.446C353.169 152.97 364.837 156.328 369.477 162.857C370.078 163.703 369.879 164.875 369.034 165.476C368.189 166.076 367.017 165.878 366.416 165.033Z" fill="black" fill-opacity="0.6"/>
<mask id="mask2_559_674" style="mask-type:alpha" maskUnits="userSpaceOnUse" x="204" y="71" width="249" height="264">
<path d="M452.441 71.9414H204.592V334.812H452.441V71.9414Z" fill="white"/>
</mask>
<g mask="url(#mask2_559_674)">
<mask id="mask3_559_674" style="mask-type:alpha" maskUnits="userSpaceOnUse" x="273" y="87" width="110" height="78">
<path d="M372.779 109.419C370.188 106.771 367.18 104.524 364.254 102.271C363.608 101.774 362.952 101.289 362.321 100.773C362.178 100.656 360.708 99.6035 360.532 99.2161C360.109 98.284 360.354 99.0098 360.412 97.8975C360.486 96.4911 363.354 92.5188 361.214 91.6078C360.272 91.2071 358.593 92.2734 357.69 92.6255C355.924 93.3147 354.136 93.9025 352.31 94.4093C353.185 92.6662 354.853 89.1767 351.717 90.1107C349.275 90.8383 346.999 92.709 344.545 93.5891C345.357 92.2579 348.604 88.1332 345.67 87.9026C344.757 87.8308 342.099 89.5437 341.116 89.9091C338.171 91.0037 335.163 91.7111 332.072 92.2683C321.559 94.163 309.265 93.6228 299.539 98.4091C292.04 102.099 284.635 107.824 280.304 115.115C276.128 122.142 274.567 129.832 273.693 137.885C273.052 143.794 273 149.903 273.299 155.834C273.397 157.777 273.616 166.734 276.439 164.021C277.845 162.67 277.835 157.212 278.189 155.365C278.894 151.689 279.573 147.997 280.748 144.439C282.819 138.169 285.263 131.49 290.423 127.171C293.734 124.4 296.059 120.655 299.228 117.859C300.651 116.604 299.565 116.735 301.854 116.899C303.391 117.01 304.935 117.052 306.476 117.092C310.04 117.185 313.609 117.161 317.174 117.174C324.353 117.2 331.498 117.301 338.67 116.925C341.858 116.758 345.054 116.668 348.232 116.373C350.008 116.209 353.159 115.07 354.621 115.94C355.959 116.736 357.348 119.334 358.308 120.398C360.578 122.912 363.284 124.833 365.937 126.895C371.471 131.194 374.265 136.594 375.945 143.313C377.62 150.007 377.15 156.217 379.223 162.804C379.587 163.962 380.552 165.959 381.74 164.169C381.961 163.837 381.904 162.01 381.904 160.959C381.904 156.716 382.979 153.532 382.965 149.261C382.912 136.275 382.492 119.342 372.779 109.419Z" fill="white"/>
</mask>
<g mask="url(#mask3_559_674)">
<path d="M372.779 109.419C370.188 106.771 367.18 104.524 364.254 102.271C363.608 101.774 362.952 101.289 362.321 100.773C362.178 100.656 360.708 99.6035 360.532 99.2161C360.109 98.284 360.354 99.0098 360.412 97.8975C360.486 96.4911 363.354 92.5188 361.214 91.6078C360.272 91.2071 358.593 92.2734 357.69 92.6255C355.924 93.3147 354.136 93.9025 352.31 94.4093C353.185 92.6662 354.853 89.1767 351.717 90.1107C349.275 90.8383 346.999 92.709 344.545 93.5891C345.357 92.2579 348.604 88.1332 345.67 87.9026C344.757 87.8308 342.099 89.5437 341.116 89.9091C338.171 91.0037 335.163 91.7111 332.072 92.2683C321.559 94.163 309.265 93.6228 299.539 98.4091C292.04 102.099 284.635 107.824 280.304 115.115C276.128 122.142 274.567 129.832 273.693 137.885C273.052 143.794 273 149.903 273.299 155.834C273.397 157.777 273.616 166.734 276.439 164.021C277.845 162.67 277.835 157.212 278.189 155.365C278.894 151.689 279.573 147.997 280.748 144.439C282.819 138.169 285.263 131.49 290.423 127.171C293.734 124.4 296.059 120.655 299.228 117.859C300.651 116.604 299.565 116.735 301.854 116.899C303.391 117.01 304.935 117.052 306.476 117.092C310.04 117.185 313.609 117.161 317.174 117.174C324.353 117.2 331.498 117.301 338.67 116.925C341.858 116.758 345.054 116.668 348.232 116.373C350.008 116.209 353.159 115.07 354.621 115.94C355.959 116.736 357.348 119.334 358.308 120.398C360.578 122.912 363.284 124.833 365.937 126.895C371.471 131.194 374.265 136.594 375.945 143.313C377.62 150.007 377.15 156.217 379.223 162.804C379.587 163.962 380.552 165.959 381.74 164.169C381.961 163.837 381.904 162.01 381.904 160.959C381.904 156.716 382.979 153.532 382.965 149.261C382.912 136.275 382.492 119.342 372.779 109.419Z" fill="#1F3140"/>
<path d="M451.5 71.9404H203.65V334.811H451.5V71.9404Z" fill="#724133"/>
</g>
</g>
<defs>
<filter id="filter0_f_559_674" x="176.238" y="192.573" width="275.036" height="101.878" filterUnits="userSpaceOnUse" color-interpolation-filters="sRGB">
<feFlood flood-opacity="0" result="BackgroundImageFix"/>
<feBlend mode="normal" in="SourceGraphic" in2="BackgroundImageFix" result="shape"/>
<feGaussianBlur stdDeviation="0.413385" result="effect1_foregroundBlur_559_674"/>
</filter>
</defs>
</svg>
