<svg width="310" height="311" viewBox="0 0 310 311" fill="none" xmlns="http://www.w3.org/2000/svg">
<g clip-path="url(#clip0_1100_2139)">
<rect width="310" height="311" fill="#F8FAFC"/>
<path d="M310 0H125.083C123.662 8.66016 122.949 17.4217 122.952 26.1976C122.952 114.789 194.784 186.607 283.394 186.607C292.308 186.61 301.207 185.876 310 184.411V0Z" fill="#1E1F1F"/>
<path d="M236.733 100.28C233.958 100.282 231.205 99.7854 228.605 98.8132C228.457 98.7575 228.32 98.673 228.204 98.5647C228.088 98.4563 227.995 98.3261 227.929 98.1816C227.863 98.0371 227.827 97.881 227.821 97.7223C227.816 97.5636 227.842 97.4054 227.897 97.2567C227.953 97.1081 228.038 96.9718 228.146 96.8558C228.254 96.7397 228.385 96.6462 228.529 96.5805C228.674 96.5147 228.83 96.4781 228.989 96.4727C229.147 96.4673 229.305 96.4931 229.454 96.5489C232.9 97.8223 236.619 98.1749 240.243 97.572C243.868 96.969 247.272 95.4313 250.12 93.1106C241.236 93.2051 232.546 89.0074 228.222 82.2719C225.443 77.9419 224.534 72.8469 225.594 67.5373C226.405 63.687 228.07 60.0679 230.467 56.9469C225.891 58.4026 221.953 61.3836 219.31 65.3922C216.667 69.4008 215.48 74.1945 215.945 78.973C215.962 79.1313 215.946 79.2912 215.901 79.4436C215.855 79.596 215.78 79.7379 215.679 79.8612C215.578 79.9844 215.454 80.0866 215.314 80.1618C215.174 80.237 215.02 80.2838 214.862 80.2995C214.703 80.3152 214.543 80.2995 214.391 80.2532C214.239 80.207 214.097 80.1312 213.974 80.0301C213.851 79.929 213.749 79.8047 213.675 79.6642C213.6 79.5237 213.554 79.3699 213.538 79.2115C212.951 73.1995 214.712 67.1933 218.453 62.4502C222.195 57.7071 227.626 54.5947 233.611 53.7645C233.861 53.7297 234.116 53.7741 234.339 53.8915C234.563 54.0088 234.744 54.1933 234.858 54.419C234.971 54.6447 235.011 54.9002 234.972 55.1498C234.933 55.3993 234.816 55.6302 234.639 55.8102C228.453 62.0917 224.7 72.3061 230.258 80.9659C234.643 87.7971 244.078 91.7043 253.207 90.4694C253.452 90.4363 253.701 90.4789 253.921 90.5917C254.141 90.7044 254.321 90.8818 254.437 91.1C254.553 91.3181 254.599 91.5666 254.57 91.8119C254.54 92.0572 254.436 92.2876 254.272 92.472C252.061 94.9326 249.357 96.8997 246.335 98.245C243.313 99.5903 240.041 100.284 236.733 100.28Z" fill="#4A83B4"/>
<path d="M217.445 100.76C215.691 100.76 213.976 100.24 212.518 99.2655C211.059 98.2912 209.923 96.9064 209.251 95.2862C208.58 93.666 208.404 91.8832 208.747 90.1632C209.089 88.4431 209.933 86.8632 211.174 85.6232C212.414 84.3831 213.994 83.5386 215.715 83.1965C217.435 82.8544 219.218 83.03 220.839 83.7011C222.459 84.3722 223.844 85.5087 224.819 86.9668C225.793 88.425 226.313 90.1393 226.313 91.893C226.311 94.2438 225.376 96.4976 223.713 98.1599C222.05 99.8222 219.796 100.757 217.445 100.76ZM217.445 85.4444C216.169 85.4444 214.922 85.8226 213.861 86.5312C212.801 87.2397 211.974 88.2469 211.486 89.4252C210.998 90.6035 210.87 91.9002 211.119 93.1511C211.368 94.402 211.982 95.551 212.884 96.4529C213.786 97.3547 214.935 97.9689 216.186 98.2177C217.438 98.4665 218.735 98.3388 219.913 97.8508C221.092 97.3627 222.099 96.5361 222.808 95.4757C223.516 94.4152 223.895 93.1684 223.895 91.893C223.893 90.1833 223.213 88.5442 222.003 87.3353C220.794 86.1264 219.155 85.4463 217.445 85.4444Z" fill="#4A83B4"/>
<path d="M3.50331 228.555C2.92069 228.464 2.36421 228.25 1.87111 227.926C1.378 227.603 0.959629 227.178 0.643963 226.68C0.328297 226.182 0.122614 225.623 0.0406733 225.039C-0.0412673 224.455 0.00242432 223.86 0.16882 223.295L3.30845 212.622L8.07925 213.516L8.28436 224.385C8.29576 224.99 8.17468 225.589 7.92962 226.142C7.68456 226.694 7.32147 227.187 6.86584 227.584C6.41021 227.982 5.87308 228.274 5.29218 228.442C4.71128 228.61 4.1007 228.648 3.50331 228.555Z" fill="#9F616A"/>
<path d="M31.0384 296.69L25.075 295.796L26.5658 237.664L18.2171 262.705L13.7445 297.883L8.07906 296.393L6.88623 259.724L13.4462 216.498L46.2453 223.951L31.0384 296.69Z" fill="#2F2E41"/>
<path d="M28.3008 311C27.1383 311 26.0235 310.538 25.2015 309.716C24.3795 308.895 23.9177 307.78 23.9177 306.618C23.9177 306.474 23.9247 306.331 23.9388 306.189L24.8648 296.776C24.8871 296.551 24.9644 296.335 25.0897 296.147C25.2151 295.959 25.3848 295.804 25.5838 295.697C27.3417 294.749 29.1494 294.979 30.9996 296.216C31.1637 296.326 31.3021 296.471 31.4051 296.64C31.5081 296.809 31.5733 296.998 31.5964 297.195L32.6533 306.101C32.7263 306.716 32.6681 307.339 32.4827 307.93C32.2973 308.521 31.9888 309.065 31.5776 309.528C31.1664 309.991 30.6617 310.361 30.0969 310.615C29.5321 310.869 28.92 311 28.3008 311H28.3008Z" fill="#2F2E41"/>
<path d="M3.95882 310.299C3.39684 310.093 2.88906 309.762 2.47389 309.331C2.05873 308.9 1.74704 308.38 1.5624 307.811C1.37776 307.242 1.32501 306.638 1.40812 306.045C1.49123 305.452 1.70804 304.886 2.04215 304.39L8.40341 294.936C10.6966 293.291 12.0796 294.092 12.6173 297.166L13.9034 293.945L14.8724 295.002C15.3641 295.538 15.6502 296.231 15.68 296.958C15.7099 297.684 15.4816 298.398 15.0356 298.973L8.43731 309.013C7.92384 309.675 7.21319 310.156 6.40811 310.387C5.60303 310.618 4.74526 310.588 3.95882 310.299Z" fill="#2F2E41"/>
<path d="M44.1584 160.452C49.0987 160.452 53.1036 156.448 53.1036 151.508C53.1036 146.569 49.0987 142.565 44.1584 142.565C39.2181 142.565 35.2131 146.569 35.2131 151.508C35.2131 156.448 39.2181 160.452 44.1584 160.452Z" fill="#9F616A"/>
<path d="M49.8236 167.905L34.6167 164.924C36.5754 160.747 38.144 159.334 36.4057 154.788H48.6309C47.5527 159.496 48.5946 163.916 49.8236 167.905Z" fill="#9F616A"/>
<path d="M48.0346 228.124L12.2537 217.988C19.4206 202.217 20.9218 184.902 18.7969 166.599C18.7463 166.167 18.7814 165.729 18.9001 165.311C19.0187 164.892 19.2187 164.501 19.4884 164.16C19.7582 163.819 20.0926 163.534 20.4724 163.322C20.8523 163.11 21.2702 162.975 21.7022 162.925C21.7424 162.92 21.7827 162.916 21.8231 162.913C26.4904 162.529 31.3564 162.035 36.4058 161.346L42.0711 165.222L48.631 163.731C50.7359 164.751 52.8561 165.599 54.7695 166.445C56.5139 167.218 57.9077 168.613 58.6791 170.358C59.4505 172.103 59.5443 174.072 58.942 175.882C53.1118 193.485 49.2092 210.922 48.0346 228.124Z" fill="#4A83B4"/>
<path d="M8.97374 214.709L2.11572 213.814L18.3623 167.012C19.1887 164.631 21.2382 163.342 23.7334 162.986L26.1188 163.284L24.3297 191.009L8.97374 214.709Z" fill="#4A83B4"/>
<path d="M62.6951 205.762C61.5531 205.849 60.4126 205.574 59.4363 204.976C58.46 204.377 57.6978 203.485 57.2584 202.428L50.7183 186.686L56.0854 167.309L57.5042 168.211C57.6409 168.298 57.7758 168.387 57.9089 168.479C59.9008 169.874 61.4524 171.809 62.381 174.056C63.3096 176.303 63.5766 178.769 63.1505 181.163L61.7507 189.369L67.5247 201.764C67.2312 202.847 66.6094 203.813 65.7446 204.529C64.8798 205.245 63.8145 205.676 62.6951 205.762Z" fill="#4A83B4"/>
<path d="M44.8464 138.253C46.3748 138.324 47.8637 138.762 49.1863 139.531C49.4904 139.708 49.3498 140.346 49.6309 140.554C49.985 140.816 50.7536 140.657 51.0671 140.964C52.0791 141.952 52.8582 143.153 53.3479 144.479C53.8375 145.806 54.0255 147.224 53.898 148.633L53.3989 153.595L52.2214 152.307C50.1101 149.966 47.1791 148.528 44.0358 148.289C43.9023 148.28 43.7685 148.273 43.6345 148.268L44.5404 146.683L42.966 148.257C42.2478 148.265 41.531 148.323 40.821 148.432L42.0257 146.324L39.7142 148.635L39.714 148.635C38.7687 148.843 37.8854 149.27 37.1353 149.881C36.3852 150.493 35.7893 151.272 35.3956 152.156L35.1389 152.725L34.8514 147.992C34.7964 145.462 35.7488 143.013 37.4992 141.186C39.2496 139.358 41.6546 138.3 44.185 138.245C44.4055 138.24 44.626 138.243 44.8464 138.253Z" fill="#2F2E41"/>
<path d="M53.1621 154.944C53.5589 154.944 53.8805 154.18 53.8805 153.238C53.8805 152.295 53.5589 151.531 53.1621 151.531C52.7653 151.531 52.4436 152.295 52.4436 153.238C52.4436 154.18 52.7653 154.944 53.1621 154.944Z" fill="#9F616A"/>
<path d="M35.2002 154.405C35.597 154.405 35.9186 153.641 35.9186 152.699C35.9186 151.756 35.597 150.993 35.2002 150.993C34.8034 150.993 34.4817 151.756 34.4817 152.699C34.4817 153.641 34.8034 154.405 35.2002 154.405Z" fill="#9F616A"/>
<path d="M70.1565 175.491C70.7293 175.631 71.2656 175.892 71.7294 176.256C72.1933 176.62 72.5741 177.079 72.8464 177.602C73.1186 178.125 73.276 178.7 73.3081 179.289C73.3402 179.877 73.2462 180.466 73.0323 181.016L68.9979 191.383L64.3203 190.087L65.0387 179.24C65.0786 178.637 65.2502 178.05 65.5413 177.52C65.8324 176.99 66.2359 176.531 66.7237 176.173C67.2114 175.816 67.7714 175.57 68.3645 175.452C68.9575 175.334 69.5692 175.348 70.1565 175.491H70.1565Z" fill="#9F616A"/>
<path d="M64.7326 205.169L57.2781 200.399L63.5397 187.58L71.2921 190.562L67.4161 201.89L64.7326 205.169Z" fill="#4A83B4"/>
<path d="M69.7405 164.884V114.463H68.9343V164.884C68.4449 164.984 68.01 165.262 67.7139 165.664C67.4179 166.066 67.2818 166.564 67.332 167.061C67.3822 167.558 67.6151 168.018 67.9857 168.353C68.3562 168.688 68.8379 168.874 69.3374 168.874C69.8369 168.874 70.3186 168.688 70.6891 168.353C71.0596 168.018 71.2926 167.558 71.3428 167.061C71.393 166.564 71.2569 166.066 70.9608 165.664C70.6648 165.262 70.2299 164.984 69.7405 164.884ZM69.3374 168.068C69.0982 168.068 68.8644 167.997 68.6655 167.864C68.4666 167.731 68.3116 167.542 68.2201 167.321C68.1285 167.1 68.1046 166.857 68.1513 166.623C68.1979 166.388 68.3131 166.173 68.4822 166.003C68.6514 165.834 68.8669 165.719 69.1014 165.673C69.336 165.626 69.5792 165.65 69.8002 165.741C70.0212 165.833 70.21 165.988 70.3429 166.187C70.4758 166.385 70.5467 166.619 70.5467 166.858C70.5464 167.179 70.4189 167.486 70.1921 167.713C69.9654 167.94 69.658 168.067 69.3374 168.068Z" fill="#3F3D56"/>
<path d="M72.3486 59.6906C71.8874 59.6906 71.4451 59.5074 71.119 59.1813C70.7928 58.8553 70.6096 58.4131 70.6096 57.9519V52.736C70.6103 52.2753 70.7938 51.8338 71.1199 51.5083C71.4459 51.1828 71.8879 51 72.3486 51C72.8094 51 73.2513 51.1828 73.5773 51.5083C73.9034 51.8338 74.0869 52.2753 74.0876 52.736V57.9519C74.0876 58.1803 74.0426 58.4064 73.9552 58.6173C73.8678 58.8282 73.7397 59.0199 73.5783 59.1813C73.4168 59.3428 73.2251 59.4709 73.0141 59.5582C72.8031 59.6456 72.577 59.6906 72.3486 59.6906Z" fill="#4A83B4"/>
<path d="M72.3486 99.6795C72.1202 99.6795 71.8941 99.6346 71.6831 99.5472C71.4721 99.4598 71.2804 99.3317 71.1189 99.1703C70.9575 99.0088 70.8294 98.8172 70.742 98.6062C70.6546 98.3953 70.6096 98.1692 70.6096 97.9409V92.7249C70.6093 92.4964 70.654 92.27 70.7412 92.0588C70.8285 91.8475 70.9565 91.6555 71.118 91.4938C71.2795 91.3321 71.4714 91.2038 71.6825 91.1162C71.8937 91.0287 72.12 90.9836 72.3486 90.9836C72.5772 90.9836 72.8036 91.0287 73.0147 91.1162C73.2259 91.2038 73.4177 91.3321 73.5792 91.4938C73.7407 91.6555 73.8688 91.8475 73.956 92.0588C74.0432 92.27 74.088 92.4964 74.0876 92.7249V97.9409C74.0876 98.1692 74.0426 98.3953 73.9552 98.6062C73.8679 98.8172 73.7398 99.0088 73.5783 99.1703C73.4168 99.3317 73.2251 99.4598 73.0141 99.5472C72.8031 99.6346 72.577 99.6795 72.3486 99.6795Z" fill="#4A83B4"/>
<path d="M84.6454 64.7828C84.3015 64.7828 83.9653 64.6809 83.6793 64.4898C83.3934 64.2987 83.1705 64.0272 83.0389 63.7095C82.9072 63.3918 82.8728 63.0422 82.9399 62.705C83.007 62.3677 83.1726 62.0579 83.4158 61.8148L87.1047 58.1267C87.4309 57.8009 87.8731 57.618 88.3342 57.6182C88.7952 57.6183 89.2373 57.8015 89.5633 58.1274C89.8893 58.4534 90.0725 58.8954 90.0726 59.3563C90.0727 59.8173 89.8898 60.2594 89.564 60.5855L85.8751 64.2736C85.7138 64.4353 85.5221 64.5635 85.3111 64.6509C85.1001 64.7383 84.8738 64.7831 84.6454 64.7828Z" fill="#4A83B4"/>
<path d="M56.363 93.0597C56.0191 93.0597 55.6828 92.9577 55.3969 92.7667C55.1109 92.5757 54.888 92.3041 54.7564 91.9864C54.6248 91.6687 54.5903 91.3192 54.6574 90.9819C54.7245 90.6447 54.8901 90.3349 55.1333 90.0917L58.8221 86.4035C59.1483 86.0775 59.5906 85.8943 60.0518 85.8943C60.513 85.8943 60.9553 86.0774 61.2815 86.4035C61.6076 86.7296 61.7908 87.1718 61.7908 87.6329C61.7908 88.094 61.6076 88.5363 61.2815 88.8623L57.5927 92.5505C57.4314 92.7122 57.2397 92.8404 57.0286 92.9278C56.8176 93.0152 56.5914 93.06 56.363 93.0597Z" fill="#4A83B4"/>
<path d="M94.9555 77.0772H89.7385C89.2778 77.0765 88.8362 76.893 88.5106 76.567C88.185 76.241 88.0022 75.7992 88.0022 75.3385C88.0022 74.8778 88.185 74.436 88.5106 74.11C88.8362 73.784 89.2778 73.6006 89.7385 73.5999H94.9555C95.1841 73.5995 95.4105 73.6442 95.6218 73.7314C95.8331 73.8187 96.0251 73.9467 96.1869 74.1082C96.3487 74.2696 96.477 74.4614 96.5646 74.6725C96.6521 74.8837 96.6972 75.11 96.6972 75.3385C96.6972 75.5671 96.6521 75.7933 96.5646 76.0045C96.477 76.2156 96.3487 76.4074 96.1869 76.5689C96.0251 76.7303 95.8331 76.8583 95.6218 76.9456C95.4105 77.0328 95.1841 77.0775 94.9555 77.0772Z" fill="#4A83B4"/>
<path d="M54.9586 77.0772H49.7416C49.5131 77.0775 49.2866 77.0328 49.0753 76.9456C48.864 76.8583 48.672 76.7303 48.5103 76.5689C48.3485 76.4074 48.2202 76.2156 48.1326 76.0045C48.0451 75.7933 48 75.5671 48 75.3385C48 75.11 48.0451 74.8837 48.1326 74.6725C48.2202 74.4614 48.3485 74.2696 48.5103 74.1082C48.672 73.9467 48.864 73.8187 49.0753 73.7314C49.2866 73.6442 49.5131 73.5995 49.7416 73.5999H54.9586C55.4194 73.6006 55.861 73.784 56.1866 74.11C56.5121 74.436 56.695 74.8778 56.695 75.3385C56.695 75.7992 56.5121 76.241 56.1866 76.567C55.861 76.893 55.4194 77.0765 54.9586 77.0772H54.9586Z" fill="#4A83B4"/>
<path d="M88.3342 93.0596C88.1058 93.0599 87.8796 93.015 87.6686 92.9276C87.4576 92.8402 87.2659 92.712 87.1046 92.5503L83.4157 88.8622C83.254 88.7008 83.1256 88.5091 83.038 88.2981C82.9503 88.0871 82.9052 87.8609 82.905 87.6324C82.9049 87.4039 82.9498 87.1777 83.0372 86.9665C83.1246 86.7554 83.2528 86.5636 83.4144 86.4021C83.576 86.2405 83.7678 86.1124 83.979 86.025C84.1901 85.9376 84.4164 85.8927 84.645 85.8928C84.8735 85.8929 85.0997 85.9381 85.3108 86.0257C85.5219 86.1133 85.7136 86.2417 85.875 86.4034L89.5639 90.0916C89.8071 90.3347 89.9727 90.6445 90.0398 90.9818C90.1069 91.319 90.0724 91.6686 89.9408 91.9863C89.8092 92.304 89.5863 92.5755 89.3004 92.7666C89.0144 92.9576 88.6782 93.0596 88.3342 93.0596V93.0596Z" fill="#4A83B4"/>
<path d="M60.0516 64.7829C59.8232 64.7832 59.597 64.7383 59.386 64.6509C59.175 64.5635 58.9833 64.4353 58.822 64.2736L55.1331 60.5855C54.9716 60.4241 54.8435 60.2324 54.7562 60.0215C54.6688 59.8105 54.6238 59.5844 54.6238 59.3561C54.6238 59.1278 54.6688 58.9017 54.7562 58.6907C54.8435 58.4798 54.9716 58.2881 55.1331 58.1267C55.2946 57.9652 55.4863 57.8372 55.6973 57.7498C55.9083 57.6624 56.1344 57.6174 56.3628 57.6174C56.5912 57.6174 56.8173 57.6624 57.0283 57.7498C57.2393 57.8372 57.431 57.9652 57.5925 58.1267L61.2813 61.8148C61.5245 62.058 61.6901 62.3678 61.7572 62.705C61.8243 63.0423 61.7898 63.3919 61.6582 63.7096C61.5266 64.0272 61.3037 64.2988 61.0178 64.4898C60.7318 64.6809 60.3956 64.7828 60.0516 64.7829Z" fill="#4A83B4"/>
<path d="M72.3485 85.7705C70.2849 85.7705 68.2676 85.1587 66.5517 84.0124C64.8359 82.8661 63.4985 81.2369 62.7088 79.3307C61.9191 77.4245 61.7124 75.327 62.115 73.3035C62.5176 71.2799 63.5114 69.4211 64.9706 67.9622C66.4298 66.5032 68.289 65.5097 70.313 65.1072C72.3369 64.7047 74.4349 64.9113 76.3414 65.7008C78.248 66.4904 79.8775 67.8275 81.024 69.543C82.1705 71.2585 82.7825 73.2754 82.7825 75.3386C82.7793 78.1044 81.6791 80.7559 79.723 82.7116C77.7669 84.6673 75.1148 85.7674 72.3485 85.7705ZM72.3485 68.384C70.9727 68.384 69.6279 68.7919 68.484 69.5561C67.3401 70.3203 66.4485 71.4064 65.922 72.6772C65.3956 73.948 65.2578 75.3463 65.5262 76.6954C65.7946 78.0444 66.4571 79.2836 67.4299 80.2562C68.4027 81.2289 69.6421 81.8912 70.9915 82.1596C72.3408 82.4279 73.7394 82.2902 75.0104 81.7638C76.2815 81.2374 77.3679 80.346 78.1322 79.2024C78.8965 78.0587 79.3045 76.7141 79.3045 75.3386C79.3024 73.4948 78.5689 71.7271 77.2648 70.4233C75.9608 69.1195 74.1927 68.3861 72.3485 68.384Z" fill="#4A83B4"/>
</g>
<defs>
<clipPath id="clip0_1100_2139">
<rect width="310" height="311" fill="white"/>
</clipPath>
</defs>
</svg>
