<svg width="681" height="495" viewBox="0 0 681 495" fill="none" xmlns="http://www.w3.org/2000/svg">
<g clip-path="url(#clip0_2326_3405)">
<path d="M396.682 87.2627C409.445 87.2627 419.791 76.9223 419.791 64.1667C419.791 51.4111 409.445 41.0707 396.682 41.0707C383.918 41.0707 373.572 51.4111 373.572 64.1667C373.572 76.9223 383.918 87.2627 396.682 87.2627Z" fill="#F2F2F2"/>
<path d="M575.951 430.034C610.301 403.886 626.707 359.947 616.436 318.032C616.181 316.991 615.912 315.952 615.628 314.915C608.819 290.035 591.972 266.388 567.419 258.438C546.803 251.763 524.3 256.896 502.792 254.242C460.571 249.031 427.839 214.89 404.807 179.144C381.775 143.397 364.074 103.384 333.47 73.8528C283.024 25.1749 200.734 14.6945 138.188 46.3802C75.6424 78.066 35.8014 148.363 37.5005 218.424C39.1997 288.484 80.8161 355.466 141.253 391.005C163.456 404.06 189.135 413.309 214.69 410.072C236.865 407.264 257.013 395.357 279.083 391.821C313.782 386.263 348.261 401.943 378.273 420.214C408.285 438.485 437.275 460.142 471.379 468.612C504.495 476.837 545.522 453.197 575.951 430.034Z" fill="#F2F2F2"/>
<path d="M526.599 47.8515C525.845 47.3498 525.084 46.8741 524.331 46.3897C502.564 32.4769 479.234 21.1743 454.822 12.7154L449.161 90.7553H413.277V1.32344C411.018 0.856344 408.742 0.415198 406.466 0V90.7553H363.822C340.346 90.7553 317.832 81.4351 301.232 64.8451C284.632 48.2551 275.307 25.7542 275.307 2.29234V2.29226C273.022 2.7853 270.754 3.31295 268.486 3.8752V90.7553H233.753L228.361 16.3398C203.274 25.9553 179.458 38.6002 157.441 53.993C157.061 54.2525 156.68 54.5206 156.308 54.7801C154.395 56.1209 152.508 57.4876 150.63 58.8716V356.594H252.994L251.185 331.553L241.231 194.062H441.675L431.721 331.553L429.912 356.594H531.142V50.8617C529.636 49.841 528.122 48.8376 526.599 47.8515ZM268.486 171.355H239.587L234.247 97.5714H268.486V171.355ZM406.466 171.355H357.928V169.894C357.928 169.191 357.789 168.495 357.52 167.846C357.251 167.197 356.856 166.607 356.358 166.111C355.861 165.614 355.27 165.22 354.62 164.952C353.97 164.684 353.274 164.547 352.571 164.548H331.469C330.767 164.548 330.071 164.686 329.422 164.954C328.773 165.223 328.183 165.617 327.687 166.113C327.19 166.61 326.796 167.199 326.527 167.848C326.258 168.496 326.12 169.192 326.121 169.894V171.355H275.307V97.5714H406.466V171.355ZM413.277 171.355V97.5714H448.668L443.328 171.355H413.277Z" fill="#3D4A56"/>
<path d="M0 375.659C7.5189 384.563 15.6514 392.931 24.3381 400.701L656.662 401.566C665.349 393.796 673.481 385.428 681 376.524L0 375.659Z" fill="#3D4A56"/>
<path d="M428.799 295.475V369.608C428.8 370.553 429.176 371.459 429.844 372.127C430.513 372.795 431.419 373.171 432.364 373.171H542.288C543.233 373.171 544.14 372.795 544.808 372.127C545.476 371.459 545.852 370.553 545.853 369.608V295.475C545.851 294.531 545.474 293.626 544.806 292.959C544.138 292.292 543.232 291.917 542.288 291.916H432.364C431.42 291.917 430.514 292.292 429.846 292.959C429.178 293.626 428.802 294.531 428.799 295.475V295.475Z" fill="#3D4A56"/>
<path d="M431.378 296.397V368.694C431.379 369.199 431.58 369.682 431.937 370.039C432.294 370.396 432.778 370.597 433.283 370.598H541.373C541.878 370.597 542.362 370.396 542.719 370.039C543.076 369.682 543.277 369.199 543.278 368.694V296.397C543.278 295.892 543.077 295.407 542.72 295.049C542.363 294.692 541.878 294.49 541.373 294.489H433.283C432.778 294.49 432.293 294.692 431.936 295.049C431.579 295.407 431.378 295.892 431.378 296.397V296.397Z" fill="#4A83B4"/>
<path d="M426.5 384.066C426.702 384.318 426.958 384.522 427.249 384.661C427.54 384.801 427.859 384.872 428.182 384.87H545.885C546.206 384.87 546.524 384.798 546.815 384.659C547.105 384.521 547.361 384.319 547.564 384.069C547.767 383.82 547.911 383.528 547.987 383.215C548.063 382.902 548.068 382.577 548.002 382.262L546.175 373.588C546.099 373.235 545.936 372.906 545.7 372.631C545.465 372.356 545.164 372.145 544.826 372.016C544.581 371.92 544.32 371.871 544.057 371.871H430.002C429.739 371.871 429.478 371.92 429.234 372.016C428.895 372.145 428.595 372.356 428.359 372.631C428.124 372.906 427.961 373.235 427.885 373.588L426.058 382.262C425.993 382.577 425.999 382.902 426.075 383.214C426.152 383.526 426.297 383.817 426.5 384.066V384.066Z" fill="#2E3841"/>
<path d="M540.019 375.607H542.799C543.033 375.607 543.222 375.418 543.222 375.185V373.855C543.222 373.622 543.033 373.433 542.799 373.433H540.019C539.786 373.433 539.597 373.622 539.597 373.855V375.185C539.597 375.418 539.786 375.607 540.019 375.607Z" fill="#3D4A56"/>
<path d="M532.769 375.607H535.549C535.782 375.607 535.971 375.418 535.971 375.185V373.855C535.971 373.622 535.782 373.433 535.549 373.433H532.769C532.535 373.433 532.346 373.622 532.346 373.855V375.185C532.346 375.418 532.535 375.607 532.769 375.607Z" fill="#3D4A56"/>
<path d="M525.518 375.607H528.298C528.532 375.607 528.721 375.418 528.721 375.185V373.855C528.721 373.622 528.532 373.433 528.298 373.433H525.518C525.285 373.433 525.096 373.622 525.096 373.855V375.185C525.096 375.418 525.285 375.607 525.518 375.607Z" fill="#3D4A56"/>
<path d="M518.268 375.607H521.048C521.282 375.607 521.471 375.418 521.471 375.185V373.855C521.471 373.622 521.282 373.433 521.048 373.433H518.268C518.035 373.433 517.846 373.622 517.846 373.855V375.185C517.846 375.418 518.035 375.607 518.268 375.607Z" fill="#3D4A56"/>
<path d="M511.018 375.607H513.798C514.031 375.607 514.22 375.418 514.22 375.185V373.855C514.22 373.622 514.031 373.433 513.798 373.433H511.018C510.784 373.433 510.595 373.622 510.595 373.855V375.185C510.595 375.418 510.784 375.607 511.018 375.607Z" fill="#3D4A56"/>
<path d="M503.767 375.607H506.547C506.781 375.607 506.97 375.418 506.97 375.185V373.855C506.97 373.622 506.781 373.433 506.547 373.433H503.767C503.534 373.433 503.345 373.622 503.345 373.855V375.185C503.345 375.418 503.534 375.607 503.767 375.607Z" fill="#3D4A56"/>
<path d="M496.517 375.607H499.297C499.53 375.607 499.719 375.418 499.719 375.185V373.855C499.719 373.622 499.53 373.433 499.297 373.433H496.517C496.283 373.433 496.094 373.622 496.094 373.855V375.185C496.094 375.418 496.283 375.607 496.517 375.607Z" fill="#3D4A56"/>
<path d="M489.267 375.607H492.047C492.28 375.607 492.469 375.418 492.469 375.185V373.855C492.469 373.622 492.28 373.433 492.047 373.433H489.267C489.033 373.433 488.844 373.622 488.844 373.855V375.185C488.844 375.418 489.033 375.607 489.267 375.607Z" fill="#3D4A56"/>
<path d="M482.016 375.607H484.796C485.03 375.607 485.219 375.418 485.219 375.185V373.855C485.219 373.622 485.03 373.433 484.796 373.433H482.016C481.783 373.433 481.594 373.622 481.594 373.855V375.185C481.594 375.418 481.783 375.607 482.016 375.607Z" fill="#3D4A56"/>
<path d="M474.766 375.607H477.546C477.779 375.607 477.968 375.418 477.968 375.185V373.855C477.968 373.622 477.779 373.433 477.546 373.433H474.766C474.532 373.433 474.343 373.622 474.343 373.855V375.185C474.343 375.418 474.532 375.607 474.766 375.607Z" fill="#3D4A56"/>
<path d="M467.515 375.607H470.295C470.529 375.607 470.718 375.418 470.718 375.185V373.855C470.718 373.622 470.529 373.433 470.295 373.433H467.515C467.282 373.433 467.093 373.622 467.093 373.855V375.185C467.093 375.418 467.282 375.607 467.515 375.607Z" fill="#3D4A56"/>
<path d="M460.265 375.607H463.045C463.279 375.607 463.468 375.418 463.468 375.185V373.855C463.468 373.622 463.279 373.433 463.045 373.433H460.265C460.032 373.433 459.843 373.622 459.843 373.855V375.185C459.843 375.418 460.032 375.607 460.265 375.607Z" fill="#3D4A56"/>
<path d="M453.015 375.607H455.795C456.028 375.607 456.217 375.418 456.217 375.185V373.855C456.217 373.622 456.028 373.433 455.795 373.433H453.015C452.781 373.433 452.592 373.622 452.592 373.855V375.185C452.592 375.418 452.781 375.607 453.015 375.607Z" fill="#3D4A56"/>
<path d="M445.764 375.607H448.544C448.778 375.607 448.967 375.418 448.967 375.185V373.855C448.967 373.622 448.778 373.433 448.544 373.433H445.764C445.531 373.433 445.342 373.622 445.342 373.855V375.185C445.342 375.418 445.531 375.607 445.764 375.607Z" fill="#3D4A56"/>
<path d="M438.514 375.607H441.294C441.528 375.607 441.717 375.418 441.717 375.185V373.855C441.717 373.622 441.528 373.433 441.294 373.433H438.514C438.281 373.433 438.092 373.622 438.092 373.855V375.185C438.092 375.418 438.281 375.607 438.514 375.607Z" fill="#3D4A56"/>
<path d="M431.264 375.607H434.044C434.277 375.607 434.466 375.418 434.466 375.185V373.855C434.466 373.622 434.277 373.433 434.044 373.433H431.264C431.03 373.433 430.841 373.622 430.841 373.855V375.185C430.841 375.418 431.03 375.607 431.264 375.607Z" fill="#3D4A56"/>
<path d="M540.104 379.23H542.885C543.118 379.23 543.307 379.041 543.307 378.808V377.478C543.307 377.245 543.118 377.056 542.885 377.056H540.104C539.871 377.056 539.682 377.245 539.682 377.478V378.808C539.682 379.041 539.871 379.23 540.104 379.23Z" fill="#3D4A56"/>
<path d="M532.854 379.23H535.634C535.867 379.23 536.057 379.041 536.057 378.808V377.478C536.057 377.245 535.867 377.056 535.634 377.056H532.854C532.621 377.056 532.431 377.245 532.431 377.478V378.808C532.431 379.041 532.621 379.23 532.854 379.23Z" fill="#3D4A56"/>
<path d="M525.604 379.23H528.384C528.617 379.23 528.807 379.041 528.807 378.808V377.478C528.807 377.245 528.617 377.056 528.384 377.056H525.604C525.371 377.056 525.181 377.245 525.181 377.478V378.808C525.181 379.041 525.371 379.23 525.604 379.23Z" fill="#3D4A56"/>
<path d="M518.353 379.23H521.134C521.367 379.23 521.556 379.041 521.556 378.808V377.478C521.556 377.245 521.367 377.056 521.134 377.056H518.353C518.12 377.056 517.931 377.245 517.931 377.478V378.808C517.931 379.041 518.12 379.23 518.353 379.23Z" fill="#3D4A56"/>
<path d="M511.103 379.23H513.883C514.117 379.23 514.306 379.041 514.306 378.808V377.478C514.306 377.245 514.117 377.056 513.883 377.056H511.103C510.87 377.056 510.68 377.245 510.68 377.478V378.808C510.68 379.041 510.87 379.23 511.103 379.23Z" fill="#3D4A56"/>
<path d="M503.853 379.23H506.633C506.867 379.23 507.056 379.041 507.056 378.808V377.478C507.056 377.245 506.867 377.056 506.633 377.056H503.853C503.62 377.056 503.43 377.245 503.43 377.478V378.808C503.43 379.041 503.62 379.23 503.853 379.23Z" fill="#3D4A56"/>
<path d="M496.603 379.23H499.383C499.616 379.23 499.805 379.041 499.805 378.808V377.478C499.805 377.245 499.616 377.056 499.383 377.056H496.603C496.369 377.056 496.18 377.245 496.18 377.478V378.808C496.18 379.041 496.369 379.23 496.603 379.23Z" fill="#3D4A56"/>
<path d="M489.352 379.23H492.132C492.365 379.23 492.555 379.041 492.555 378.808V377.478C492.555 377.245 492.365 377.056 492.132 377.056H489.352C489.119 377.056 488.93 377.245 488.93 377.478V378.808C488.93 379.041 489.119 379.23 489.352 379.23Z" fill="#3D4A56"/>
<path d="M482.102 379.23H484.882C485.115 379.23 485.304 379.041 485.304 378.808V377.478C485.304 377.245 485.115 377.056 484.882 377.056H482.102C481.868 377.056 481.679 377.245 481.679 377.478V378.808C481.679 379.041 481.868 379.23 482.102 379.23Z" fill="#3D4A56"/>
<path d="M474.852 379.23H477.632C477.865 379.23 478.054 379.041 478.054 378.808V377.478C478.054 377.245 477.865 377.056 477.632 377.056H474.852C474.618 377.056 474.429 377.245 474.429 377.478V378.808C474.429 379.041 474.618 379.23 474.852 379.23Z" fill="#3D4A56"/>
<path d="M467.601 379.23H470.381C470.615 379.23 470.804 379.041 470.804 378.808V377.478C470.804 377.245 470.615 377.056 470.381 377.056H467.601C467.368 377.056 467.179 377.245 467.179 377.478V378.808C467.179 379.041 467.368 379.23 467.601 379.23Z" fill="#3D4A56"/>
<path d="M460.351 379.23H463.131C463.364 379.23 463.553 379.041 463.553 378.808V377.478C463.553 377.245 463.364 377.056 463.131 377.056H460.351C460.117 377.056 459.928 377.245 459.928 377.478V378.808C459.928 379.041 460.117 379.23 460.351 379.23Z" fill="#3D4A56"/>
<path d="M453.1 379.23H455.88C456.114 379.23 456.303 379.041 456.303 378.808V377.478C456.303 377.245 456.114 377.056 455.88 377.056H453.1C452.867 377.056 452.678 377.245 452.678 377.478V378.808C452.678 379.041 452.867 379.23 453.1 379.23Z" fill="#3D4A56"/>
<path d="M445.85 379.23H448.63C448.864 379.23 449.053 379.041 449.053 378.808V377.478C449.053 377.245 448.864 377.056 448.63 377.056H445.85C445.617 377.056 445.428 377.245 445.428 377.478V378.808C445.428 379.041 445.617 379.23 445.85 379.23Z" fill="#3D4A56"/>
<path d="M438.6 379.23H441.38C441.613 379.23 441.802 379.041 441.802 378.808V377.478C441.802 377.245 441.613 377.056 441.38 377.056H438.6C438.366 377.056 438.177 377.245 438.177 377.478V378.808C438.177 379.041 438.366 379.23 438.6 379.23Z" fill="#3D4A56"/>
<path d="M431.349 379.23H434.129C434.363 379.23 434.552 379.041 434.552 378.808V377.478C434.552 377.245 434.363 377.056 434.129 377.056H431.349C431.116 377.056 430.927 377.245 430.927 377.478V378.808C430.927 379.041 431.116 379.23 431.349 379.23Z" fill="#3D4A56"/>
<path d="M479.927 383.578H508.083C508.316 383.578 508.505 383.389 508.505 383.155V381.826C508.505 381.593 508.316 381.404 508.083 381.404H479.927C479.693 381.404 479.504 381.593 479.504 381.826V383.155C479.504 383.389 479.693 383.578 479.927 383.578Z" fill="#3D4A56"/>
<path d="M450.096 310.306H447.635C446.889 310.306 446.284 310.91 446.284 311.656C446.284 312.402 446.889 313.006 447.635 313.006H450.096C450.842 313.006 451.447 312.402 451.447 311.656C451.447 310.91 450.842 310.306 450.096 310.306Z" fill="white"/>
<path d="M478.245 310.306H475.784C475.038 310.306 474.433 310.91 474.433 311.656C474.433 312.402 475.038 313.006 475.784 313.006H478.245C478.991 313.006 479.596 312.402 479.596 311.656C479.596 310.91 478.991 310.306 478.245 310.306Z" fill="white"/>
<path d="M486.221 310.306H483.759C483.013 310.306 482.408 310.91 482.408 311.656C482.408 312.402 483.013 313.006 483.759 313.006H486.221C486.967 313.006 487.572 312.402 487.572 311.656C487.572 310.91 486.967 310.306 486.221 310.306Z" fill="white"/>
<path d="M470.588 310.081H455.291C454.545 310.081 453.94 310.685 453.94 311.431C453.94 312.177 454.545 312.781 455.291 312.781H470.588C471.334 312.781 471.939 312.177 471.939 311.431C471.939 310.685 471.334 310.081 470.588 310.081Z" fill="white"/>
<path d="M508.12 310.081H492.823C492.077 310.081 491.472 310.685 491.472 311.431C491.472 312.177 492.077 312.781 492.823 312.781H508.12C508.866 312.781 509.471 312.177 509.471 311.431C509.471 310.685 508.866 310.081 508.12 310.081Z" fill="white"/>
<path d="M457.602 316.401H455.141C454.395 316.401 453.79 317.006 453.79 317.751C453.79 318.497 454.395 319.102 455.141 319.102H457.602C458.349 319.102 458.954 318.497 458.954 317.751C458.954 317.006 458.349 316.401 457.602 316.401Z" fill="white"/>
<path d="M485.751 316.401H483.29C482.544 316.401 481.939 317.006 481.939 317.751C481.939 318.497 482.544 319.102 483.29 319.102H485.751C486.498 319.102 487.102 318.497 487.102 317.751C487.102 317.006 486.498 316.401 485.751 316.401Z" fill="white"/>
<path d="M493.727 316.401H491.266C490.519 316.401 489.915 317.006 489.915 317.751C489.915 318.497 490.519 319.102 491.266 319.102H493.727C494.473 319.102 495.078 318.497 495.078 317.751C495.078 317.006 494.473 316.401 493.727 316.401Z" fill="white"/>
<path d="M478.094 316.176H462.797C462.051 316.176 461.446 316.78 461.446 317.526C461.446 318.272 462.051 318.876 462.797 318.876H478.094C478.841 318.876 479.446 318.272 479.446 317.526C479.446 316.78 478.841 316.176 478.094 316.176Z" fill="white"/>
<path d="M515.627 316.176H500.33C499.583 316.176 498.979 316.78 498.979 317.526C498.979 318.272 499.583 318.876 500.33 318.876H515.627C516.373 318.876 516.978 318.272 516.978 317.526C516.978 316.78 516.373 316.176 515.627 316.176Z" fill="white"/>
<path d="M465.109 322.496H462.647C461.901 322.496 461.296 323.101 461.296 323.847C461.296 324.592 461.901 325.197 462.647 325.197H465.109C465.855 325.197 466.46 324.592 466.46 323.847C466.46 323.101 465.855 322.496 465.109 322.496Z" fill="white"/>
<path d="M493.258 322.496H490.796C490.05 322.496 489.445 323.101 489.445 323.847C489.445 324.592 490.05 325.197 490.796 325.197H493.258C494.004 325.197 494.609 324.592 494.609 323.847C494.609 323.101 494.004 322.496 493.258 322.496Z" fill="white"/>
<path d="M501.233 322.496H498.772C498.026 322.496 497.421 323.101 497.421 323.847C497.421 324.592 498.026 325.197 498.772 325.197H501.233C501.979 325.197 502.584 324.592 502.584 323.847C502.584 323.101 501.979 322.496 501.233 322.496Z" fill="white"/>
<path d="M485.601 322.271H470.304C469.558 322.271 468.953 322.876 468.953 323.622C468.953 324.367 469.558 324.972 470.304 324.972H485.601C486.347 324.972 486.952 324.367 486.952 323.622C486.952 322.876 486.347 322.271 485.601 322.271Z" fill="white"/>
<path d="M523.133 322.271H507.836C507.09 322.271 506.485 322.876 506.485 323.622C506.485 324.367 507.09 324.972 507.836 324.972H523.133C523.879 324.972 524.484 324.367 524.484 323.622C524.484 322.876 523.879 322.271 523.133 322.271Z" fill="white"/>
<path d="M472.615 328.592H470.154C469.408 328.592 468.803 329.196 468.803 329.942C468.803 330.688 469.408 331.292 470.154 331.292H472.615C473.361 331.292 473.966 330.688 473.966 329.942C473.966 329.196 473.361 328.592 472.615 328.592Z" fill="white"/>
<path d="M500.764 328.592H498.303C497.557 328.592 496.952 329.196 496.952 329.942C496.952 330.688 497.557 331.292 498.303 331.292H500.764C501.51 331.292 502.115 330.688 502.115 329.942C502.115 329.196 501.51 328.592 500.764 328.592Z" fill="white"/>
<path d="M508.74 328.592H506.278C505.532 328.592 504.927 329.196 504.927 329.942C504.927 330.688 505.532 331.292 506.278 331.292H508.74C509.486 331.292 510.091 330.688 510.091 329.942C510.091 329.196 509.486 328.592 508.74 328.592Z" fill="white"/>
<path d="M493.108 328.366H477.811C477.064 328.366 476.459 328.971 476.459 329.717C476.459 330.463 477.064 331.067 477.811 331.067H493.108C493.854 331.067 494.459 330.463 494.459 329.717C494.459 328.971 493.854 328.366 493.108 328.366Z" fill="white"/>
<path d="M478.245 352.829H475.784C475.038 352.829 474.433 353.434 474.433 354.18C474.433 354.925 475.038 355.53 475.784 355.53H478.245C478.991 355.53 479.596 354.925 479.596 354.18C479.596 353.434 478.991 352.829 478.245 352.829Z" fill="white"/>
<path d="M486.221 352.829H483.759C483.013 352.829 482.408 353.434 482.408 354.18C482.408 354.925 483.013 355.53 483.759 355.53H486.221C486.967 355.53 487.572 354.925 487.572 354.18C487.572 353.434 486.967 352.829 486.221 352.829Z" fill="white"/>
<path d="M508.12 353.054H492.823C492.077 353.054 491.472 353.659 491.472 354.405C491.472 355.151 492.077 355.755 492.823 355.755H508.12C508.866 355.755 509.471 355.151 509.471 354.405C509.471 353.659 508.866 353.054 508.12 353.054Z" fill="white"/>
<path d="M450.096 352.829H447.635C446.889 352.829 446.284 353.434 446.284 354.18C446.284 354.925 446.889 355.53 447.635 355.53H450.096C450.842 355.53 451.447 354.925 451.447 354.18C451.447 353.434 450.842 352.829 450.096 352.829Z" fill="white"/>
<path d="M470.588 353.054H455.291C454.545 353.054 453.94 353.659 453.94 354.405C453.94 355.151 454.545 355.755 455.291 355.755H470.588C471.334 355.755 471.939 355.151 471.939 354.405C471.939 353.659 471.334 353.054 470.588 353.054Z" fill="white"/>
<path d="M457.602 346.734H455.141C454.395 346.734 453.79 347.338 453.79 348.084C453.79 348.83 454.395 349.435 455.141 349.435H457.602C458.349 349.435 458.954 348.83 458.954 348.084C458.954 347.338 458.349 346.734 457.602 346.734Z" fill="white"/>
<path d="M485.751 346.734H483.29C482.544 346.734 481.939 347.338 481.939 348.084C481.939 348.83 482.544 349.435 483.29 349.435H485.751C486.498 349.435 487.102 348.83 487.102 348.084C487.102 347.338 486.498 346.734 485.751 346.734Z" fill="white"/>
<path d="M493.727 346.734H491.266C490.519 346.734 489.915 347.338 489.915 348.084C489.915 348.83 490.519 349.435 491.266 349.435H493.727C494.473 349.435 495.078 348.83 495.078 348.084C495.078 347.338 494.473 346.734 493.727 346.734Z" fill="white"/>
<path d="M478.094 346.959H462.797C462.051 346.959 461.446 347.564 461.446 348.309C461.446 349.055 462.051 349.66 462.797 349.66H478.094C478.841 349.66 479.446 349.055 479.446 348.309C479.446 347.564 478.841 346.959 478.094 346.959Z" fill="white"/>
<path d="M465.109 340.639H462.647C461.901 340.639 461.296 341.243 461.296 341.989C461.296 342.735 461.901 343.339 462.647 343.339H465.109C465.855 343.339 466.46 342.735 466.46 341.989C466.46 341.243 465.855 340.639 465.109 340.639Z" fill="white"/>
<path d="M493.258 340.639H490.796C490.05 340.639 489.445 341.243 489.445 341.989C489.445 342.735 490.05 343.339 490.796 343.339H493.258C494.004 343.339 494.609 342.735 494.609 341.989C494.609 341.243 494.004 340.639 493.258 340.639Z" fill="white"/>
<path d="M501.233 340.639H498.772C498.026 340.639 497.421 341.243 497.421 341.989C497.421 342.735 498.026 343.339 498.772 343.339H501.233C501.979 343.339 502.584 342.735 502.584 341.989C502.584 341.243 501.979 340.639 501.233 340.639Z" fill="white"/>
<path d="M485.601 340.864H470.304C469.558 340.864 468.953 341.468 468.953 342.214C468.953 342.96 469.558 343.564 470.304 343.564H485.601C486.347 343.564 486.952 342.96 486.952 342.214C486.952 341.468 486.347 340.864 485.601 340.864Z" fill="white"/>
<path d="M472.615 334.543H470.154C469.408 334.543 468.803 335.148 468.803 335.894C468.803 336.639 469.408 337.244 470.154 337.244H472.615C473.361 337.244 473.966 336.639 473.966 335.894C473.966 335.148 473.361 334.543 472.615 334.543Z" fill="white"/>
<path d="M500.764 334.543H498.303C497.557 334.543 496.952 335.148 496.952 335.894C496.952 336.639 497.557 337.244 498.303 337.244H500.764C501.51 337.244 502.115 336.639 502.115 335.894C502.115 335.148 501.51 334.543 500.764 334.543Z" fill="white"/>
<path d="M508.74 334.543H506.278C505.532 334.543 504.927 335.148 504.927 335.894C504.927 336.639 505.532 337.244 506.278 337.244H508.74C509.486 337.244 510.091 336.639 510.091 335.894C510.091 335.148 509.486 334.543 508.74 334.543Z" fill="white"/>
<path d="M493.108 334.769H477.811C477.064 334.769 476.459 335.373 476.459 336.119C476.459 336.865 477.064 337.469 477.811 337.469H493.108C493.854 337.469 494.459 336.865 494.459 336.119C494.459 335.373 493.854 334.769 493.108 334.769Z" fill="white"/>
<path d="M437.011 424.264L425.457 406.011L461.723 377.118L476.692 360.544C478.637 358.39 481.113 356.785 483.874 355.888C486.634 354.991 489.581 354.833 492.421 355.431C495.261 356.029 497.895 357.361 500.058 359.295C502.222 361.228 503.84 363.696 504.75 366.45C506.1 370.532 505.81 374.977 503.941 378.849C502.073 382.721 498.772 385.716 494.736 387.202L471.066 395.917L437.011 424.264Z" fill="#FFCCB6"/>
<path d="M165.91 291.919V380.633H228.097V291.919C228.098 291.281 227.894 290.659 227.515 290.146C227.137 289.632 226.603 289.253 225.993 289.065C225.706 288.97 225.405 288.923 225.102 288.926H168.913C168.519 288.925 168.129 289.002 167.765 289.152C167.401 289.302 167.07 289.523 166.791 289.801C166.512 290.079 166.29 290.409 166.139 290.772C165.988 291.136 165.91 291.525 165.91 291.919V291.919ZM190.179 322.401C190.195 320.653 190.901 318.981 192.145 317.75C193.388 316.519 195.067 315.828 196.817 315.828C198.567 315.828 200.246 316.519 201.489 317.75C202.733 318.981 203.439 320.653 203.455 322.401V332.695C203.447 334.449 202.743 336.127 201.499 337.364C200.255 338.601 198.572 339.296 196.817 339.296C195.062 339.296 193.379 338.601 192.135 337.364C190.891 336.127 190.188 334.449 190.179 332.695V322.401Z" fill="#2E3841"/>
<path d="M165.719 377.796V386.351C165.721 386.794 165.897 387.219 166.21 387.533C166.522 387.847 166.946 388.025 167.39 388.029H226.616C227.06 388.027 227.485 387.849 227.798 387.534C228.111 387.22 228.287 386.794 228.287 386.351V377.796H165.719Z" fill="#3D4A56"/>
<path d="M68.0811 158.26V320.239C68.0827 322.303 68.9039 324.282 70.3644 325.742C71.8249 327.202 73.8052 328.022 75.8706 328.024H316.049C318.115 328.022 320.095 327.202 321.556 325.742C323.016 324.282 323.837 322.303 323.839 320.239V158.26C323.834 156.198 323.012 154.221 321.552 152.764C320.092 151.306 318.113 150.487 316.049 150.484H75.8706C73.807 150.487 71.8285 151.306 70.3685 152.764C68.9085 154.221 68.086 156.198 68.0811 158.26Z" fill="#3D4A56"/>
<path d="M73.7153 160.276V318.241C73.7172 319.344 74.1564 320.401 74.9368 321.181C75.7171 321.961 76.7749 322.4 77.8784 322.402H314.05C315.153 322.4 316.211 321.961 316.992 321.181C317.772 320.401 318.211 319.344 318.213 318.241V160.276C318.213 159.171 317.775 158.112 316.994 157.331C316.214 156.549 315.155 156.109 314.05 156.106H77.8784C76.7735 156.109 75.7147 156.549 74.9343 157.331C74.1538 158.112 73.7154 159.171 73.7153 160.276Z" fill="#F8FAFC"/>
<path d="M117.545 387.449C117.785 387.75 118.091 387.993 118.438 388.16C118.786 388.326 119.167 388.411 119.553 388.409H260.059C260.444 388.409 260.823 388.323 261.17 388.157C261.517 387.992 261.822 387.751 262.064 387.453C262.306 387.155 262.479 386.806 262.569 386.433C262.66 386.06 262.666 385.671 262.587 385.295L260.406 374.941C260.315 374.519 260.121 374.126 259.839 373.798C259.558 373.471 259.2 373.218 258.796 373.064C258.504 372.95 258.192 372.891 257.878 372.891H121.725C121.411 372.891 121.1 372.95 120.808 373.064C120.404 373.218 120.045 373.47 119.764 373.798C119.483 374.126 119.288 374.519 119.198 374.941L117.017 385.295C116.939 385.671 116.946 386.059 117.038 386.432C117.129 386.804 117.302 387.152 117.545 387.449Z" fill="#2E3841"/>
<path d="M306.386 177.867H85.401C85.1713 177.862 84.9527 177.767 84.7921 177.603C84.6314 177.439 84.5415 177.218 84.5415 176.989C84.5415 176.759 84.6314 176.538 84.7921 176.374C84.9527 176.21 85.1713 176.115 85.401 176.11H306.386C306.615 176.115 306.834 176.21 306.995 176.374C307.155 176.538 307.245 176.759 307.245 176.989C307.245 177.218 307.155 177.439 306.995 177.603C306.834 177.767 306.615 177.862 306.386 177.867V177.867Z" fill="#3D4A56"/>
<path d="M100.444 171.626C103.288 171.626 105.594 169.27 105.594 166.364C105.594 163.458 103.288 161.102 100.444 161.102C97.5993 161.102 95.2935 163.458 95.2935 166.364C95.2935 169.27 97.5993 171.626 100.444 171.626Z" fill="#3D4A56"/>
<path d="M118.235 171.626C121.079 171.626 123.385 169.27 123.385 166.364C123.385 163.458 121.079 161.102 118.235 161.102C115.391 161.102 113.085 163.458 113.085 166.364C113.085 169.27 115.391 171.626 118.235 171.626Z" fill="#3D4A56"/>
<path d="M136.026 171.626C138.87 171.626 141.176 169.27 141.176 166.364C141.176 163.458 138.87 161.102 136.026 161.102C133.182 161.102 130.876 163.458 130.876 166.364C130.876 169.27 133.182 171.626 136.026 171.626Z" fill="#3D4A56"/>
<path d="M295.672 162.404H283.036C282.786 162.409 282.549 162.513 282.374 162.691C282.199 162.87 282.102 163.11 282.102 163.359C282.102 163.609 282.199 163.849 282.374 164.028C282.549 164.206 282.786 164.309 283.036 164.315H295.672C295.924 164.312 296.164 164.209 296.34 164.031C296.516 163.852 296.615 163.611 296.615 163.359C296.615 163.108 296.516 162.867 296.34 162.688C296.164 162.509 295.924 162.407 295.672 162.404Z" fill="#3D4A56"/>
<path d="M295.672 165.993H283.036C282.786 165.999 282.548 166.102 282.373 166.281C282.198 166.459 282.1 166.699 282.1 166.949C282.1 167.199 282.198 167.439 282.373 167.618C282.548 167.796 282.786 167.899 283.036 167.905H295.672C295.924 167.902 296.164 167.8 296.341 167.621C296.518 167.442 296.617 167.201 296.617 166.949C296.617 166.698 296.518 166.456 296.341 166.277C296.164 166.098 295.924 165.996 295.672 165.993V165.993Z" fill="#3D4A56"/>
<path d="M295.672 169.583H283.036C282.786 169.589 282.549 169.692 282.374 169.871C282.199 170.049 282.102 170.289 282.102 170.539C282.102 170.789 282.199 171.028 282.374 171.207C282.549 171.386 282.786 171.489 283.036 171.495H295.672C295.924 171.491 296.164 171.389 296.34 171.21C296.516 171.031 296.615 170.79 296.615 170.539C296.615 170.288 296.516 170.047 296.34 169.868C296.164 169.689 295.924 169.587 295.672 169.583V169.583Z" fill="#3D4A56"/>
<path d="M600.314 381.55C600.695 382.66 601.418 383.62 602.38 384.293C603.341 384.966 604.491 385.318 605.665 385.297L628.594 384.707C629.776 384.684 630.92 384.279 631.853 383.553C632.786 382.827 633.459 381.819 633.771 380.679L637.015 346.003C638.166 346.525 639.42 346.782 640.683 346.757C641.781 346.729 642.863 346.486 643.866 346.041C644.87 345.595 645.776 344.957 646.533 344.161C647.29 343.366 647.882 342.43 648.277 341.406C648.671 340.382 648.86 339.29 648.833 338.193C648.805 337.095 648.562 336.015 648.116 335.011C647.671 334.008 647.032 333.103 646.236 332.347C645.44 331.59 644.503 330.998 643.479 330.604C642.454 330.209 641.361 330.02 640.264 330.048C639.759 330.046 639.255 330.099 638.761 330.204C638.224 329.623 637.571 329.161 636.844 328.848C636.118 328.535 635.334 328.377 634.542 328.385L599.272 329.295C598.98 329.306 598.689 329.342 598.402 329.403C597.629 329.547 596.895 329.855 596.251 330.307C595.607 330.758 595.066 331.342 594.667 332.019C594.267 332.696 594.017 333.451 593.934 334.233C593.851 335.015 593.936 335.806 594.185 336.552L600.314 381.55ZM637.681 343.649L639.99 335.386C640.252 334.431 640.258 333.425 640.007 332.467C640.119 332.467 640.218 332.414 640.33 332.413C641.913 332.381 643.445 332.977 644.589 334.071C645.733 335.165 646.396 336.668 646.433 338.25C646.47 339.832 645.878 341.364 644.786 342.51C643.695 343.657 642.193 344.324 640.61 344.365C639.587 344.397 638.574 344.15 637.681 343.649Z" fill="#2E3841"/>
<path d="M598.402 329.403C599.154 333.697 607.602 336.716 617.76 336.191C627.101 335.761 634.739 332.483 636.139 328.598C635.621 328.444 635.082 328.373 634.542 328.385L599.272 329.295C598.98 329.306 598.689 329.342 598.402 329.403V329.403Z" fill="#3D4A56"/>
<path d="M619.622 362.496C619.668 362.484 619.712 362.465 619.752 362.439L624.732 359.181C624.792 359.142 624.841 359.088 624.876 359.025C624.91 358.962 624.928 358.892 624.928 358.82C624.928 358.748 624.91 358.677 624.876 358.614C624.842 358.551 624.792 358.497 624.732 358.458L619.556 355.07C619.509 355.039 619.456 355.017 619.4 355.006C619.344 354.995 619.286 354.996 619.231 355.007C619.175 355.019 619.122 355.041 619.075 355.073C619.028 355.105 618.987 355.146 618.956 355.194C618.925 355.241 618.903 355.294 618.893 355.35C618.882 355.406 618.883 355.464 618.895 355.52C618.906 355.575 618.929 355.628 618.961 355.675C618.993 355.722 619.034 355.762 619.082 355.793L623.705 358.819L619.279 361.715C619.193 361.771 619.13 361.856 619.101 361.954C619.071 362.052 619.078 362.157 619.119 362.251C619.16 362.344 619.233 362.42 619.325 362.465C619.417 362.51 619.522 362.521 619.622 362.496H619.622Z" fill="#F55B53"/>
<path d="M611.757 362.858C611.841 362.837 611.916 362.792 611.974 362.727C612.031 362.663 612.068 362.583 612.08 362.498C612.092 362.413 612.077 362.326 612.039 362.248C612.001 362.171 611.941 362.107 611.866 362.064L607.277 359.434L611.713 356.141C611.758 356.107 611.797 356.065 611.826 356.016C611.855 355.967 611.874 355.913 611.883 355.857C611.891 355.801 611.888 355.744 611.874 355.689C611.86 355.634 611.836 355.582 611.802 355.536C611.768 355.491 611.726 355.452 611.677 355.423C611.628 355.394 611.574 355.375 611.518 355.366C611.462 355.358 611.404 355.361 611.349 355.375C611.294 355.389 611.243 355.413 611.197 355.447L606.23 359.134C606.172 359.177 606.126 359.233 606.096 359.299C606.065 359.364 606.052 359.435 606.056 359.507C606.06 359.579 606.082 359.648 606.12 359.709C606.158 359.77 606.21 359.821 606.273 359.856L611.436 362.814C611.533 362.87 611.648 362.886 611.757 362.858V362.858Z" fill="#F55B53"/>
<path d="M619.127 365.35C619.169 365.34 619.209 365.323 619.245 365.3C619.294 365.271 619.336 365.232 619.37 365.186C619.403 365.14 619.428 365.088 619.441 365.033C619.455 364.978 619.457 364.921 619.448 364.865C619.44 364.808 619.42 364.754 619.39 364.706L612.332 353.108C612.272 353.01 612.176 352.94 612.064 352.913C611.953 352.886 611.835 352.904 611.737 352.964C611.639 353.024 611.569 353.12 611.542 353.231C611.514 353.343 611.533 353.46 611.592 353.558L618.651 365.156C618.699 365.235 618.771 365.297 618.857 365.332C618.942 365.366 619.037 365.373 619.127 365.35Z" fill="#F55B53"/>
<path d="M222.297 225.614H184.049C182.489 225.614 181.224 226.878 181.224 228.438V232.172C181.224 233.732 182.489 234.996 184.049 234.996H222.297C223.857 234.996 225.122 233.732 225.122 232.172V228.438C225.122 226.878 223.857 225.614 222.297 225.614Z" fill="#F55B53"/>
<path d="M244.591 244.377H161.755C160.195 244.377 158.93 245.641 158.93 247.2V250.935C158.93 252.494 160.195 253.758 161.755 253.758H244.591C246.152 253.758 247.417 252.494 247.417 250.935V247.2C247.417 245.641 246.152 244.377 244.591 244.377Z" fill="#E6E6E6"/>
<path d="M244.591 263.14H161.755C160.195 263.14 158.93 264.404 158.93 265.963V269.698C158.93 271.257 160.195 272.521 161.755 272.521H244.591C246.152 272.521 247.417 271.257 247.417 269.698V265.963C247.417 264.404 246.152 263.14 244.591 263.14Z" fill="#E6E6E6"/>
<path d="M251.613 325.97L251.801 326.562L251.811 326.581L257.458 343.741L263.955 363.516L276.178 400.677L276.297 406.45V406.469L277.205 452.906L274.687 459.202L277.521 469.523C277.521 469.523 276.218 453.921 269.228 462.881C265.268 467.973 260.638 473.183 256.836 478.067C262.375 480.307 268.003 482.333 273.72 484.146C274.954 484.54 276.198 484.915 277.442 485.29C277.709 485.369 277.975 485.448 278.242 485.527C297.192 491.128 316.783 494.275 336.535 494.891C337.562 494.921 338.569 494.941 339.546 494.961C339.892 494.97 340.227 494.98 340.563 494.98C341.669 494.99 342.765 495 343.871 495C346.102 495 348.324 494.967 350.535 494.901C366.905 494.44 383.179 492.241 399.083 488.339C398.974 481.777 398.678 474.11 398.254 465.92C398.056 461.904 393.623 457.553 393.356 453.349C393.169 450.191 397.148 447.221 396.94 444.014C395.598 424.269 393.919 431.849 392.675 417.866C392.547 416.495 392.428 415.182 392.32 413.929C391.52 404.95 390.967 399.335 390.967 399.335L396.279 365.874L404.622 313.339L403.98 312.283L403.26 311.928L359.254 290.16L356.864 284.042C356.168 282.28 354.96 280.766 353.396 279.695C351.832 278.624 349.983 278.045 348.087 278.033L319.098 277.915C317.594 277.908 316.11 278.26 314.768 278.941C313.427 279.622 312.268 280.613 311.387 281.832L303.538 292.696L251.613 325.97Z" fill="#3D4A56"/>
<path d="M282.863 392.408L276.297 406.45L271.814 416.041L264.103 456.39L260.243 460.485L256.935 445.988L222.317 453.67C221.181 447.364 222.013 453.883 221.312 446.966C221.509 446.769 221.716 446.571 221.924 446.374C222.477 445.861 222.941 445.377 222.931 444.913C222.536 421.054 223.721 380.449 233.614 355.849C235.163 351.832 237.206 348.024 239.696 344.511C239.893 344.244 240.081 343.978 240.269 343.712C244.83 337.327 247.713 331.042 251.801 326.572V326.562C251.826 326.541 251.849 326.518 251.87 326.493C251.885 326.485 251.898 326.475 251.909 326.463L279.989 311.583L281.194 345.409L282.053 369.723L282.863 392.408Z" fill="#3D4A56"/>
<path d="M384.114 396.396L392.316 413.934L395.178 420.042L402.887 460.387L406.735 464.472L410.05 449.978L411.608 449.659L439.701 443.844L447.89 469.834C449.735 466.761 450.462 463.145 449.948 459.598C449.433 456.051 447.709 452.79 445.067 450.367C444.508 449.861 444.042 449.369 444.055 448.903C444.521 420.84 442.803 369.597 427.292 348.507C422.366 341.814 419.41 335.147 415.11 330.49C415.097 330.477 415.097 330.464 415.083 330.464L404.618 313.338L403.979 312.287L403.26 311.928L384.114 396.396Z" fill="#3D4A56"/>
<path d="M334.43 269.67C355.729 269.67 372.995 252.414 372.995 231.127C372.995 209.841 355.729 192.584 334.43 192.584C313.131 192.584 295.864 209.841 295.864 231.127C295.864 252.414 313.131 269.67 334.43 269.67Z" fill="#FFCCB6"/>
<path d="M470.83 399.14C470.822 400.654 470.804 402.773 470.735 405.394C470.727 405.758 470.718 406.13 470.709 406.51C470.597 411.328 470.484 415.368 470.302 419.857C470.294 420.168 470.285 420.471 470.268 420.783C470.025 427.045 469.645 434.337 468.987 445.885C467.766 467.216 465.637 448.817 463.499 456.299C463.396 456.671 463.283 457.112 463.179 457.631C462.856 459.514 462.309 461.352 461.552 463.107C460.418 463.781 459.25 464.43 458.099 465.079C454.818 466.904 451.486 468.66 448.128 470.33C446.241 471.264 444.346 472.181 442.442 473.063C442.139 473.201 441.845 473.34 441.55 473.469C431.8 477.977 421.75 481.809 411.474 484.939C409.466 485.545 407.467 486.133 405.441 486.678C403.329 487.266 401.218 487.82 399.08 488.339C383.176 492.241 366.903 494.442 350.533 494.904C348.326 494.973 346.102 494.999 343.869 494.999C342.761 494.999 341.67 494.991 340.563 494.982C340.225 494.982 339.888 494.973 339.55 494.965C338.572 494.939 337.559 494.921 336.538 494.895C316.786 494.28 297.195 491.131 278.246 485.528L277.441 485.294C276.195 484.913 274.957 484.541 273.719 484.143C268.007 482.336 262.378 480.312 256.833 478.071C252.601 476.367 248.418 474.539 244.283 472.587C244.246 472.577 244.21 472.559 244.179 472.535C243.314 472.137 242.44 471.722 241.574 471.298C241.462 471.238 241.341 471.177 241.219 471.117C237.991 469.542 234.797 467.893 231.638 466.169C228.981 460.071 225.242 458.903 222.923 453.54C222.247 451.947 221.76 450.281 221.469 448.575C221.469 448.558 221.46 448.54 221.46 448.514C221.702 451.732 220.43 442.805 221.451 448.48C221.443 448.376 221.434 448.263 221.425 448.134C221.399 447.822 221.365 447.442 221.313 446.966C218.344 417.997 218.535 384.868 217.245 357.569C217.158 355.804 217.069 354.115 216.977 352.5C216.951 351.964 216.916 351.436 216.881 350.917C216.942 350.761 217.011 350.597 217.089 350.441C217.106 350.396 217.126 350.353 217.15 350.311C217.175 350.258 217.204 350.206 217.236 350.156C217.254 350.13 217.279 350.095 217.297 350.069C217.309 350.04 217.324 350.011 217.34 349.983C217.418 349.862 217.505 349.732 217.6 349.611C217.643 349.559 217.678 349.516 217.721 349.472C217.751 349.428 217.786 349.388 217.825 349.351C217.851 349.31 217.883 349.272 217.92 349.239C217.955 349.204 217.989 349.161 218.032 349.118C218.051 349.091 218.074 349.067 218.102 349.049C218.17 348.97 218.245 348.898 218.327 348.832C218.636 348.548 218.965 348.288 219.313 348.054C219.435 347.976 219.564 347.898 219.686 347.812C220.558 347.29 221.476 346.85 222.429 346.497C222.758 346.376 223.087 346.263 223.442 346.142C223.572 346.108 223.693 346.064 223.823 346.021C224.013 345.961 224.204 345.9 224.403 345.857C225.389 345.563 226.454 345.312 227.605 345.078C227.743 345.052 227.891 345.026 228.038 344.992C228.245 344.949 228.462 344.914 228.678 344.879C228.973 344.827 229.275 344.776 229.578 344.724C232.149 344.317 235.066 344.014 238.285 343.815C238.588 343.798 238.891 343.781 239.194 343.764C239.549 343.746 239.904 343.729 240.267 343.712C240.57 343.694 240.882 343.686 241.194 343.677C241.496 343.66 241.808 343.651 242.128 343.642C243.002 343.616 243.903 343.591 244.82 343.573C247.434 343.521 250.186 343.539 253.077 343.599C254.418 343.634 255.786 343.668 257.188 343.729C257.283 343.729 257.37 343.738 257.456 343.738C258.677 343.781 259.906 343.833 261.169 343.902C262.052 343.945 262.944 343.988 263.835 344.04C264.675 344.092 265.523 344.144 266.38 344.205C267.046 344.239 267.713 344.291 268.388 344.334C268.959 344.378 269.53 344.421 270.101 344.456L270.88 344.507C271.305 344.542 271.729 344.568 272.161 344.611C273.113 344.689 274.066 344.767 275.035 344.845C275.996 344.931 276.974 345.018 277.952 345.104C278.93 345.191 279.916 345.286 280.903 345.381C281.007 345.39 281.102 345.398 281.197 345.407C282.097 345.502 282.998 345.589 283.906 345.684C284.114 345.701 284.33 345.718 284.538 345.744C285.405 345.831 286.288 345.933 287.162 346.026C287.431 346.055 287.698 346.083 287.967 346.112C288.652 346.187 289.327 346.252 290.017 346.333C290.926 346.436 291.852 346.531 292.752 346.653C293.453 346.73 294.154 346.808 294.855 346.895C295.954 347.025 297.071 347.163 298.187 347.31C298.611 347.362 299.035 347.414 299.459 347.474C302.645 347.872 305.864 348.313 309.136 348.772C314.095 349.472 319.132 350.234 324.204 351.055C329.285 351.877 334.394 352.745 339.533 353.659C340.831 353.893 342.129 354.126 343.436 354.368C344.025 354.481 344.613 354.593 345.202 354.706C346.206 354.887 347.21 355.078 348.214 355.268C349.218 355.458 350.222 355.648 351.226 355.847C352.42 356.081 353.623 356.315 354.817 356.548C362.685 358.105 370.509 359.766 378.143 361.505C379.398 361.79 380.653 362.084 381.899 362.37C384.392 362.949 386.862 363.537 389.308 364.134C389.983 364.29 390.65 364.454 391.316 364.618C392.978 365.034 394.64 365.449 396.275 365.873L396.561 365.951C397.764 366.245 398.941 366.547 400.118 366.859C402.897 367.585 405.629 368.321 408.315 369.065C410.098 369.558 411.86 370.056 413.603 370.561C416.208 371.314 418.761 372.075 421.245 372.845C421.86 373.035 422.474 373.225 423.08 373.407C424.898 373.969 426.689 374.54 428.429 375.111C429.814 375.561 431.164 376.019 432.497 376.478C433.83 376.936 435.137 377.394 436.418 377.853C437.24 378.147 438.053 378.458 438.867 378.753C440.035 379.185 441.187 379.618 442.312 380.05C442.658 380.18 442.996 380.318 443.333 380.448C443.549 380.543 443.757 380.621 443.965 380.707C444.372 380.872 444.787 381.027 445.185 381.192C445.592 381.347 445.99 381.512 446.388 381.685C446.778 381.841 447.176 382.005 447.557 382.169C447.946 382.325 448.327 382.489 448.708 382.662C449.028 382.792 449.34 382.93 449.643 383.069C450.257 383.337 450.872 383.605 451.469 383.882C451.763 384.02 452.057 384.15 452.352 384.288L453.027 384.6C453.122 384.652 453.217 384.695 453.312 384.738C453.529 384.842 453.754 384.955 453.97 385.058C454.472 385.292 454.966 385.543 455.45 385.776C456.099 386.105 456.731 386.434 457.337 386.754C457.952 387.082 458.549 387.411 459.12 387.731C459.215 387.783 459.302 387.835 459.397 387.887C459.527 387.956 459.657 388.034 459.786 388.103C460.228 388.354 460.652 388.613 461.076 388.864C461.907 389.375 462.695 389.876 463.43 390.378C463.595 390.49 463.75 390.603 463.915 390.707C464.46 391.096 464.979 391.477 465.464 391.866C465.464 391.874 465.464 391.874 465.473 391.874C465.637 391.996 465.793 392.125 465.949 392.246C466.079 392.367 466.217 392.471 466.347 392.592C466.797 392.982 467.212 393.353 467.593 393.734C467.721 393.852 467.842 393.976 467.957 394.106C468.007 394.148 468.054 394.194 468.095 394.245C468.268 394.418 468.424 394.59 468.571 394.763C468.594 394.787 468.614 394.813 468.632 394.841C468.84 395.084 469.03 395.326 469.212 395.568C469.298 395.689 469.394 395.81 469.471 395.931C469.575 396.078 469.679 396.234 469.766 396.381C469.844 396.502 469.913 396.632 469.982 396.753C470.166 397.065 470.322 397.392 470.45 397.73C470.547 397.96 470.625 398.197 470.683 398.44C470.749 398.67 470.798 398.904 470.83 399.14V399.14Z" fill="#2E3841"/>
<path opacity="0.2" d="M470.83 399.14C470.822 400.654 470.804 402.773 470.735 405.394C470.726 405.758 470.709 406.13 470.7 406.51C470.614 410.186 470.484 414.728 470.302 419.857C470.294 420.168 470.285 420.471 470.268 420.783C470.025 427.045 469.645 434.337 468.987 445.885C467.766 467.215 465.637 448.817 463.499 456.299C457.562 452.649 451.053 448.826 444.095 444.899C442.84 444.189 441.573 443.477 440.295 442.762C426.378 435.003 410.833 426.872 394.605 418.819C393.964 418.499 393.315 418.179 392.675 417.868C355.501 399.504 314.926 381.642 282.054 369.722C275.71 367.421 269.651 365.345 263.956 363.52C251.96 359.688 241.592 357.006 233.612 355.847C225.303 354.636 219.564 355.069 217.245 357.569C217.158 355.804 217.069 354.115 216.976 352.5C216.942 351.964 216.907 351.436 216.873 350.917C216.926 350.775 216.995 350.639 217.063 350.502C217.072 350.482 217.079 350.461 217.089 350.441C217.106 350.396 217.126 350.353 217.15 350.311C217.175 350.258 217.204 350.206 217.236 350.156C217.264 350.094 217.299 350.036 217.34 349.983C217.418 349.862 217.504 349.732 217.6 349.611C217.67 349.52 217.745 349.433 217.825 349.351C217.851 349.31 217.883 349.272 217.92 349.239C217.954 349.204 217.989 349.161 218.032 349.118C218.051 349.09 218.074 349.067 218.102 349.049C218.17 348.97 218.245 348.898 218.327 348.832C218.635 348.548 218.965 348.288 219.313 348.054C219.434 347.976 219.564 347.898 219.685 347.812C220.558 347.29 221.476 346.85 222.429 346.497C222.758 346.376 223.087 346.263 223.442 346.142C223.572 346.108 223.693 346.064 223.823 346.021C224.013 345.961 224.203 345.9 224.403 345.857C225.389 345.563 226.454 345.312 227.605 345.078C227.951 345.009 228.315 344.94 228.678 344.879C228.972 344.827 229.275 344.775 229.578 344.724C232.149 344.317 235.066 344.014 238.285 343.815C238.588 343.798 238.891 343.781 239.194 343.763C239.549 343.746 239.904 343.729 240.267 343.711C240.57 343.694 240.882 343.686 241.193 343.677C241.496 343.66 241.808 343.651 242.128 343.642C243.002 343.616 243.902 343.59 244.82 343.573C247.434 343.53 250.186 343.547 253.077 343.608C254.418 343.634 255.786 343.677 257.188 343.737C257.275 343.737 257.37 343.746 257.456 343.746C258.677 343.781 259.914 343.841 261.169 343.902C262.052 343.945 262.944 343.988 263.835 344.04C264.675 344.092 265.523 344.144 266.38 344.205C267.046 344.239 267.713 344.291 268.388 344.334C268.959 344.378 269.53 344.421 270.101 344.455C270.785 344.507 271.469 344.559 272.161 344.611C273.113 344.689 274.065 344.767 275.035 344.845C275.995 344.931 276.974 345.018 277.952 345.104C278.93 345.191 279.916 345.286 280.903 345.381C281.007 345.39 281.102 345.398 281.197 345.407C282.097 345.502 282.997 345.589 283.906 345.684C288.944 346.194 294.128 346.791 299.459 347.474C302.644 347.881 305.87 348.316 309.136 348.78C314.095 349.481 319.132 350.242 324.204 351.055C329.285 351.877 334.394 352.745 339.532 353.659C340.831 353.892 342.129 354.126 343.436 354.368C345.028 354.662 346.621 354.962 348.214 355.268C349.218 355.458 350.222 355.648 351.226 355.847C352.42 356.081 353.623 356.314 354.817 356.548C362.685 358.105 370.509 359.766 378.143 361.504C379.398 361.79 380.653 362.084 381.899 362.369C384.392 362.949 386.861 363.537 389.308 364.134C389.983 364.298 390.649 364.463 391.316 364.627C392.986 365.042 394.639 365.457 396.275 365.873V365.881C396.37 365.899 396.466 365.925 396.561 365.951C397.755 366.253 398.941 366.556 400.118 366.867C402.896 367.594 405.629 368.326 408.315 369.064C410.097 369.566 411.863 370.059 413.603 370.561C416.208 371.322 418.761 372.083 421.245 372.844C421.86 373.035 422.474 373.225 423.08 373.407C424.898 373.978 426.681 374.546 428.429 375.111C429.814 375.561 431.164 376.019 432.497 376.477C433.83 376.936 435.137 377.394 436.418 377.853C437.248 378.147 438.062 378.45 438.867 378.744C440.044 379.176 441.187 379.609 442.312 380.05C442.658 380.18 442.995 380.318 443.333 380.448C443.965 380.69 444.579 380.941 445.185 381.192C445.592 381.347 445.99 381.512 446.388 381.685C446.778 381.84 447.176 382.005 447.557 382.169C447.946 382.325 448.327 382.489 448.708 382.662C449.028 382.792 449.34 382.93 449.643 383.069C450.257 383.337 450.872 383.605 451.469 383.882C451.763 384.02 452.057 384.15 452.352 384.288L453.027 384.6C453.122 384.652 453.217 384.695 453.312 384.738C454.048 385.084 454.758 385.43 455.45 385.776C456.099 386.105 456.731 386.434 457.337 386.754C458.055 387.134 458.739 387.506 459.397 387.887C459.527 387.956 459.657 388.034 459.786 388.103C460.228 388.354 460.652 388.613 461.076 388.864C461.907 389.375 462.694 389.876 463.43 390.378C464.157 390.88 464.832 391.373 465.464 391.866C465.464 391.874 465.464 391.874 465.473 391.874C465.776 392.117 466.07 392.359 466.347 392.592C466.797 392.982 467.212 393.353 467.593 393.734C467.721 393.852 467.842 393.976 467.957 394.106C468.007 394.148 468.054 394.194 468.095 394.244C468.277 394.443 468.459 394.642 468.632 394.841C468.84 395.084 469.03 395.326 469.212 395.568C469.298 395.689 469.394 395.81 469.471 395.931C469.575 396.078 469.679 396.234 469.766 396.381C469.844 396.502 469.913 396.632 469.982 396.753C470.166 397.065 470.322 397.392 470.449 397.73C470.544 397.961 470.622 398.198 470.683 398.44C470.749 398.669 470.798 398.904 470.83 399.14V399.14Z" fill="black"/>
<path d="M326.284 253.505C329.083 252.024 332.334 251.719 335.363 250.798C346.201 247.505 353.462 235.242 351.144 224.145C350.715 222.722 350.523 221.238 350.575 219.752C350.98 216.466 354.34 214.345 357.561 213.592C360.783 212.839 364.211 212.948 367.291 211.738C372.045 209.868 375.204 204.977 375.888 199.91C376.38 194.781 375.239 189.627 372.628 185.186L371.464 188.537C369.689 187.034 368.372 185.061 367.661 182.845C366.339 183.068 365.096 183.626 364.05 184.467C363.005 185.309 362.193 186.404 361.693 187.649C359.825 188.752 359.555 184.224 357.492 183.556C356.585 183.443 355.667 183.669 354.917 184.192C350.759 186.133 345.928 184.474 341.468 183.398C333.745 181.544 325.694 181.534 317.967 183.37C312.833 184.596 307.751 186.73 304.078 190.523C301.204 193.788 298.997 197.584 297.58 201.697C293.64 211.622 291.037 222.361 292.338 232.961C293.421 241.636 297.047 249.795 302.758 256.409C305.733 259.839 315.439 271.808 320.761 269.767C327.448 267.204 318.405 257.675 326.284 253.505Z" fill="#2E3841"/>
</g>
<defs>
<clipPath id="clip0_2326_3405">
<rect width="681" height="495" fill="white"/>
</clipPath>
</defs>
</svg>
