<svg width="620" height="620" viewBox="0 0 620 620" fill="none" xmlns="http://www.w3.org/2000/svg">
<path d="M160 111C160 83.3858 182.386 61 210 61H225C252.614 61 275 83.3858 275 111V510C275 537.614 252.614 560 225 560H160V111Z" fill="#F55B53"/>
<path d="M310 176V111C310 83.3858 332.386 61 360 61L462 61C489.614 61 512 83.3858 512 111V126C512 153.614 489.614 176 462 176H310Z" fill="#4A83B4"/>
<path d="M310 341V275C310 247.386 332.386 225 360 225H462C489.614 225 512 247.386 512 275V291C512 318.614 489.614 341 462 341H310Z" fill="#4A83B4"/>
</svg>
