<svg width="609" height="668" viewBox="0 0 609 668" fill="none" xmlns="http://www.w3.org/2000/svg">
<g filter="url(#filter0_d_2261_805)">
<rect x="41" y="16" width="400" height="275" rx="8" fill="white"/>
<g clip-path="url(#clip0_2261_805)">
<path d="M86.1318 52.5V60.5H85.1631V53.5156H85.1162L83.1631 54.8125V53.8281L85.1631 52.5H86.1318ZM91.042 60.6094C90.4534 60.6094 89.9521 60.4492 89.5381 60.1289C89.124 59.806 88.8076 59.3385 88.5889 58.7266C88.3701 58.112 88.2607 57.3698 88.2607 56.5C88.2607 55.6354 88.3701 54.8971 88.5889 54.2852C88.8102 53.6706 89.1279 53.2018 89.542 52.8789C89.9587 52.5534 90.4587 52.3906 91.042 52.3906C91.6253 52.3906 92.124 52.5534 92.5381 52.8789C92.9548 53.2018 93.2725 53.6706 93.4912 54.2852C93.7126 54.8971 93.8232 55.6354 93.8232 56.5C93.8232 57.3698 93.7139 58.112 93.4951 58.7266C93.2764 59.3385 92.96 59.806 92.5459 60.1289C92.1318 60.4492 91.6305 60.6094 91.042 60.6094ZM91.042 59.75C91.6253 59.75 92.0784 59.4687 92.4014 58.9062C92.7243 58.3437 92.8857 57.5417 92.8857 56.5C92.8857 55.8073 92.8115 55.2174 92.6631 54.7305C92.5173 54.2435 92.3063 53.8724 92.0303 53.6172C91.7568 53.362 91.4274 53.2344 91.042 53.2344C90.4639 53.2344 90.012 53.5195 89.6865 54.0898C89.361 54.6576 89.1982 55.4609 89.1982 56.5C89.1982 57.1927 89.2712 57.7812 89.417 58.2656C89.5628 58.75 89.7725 59.1185 90.0459 59.3711C90.3219 59.6237 90.654 59.75 91.042 59.75Z" fill="#7D8082"/>
<path d="M91.0918 97.7694C90.5553 97.7694 90.0814 97.6744 89.6699 97.4843C89.2611 97.2915 88.942 97.0272 88.7129 96.6913C88.4837 96.3527 88.3704 95.9673 88.373 95.535C88.3704 95.1965 88.4368 94.884 88.5723 94.5975C88.7077 94.3085 88.8926 94.0676 89.1269 93.8749C89.3639 93.6796 89.6282 93.5559 89.9199 93.5038V93.4569C89.5371 93.358 89.2324 93.1431 89.0058 92.8124C88.7793 92.479 88.6673 92.1001 88.6699 91.6757C88.6673 91.2694 88.7702 90.9061 88.9785 90.5858C89.1868 90.2655 89.4733 90.0129 89.8379 89.828C90.2051 89.6431 90.623 89.5507 91.0918 89.5507C91.5553 89.5507 91.9694 89.6431 92.334 89.828C92.6986 90.0129 92.985 90.2655 93.1933 90.5858C93.4043 90.9061 93.5111 91.2694 93.5137 91.6757C93.5111 92.1001 93.3952 92.479 93.166 92.8124C92.9394 93.1431 92.6387 93.358 92.2637 93.4569V93.5038C92.5527 93.5559 92.8131 93.6796 93.0449 93.8749C93.2767 94.0676 93.4616 94.3085 93.5996 94.5975C93.7376 94.884 93.8079 95.1965 93.8105 95.535C93.8079 95.9673 93.6907 96.3527 93.459 96.6913C93.2298 97.0272 92.9108 97.2915 92.5019 97.4843C92.0957 97.6744 91.6256 97.7694 91.0918 97.7694ZM91.0918 96.91C91.4538 96.91 91.7663 96.8514 92.0293 96.7343C92.2923 96.6171 92.4954 96.4517 92.6387 96.2382C92.7819 96.0246 92.8548 95.7746 92.8574 95.4882C92.8548 95.1861 92.7767 94.9191 92.623 94.6874C92.4694 94.4556 92.2598 94.2733 91.9941 94.1405C91.7311 94.0077 91.4303 93.9413 91.0918 93.9413C90.7506 93.9413 90.446 94.0077 90.1777 94.1405C89.9121 94.2733 89.7025 94.4556 89.5488 94.6874C89.3978 94.9191 89.3236 95.1861 89.3262 95.4882C89.3236 95.7746 89.3926 96.0246 89.5332 96.2382C89.6764 96.4517 89.8808 96.6171 90.1465 96.7343C90.4121 96.8514 90.7272 96.91 91.0918 96.91ZM91.0918 93.1132C91.3782 93.1132 91.6322 93.0559 91.8535 92.9413C92.0775 92.8267 92.2532 92.6665 92.3808 92.4608C92.5085 92.2551 92.5736 92.0142 92.5762 91.7382C92.5736 91.4673 92.5098 91.2316 92.3848 91.0311C92.2598 90.828 92.0866 90.6718 91.8652 90.5624C91.6439 90.4504 91.3861 90.3944 91.0918 90.3944C90.7923 90.3944 90.5306 90.4504 90.3066 90.5624C90.0827 90.6718 89.9095 90.828 89.7871 91.0311C89.6647 91.2316 89.6048 91.4673 89.6074 91.7382C89.6048 92.0142 89.666 92.2551 89.791 92.4608C89.9186 92.6665 90.0944 92.8267 90.3183 92.9413C90.5423 93.0559 90.8001 93.1132 91.0918 93.1132Z" fill="#7D8082"/>
<path d="M91.0996 134.929C90.7715 134.924 90.4433 134.862 90.1152 134.742C89.7871 134.622 89.4876 134.42 89.2168 134.136C88.946 133.85 88.7285 133.463 88.5644 132.976C88.4004 132.487 88.3183 131.872 88.3183 131.132C88.3183 130.424 88.3848 129.797 88.5176 129.25C88.6504 128.7 88.8431 128.238 89.0957 127.863C89.3483 127.485 89.653 127.199 90.0098 127.004C90.3691 126.808 90.7741 126.711 91.2246 126.711C91.6725 126.711 92.071 126.8 92.4199 126.98C92.7715 127.157 93.0579 127.405 93.2793 127.722C93.5006 128.04 93.6439 128.406 93.709 128.82H92.7558C92.6673 128.461 92.4954 128.162 92.2402 127.925C91.985 127.688 91.6465 127.57 91.2246 127.57C90.6048 127.57 90.1165 127.839 89.7598 128.379C89.4056 128.918 89.2272 129.674 89.2246 130.648H89.2871C89.4329 130.427 89.6061 130.238 89.8066 130.082C90.0098 129.923 90.2337 129.8 90.4785 129.714C90.7233 129.629 90.9824 129.586 91.2558 129.586C91.7142 129.586 92.1335 129.7 92.5137 129.929C92.8939 130.156 93.1986 130.47 93.4277 130.871C93.6569 131.269 93.7715 131.726 93.7715 132.242C93.7715 132.737 93.6608 133.19 93.4394 133.601C93.2181 134.01 92.9069 134.336 92.5058 134.578C92.1074 134.817 91.6387 134.935 91.0996 134.929ZM91.0996 134.07C91.4277 134.07 91.722 133.988 91.9824 133.824C92.2454 133.66 92.4525 133.44 92.6035 133.164C92.7572 132.888 92.834 132.58 92.834 132.242C92.834 131.911 92.7598 131.61 92.6113 131.339C92.4655 131.066 92.2637 130.849 92.0058 130.687C91.7506 130.526 91.459 130.445 91.1308 130.445C90.8835 130.445 90.653 130.494 90.4394 130.593C90.2259 130.69 90.0384 130.823 89.8769 130.992C89.7181 131.161 89.5931 131.355 89.5019 131.574C89.4108 131.79 89.3652 132.018 89.3652 132.257C89.3652 132.575 89.4394 132.872 89.5879 133.148C89.7389 133.424 89.9447 133.647 90.2051 133.816C90.4681 133.985 90.7663 134.07 91.0996 134.07Z" fill="#7D8082"/>
<path d="M88.0625 170.339V169.542L91.5781 163.98H92.1563V165.214H91.7656L89.1094 169.417V169.48H93.8438V170.339H88.0625ZM91.8281 171.98V170.097V169.726V163.98H92.75V171.98H91.8281Z" fill="#7D8082"/>
<path d="M88.6474 209.14V208.437L91.2881 205.546C91.598 205.208 91.8532 204.913 92.0537 204.663C92.2542 204.411 92.4027 204.174 92.499 203.953C92.598 203.729 92.6474 203.494 92.6474 203.249C92.6474 202.968 92.5797 202.725 92.4443 202.519C92.3115 202.313 92.1292 202.154 91.8974 202.042C91.6657 201.93 91.4053 201.874 91.1162 201.874C90.8089 201.874 90.5407 201.938 90.3115 202.066C90.0849 202.191 89.9092 202.367 89.7842 202.593C89.6618 202.82 89.6006 203.085 89.6006 203.39H88.6787C88.6787 202.921 88.7868 202.51 89.0029 202.156C89.2191 201.801 89.5133 201.525 89.8857 201.328C90.2607 201.13 90.6813 201.031 91.1474 201.031C91.6162 201.031 92.0316 201.13 92.3935 201.328C92.7555 201.525 93.0394 201.792 93.2451 202.128C93.4508 202.464 93.5537 202.838 93.5537 203.249C93.5537 203.544 93.5003 203.831 93.3935 204.113C93.2894 204.391 93.1071 204.703 92.8467 205.046C92.5889 205.387 92.2308 205.804 91.7724 206.296L89.9756 208.218V208.281H93.6943V209.14H88.6474Z" fill="#7D8082"/>
<path d="M91.042 246.409C90.4534 246.409 89.9521 246.249 89.5381 245.929C89.124 245.606 88.8076 245.139 88.5889 244.527C88.3701 243.912 88.2607 243.17 88.2607 242.3C88.2607 241.435 88.3701 240.697 88.5889 240.085C88.8102 239.471 89.1279 239.002 89.542 238.679C89.9586 238.353 90.4586 238.191 91.042 238.191C91.6253 238.191 92.124 238.353 92.5381 238.679C92.9547 239.002 93.2724 239.471 93.4912 240.085C93.7126 240.697 93.8232 241.435 93.8232 242.3C93.8232 243.17 93.7139 243.912 93.4951 244.527C93.2764 245.139 92.9599 245.606 92.5459 245.929C92.1318 246.249 91.6305 246.409 91.042 246.409ZM91.042 245.55C91.6253 245.55 92.0784 245.269 92.4014 244.706C92.7243 244.144 92.8857 243.342 92.8857 242.3C92.8857 241.607 92.8115 241.017 92.6631 240.531C92.5172 240.044 92.3063 239.672 92.0303 239.417C91.7568 239.162 91.4274 239.034 91.042 239.034C90.4639 239.034 90.012 239.32 89.6865 239.89C89.361 240.458 89.1982 241.261 89.1982 242.3C89.1982 242.993 89.2711 243.581 89.417 244.066C89.5628 244.55 89.7724 244.919 90.0459 245.171C90.3219 245.424 90.654 245.55 91.042 245.55Z" fill="#7D8082"/>
<path d="M106.521 245.8V251.8" stroke="#E0E0E0"/>
<path d="M165.37 245.8V251.8" stroke="#E0E0E0"/>
<path d="M224.219 245.8V251.8" stroke="#E0E0E0"/>
<path d="M283.068 245.8V251.8" stroke="#E0E0E0"/>
<path d="M341.917 245.8V251.8" stroke="#E0E0E0"/>
<path d="M106.521 96.16H390.958" stroke="#7D8082"/>
<path d="M106.521 133.32H390.958" stroke="#7D8082"/>
<path d="M106.521 170.48H390.958" stroke="#7D8082"/>
<path d="M106.521 207.64H390.958" stroke="#7D8082"/>
<path d="M106.521 59H390.958" stroke="#7D8082"/>
<path d="M106.521 244.8H390.958" stroke="#7D8082"/>
<path d="M106.521 245.8H390.958" stroke="#E0E0E0"/>
<mask id="mask0_2261_805" style="mask-type:luminance" maskUnits="userSpaceOnUse" x="99" y="49" width="295" height="206">
<path d="M393.367 49H99.2961V254.8H393.367V49Z" fill="white"/>
</mask>
<g mask="url(#mask0_2261_805)">
<path d="M110.771 244.8V124.03C114.095 124.03 118.345 124.03 130.715 124.03C143.084 124.03 174.17 136.784 184.987 142.61C195.803 148.436 213.103 170.48 222.912 170.48C233.592 170.48 240.566 170.48 243.836 170.48C245.49 175.694 248.324 178.79 252.336 179.77C268.647 167.383 278.891 161.19 283.068 161.19C282.814 161.19 285.103 161.19 289.934 161.19C289.934 161.19 314.346 161.19 326.551 161.19C338.757 161.19 352.271 170.48 363.169 170.48C379.152 170.48 388.743 170.48 391.939 170.48V244.8H110.771Z" fill="url(#paint0_linear_2261_805)"/>
</g>
<mask id="mask1_2261_805" style="mask-type:luminance" maskUnits="userSpaceOnUse" x="99" y="49" width="295" height="206">
<path d="M393.367 49H99.2961V254.8H393.367V49Z" fill="white"/>
</mask>
<g mask="url(#mask1_2261_805)">
<path d="M110.771 124.03C114.095 124.03 118.345 124.03 130.715 124.03C143.084 124.03 174.17 136.784 184.987 142.61C195.803 148.436 213.103 170.48 222.912 170.48C233.592 170.48 240.566 170.48 243.836 170.48C245.49 175.694 248.324 178.79 252.336 179.77C268.647 167.383 278.891 161.19 283.068 161.19C282.814 161.19 285.103 161.19 289.934 161.19C289.934 161.19 314.346 161.19 326.551 161.19C338.757 161.19 352.271 170.48 363.169 170.48C379.152 170.48 388.743 170.48 391.939 170.48" stroke="#F55B53" stroke-width="4"/>
</g>
<path d="M94.2632 269.919C93.6212 269.919 93.0743 269.745 92.6226 269.395C92.1709 269.043 91.8257 268.533 91.5871 267.865C91.3485 267.195 91.2291 266.385 91.2291 265.436C91.2291 264.493 91.3485 263.688 91.5871 263.02C91.8286 262.35 92.1752 261.838 92.6269 261.486C93.0814 261.131 93.6269 260.953 94.2632 260.953C94.8996 260.953 95.4436 261.131 95.8953 261.486C96.3499 261.838 96.6965 262.35 96.9351 263.02C97.1766 263.688 97.2973 264.493 97.2973 265.436C97.2973 266.385 97.178 267.195 96.9394 267.865C96.7007 268.533 96.3556 269.043 95.9039 269.395C95.4521 269.745 94.9053 269.919 94.2632 269.919ZM94.2632 268.982C94.8996 268.982 95.3939 268.675 95.7462 268.061C96.0985 267.448 96.2746 266.573 96.2746 265.436C96.2746 264.681 96.1936 264.037 96.0317 263.506C95.8726 262.975 95.6425 262.57 95.3414 262.292C95.0431 262.013 94.6837 261.874 94.2632 261.874C93.6325 261.874 93.1396 262.185 92.7845 262.807C92.4294 263.426 92.2519 264.303 92.2519 265.436C92.2519 266.192 92.3314 266.834 92.4905 267.363C92.6496 267.891 92.8783 268.293 93.1766 268.569C93.4777 268.844 93.8399 268.982 94.2632 268.982ZM98.955 269.8L102.858 262.078V262.01H98.3584V261.073H103.949V262.061L100.063 269.8H98.955ZM105.878 268.684C105.667 268.684 105.487 268.608 105.336 268.458C105.186 268.307 105.111 268.127 105.111 267.917C105.111 267.706 105.186 267.526 105.336 267.375C105.487 267.225 105.667 267.149 105.878 267.149C106.088 267.149 106.268 267.225 106.419 267.375C106.569 267.526 106.645 267.706 106.645 267.917C106.645 268.056 106.609 268.184 106.538 268.3C106.47 268.417 106.378 268.51 106.261 268.581C106.147 268.649 106.02 268.684 105.878 268.684ZM105.878 264.269C105.667 264.269 105.487 264.194 105.336 264.043C105.186 263.892 105.111 263.712 105.111 263.502C105.111 263.292 105.186 263.111 105.336 262.961C105.487 262.81 105.667 262.735 105.878 262.735C106.088 262.735 106.268 262.81 106.419 262.961C106.569 263.111 106.645 263.292 106.645 263.502C106.645 263.641 106.609 263.769 106.538 263.885C106.47 264.002 106.378 264.096 106.261 264.167C106.147 264.235 106.02 264.269 105.878 264.269ZM111.279 269.919C110.637 269.919 110.09 269.745 109.638 269.395C109.187 269.043 108.841 268.533 108.603 267.865C108.364 267.195 108.245 266.385 108.245 265.436C108.245 264.493 108.364 263.688 108.603 263.02C108.844 262.35 109.191 261.838 109.642 261.486C110.097 261.131 110.642 260.953 111.279 260.953C111.915 260.953 112.459 261.131 112.911 261.486C113.365 261.838 113.712 262.35 113.951 263.02C114.192 263.688 114.313 264.493 114.313 265.436C114.313 266.385 114.194 267.195 113.955 267.865C113.716 268.533 113.371 269.043 112.919 269.395C112.468 269.745 111.921 269.919 111.279 269.919ZM111.279 268.982C111.915 268.982 112.41 268.675 112.762 268.061C113.114 267.448 113.29 266.573 113.29 265.436C113.29 264.681 113.209 264.037 113.047 263.506C112.888 262.975 112.658 262.57 112.357 262.292C112.059 262.013 111.699 261.874 111.279 261.874C110.648 261.874 110.155 262.185 109.8 262.807C109.445 263.426 109.267 264.303 109.267 265.436C109.267 266.192 109.347 266.834 109.506 267.363C109.665 267.891 109.894 268.293 110.192 268.569C110.493 268.844 110.856 268.982 111.279 268.982ZM118.779 269.919C118.137 269.919 117.59 269.745 117.138 269.395C116.687 269.043 116.341 268.533 116.103 267.865C115.864 267.195 115.745 266.385 115.745 265.436C115.745 264.493 115.864 263.688 116.103 263.02C116.344 262.35 116.691 261.838 117.142 261.486C117.597 261.131 118.142 260.953 118.779 260.953C119.415 260.953 119.959 261.131 120.411 261.486C120.865 261.838 121.212 262.35 121.451 263.02C121.692 263.688 121.813 264.493 121.813 265.436C121.813 266.385 121.694 267.195 121.455 267.865C121.216 268.533 120.871 269.043 120.419 269.395C119.968 269.745 119.421 269.919 118.779 269.919ZM118.779 268.982C119.415 268.982 119.91 268.675 120.262 268.061C120.614 267.448 120.79 266.573 120.79 265.436C120.79 264.681 120.709 264.037 120.547 263.506C120.388 262.975 120.158 262.57 119.857 262.292C119.559 262.013 119.199 261.874 118.779 261.874C118.148 261.874 117.655 262.185 117.3 262.807C116.945 263.426 116.767 264.303 116.767 265.436C116.767 266.192 116.847 266.834 117.006 267.363C117.165 267.891 117.394 268.293 117.692 268.569C117.993 268.844 118.356 268.982 118.779 268.982Z" fill="#7D8082"/>
<path d="M154.611 261.073V269.8H153.554V262.181H153.503L151.373 263.596V262.522L153.554 261.073H154.611ZM160.189 261.073V269.8H159.133V262.181H159.081L156.951 263.596V262.522L159.133 261.073H160.189ZM163.449 268.684C163.239 268.684 163.059 268.608 162.908 268.458C162.758 268.307 162.682 268.127 162.682 267.917C162.682 267.706 162.758 267.526 162.908 267.375C163.059 267.225 163.239 267.149 163.449 267.149C163.66 267.149 163.84 267.225 163.991 267.375C164.141 267.526 164.216 267.706 164.216 267.917C164.216 268.056 164.181 268.184 164.11 268.3C164.042 268.417 163.949 268.51 163.833 268.581C163.719 268.649 163.591 268.684 163.449 268.684ZM163.449 264.269C163.239 264.269 163.059 264.194 162.908 264.043C162.758 263.892 162.682 263.712 162.682 263.502C162.682 263.292 162.758 263.111 162.908 262.961C163.059 262.81 163.239 262.735 163.449 262.735C163.66 262.735 163.84 262.81 163.991 262.961C164.141 263.111 164.216 263.292 164.216 263.502C164.216 263.641 164.181 263.769 164.11 263.885C164.042 264.002 163.949 264.096 163.833 264.167C163.719 264.235 163.591 264.269 163.449 264.269ZM168.851 269.919C168.209 269.919 167.662 269.745 167.21 269.395C166.758 269.043 166.413 268.533 166.174 267.865C165.936 267.195 165.817 266.385 165.817 265.436C165.817 264.493 165.936 263.688 166.174 263.02C166.416 262.35 166.763 261.838 167.214 261.486C167.669 261.131 168.214 260.953 168.851 260.953C169.487 260.953 170.031 261.131 170.483 261.486C170.937 261.838 171.284 262.35 171.522 263.02C171.764 263.688 171.885 264.493 171.885 265.436C171.885 266.385 171.765 267.195 171.527 267.865C171.288 268.533 170.943 269.043 170.491 269.395C170.04 269.745 169.493 269.919 168.851 269.919ZM168.851 268.982C169.487 268.982 169.981 268.675 170.334 268.061C170.686 267.448 170.862 266.573 170.862 265.436C170.862 264.681 170.781 264.037 170.619 263.506C170.46 262.975 170.23 262.57 169.929 262.292C169.63 262.013 169.271 261.874 168.851 261.874C168.22 261.874 167.727 262.185 167.372 262.807C167.017 263.426 166.839 264.303 166.839 265.436C166.839 266.192 166.919 266.834 167.078 267.363C167.237 267.891 167.466 268.293 167.764 268.569C168.065 268.844 168.427 268.982 168.851 268.982ZM176.351 269.919C175.709 269.919 175.162 269.745 174.71 269.395C174.258 269.043 173.913 268.533 173.674 267.865C173.436 267.195 173.317 266.385 173.317 265.436C173.317 264.493 173.436 263.688 173.674 263.02C173.916 262.35 174.263 261.838 174.714 261.486C175.169 261.131 175.714 260.953 176.351 260.953C176.987 260.953 177.531 261.131 177.983 261.486C178.437 261.838 178.784 262.35 179.022 263.02C179.264 263.688 179.385 264.493 179.385 265.436C179.385 266.385 179.265 267.195 179.027 267.865C178.788 268.533 178.443 269.043 177.991 269.395C177.54 269.745 176.993 269.919 176.351 269.919ZM176.351 268.982C176.987 268.982 177.481 268.675 177.834 268.061C178.186 267.448 178.362 266.573 178.362 265.436C178.362 264.681 178.281 264.037 178.119 263.506C177.96 262.975 177.73 262.57 177.429 262.292C177.13 262.013 176.771 261.874 176.351 261.874C175.72 261.874 175.227 262.185 174.872 262.807C174.517 263.426 174.339 264.303 174.339 265.436C174.339 266.192 174.419 266.834 174.578 267.363C174.737 267.891 174.966 268.293 175.264 268.569C175.565 268.844 175.927 268.982 176.351 268.982Z" fill="#7D8082"/>
<path d="M212.4 261.073V269.8H211.343V262.181H211.292L209.161 263.596V262.522L211.343 261.073H212.4ZM214.705 268.01V267.141L218.54 261.073H219.171V262.419H218.745L215.847 267.005V267.073H221.012V268.01H214.705ZM218.813 269.8V267.746V267.341V261.073H219.819V269.8H218.813ZM223.359 268.684C223.149 268.684 222.968 268.608 222.818 268.458C222.667 268.307 222.592 268.127 222.592 267.917C222.592 267.706 222.667 267.526 222.818 267.375C222.968 267.225 223.149 267.149 223.359 267.149C223.569 267.149 223.75 267.225 223.9 267.375C224.051 267.526 224.126 267.706 224.126 267.917C224.126 268.056 224.091 268.184 224.02 268.3C223.951 268.417 223.859 268.51 223.743 268.581C223.629 268.649 223.501 268.684 223.359 268.684ZM223.359 264.269C223.149 264.269 222.968 264.194 222.818 264.043C222.667 263.892 222.592 263.712 222.592 263.502C222.592 263.292 222.667 263.111 222.818 262.961C222.968 262.81 223.149 262.735 223.359 262.735C223.569 262.735 223.75 262.81 223.9 262.961C224.051 263.111 224.126 263.292 224.126 263.502C224.126 263.641 224.091 263.769 224.02 263.885C223.951 264.002 223.859 264.096 223.743 264.167C223.629 264.235 223.501 264.269 223.359 264.269ZM228.76 269.919C228.118 269.919 227.571 269.745 227.12 269.395C226.668 269.043 226.323 268.533 226.084 267.865C225.846 267.195 225.726 266.385 225.726 265.436C225.726 264.493 225.846 263.688 226.084 263.02C226.326 262.35 226.672 261.838 227.124 261.486C227.578 261.131 228.124 260.953 228.76 260.953C229.397 260.953 229.941 261.131 230.392 261.486C230.847 261.838 231.194 262.35 231.432 263.02C231.674 263.688 231.794 264.493 231.794 265.436C231.794 266.385 231.675 267.195 231.436 267.865C231.198 268.533 230.853 269.043 230.401 269.395C229.949 269.745 229.402 269.919 228.76 269.919ZM228.76 268.982C229.397 268.982 229.891 268.675 230.243 268.061C230.596 267.448 230.772 266.573 230.772 265.436C230.772 264.681 230.691 264.037 230.529 263.506C230.37 262.975 230.14 262.57 229.838 262.292C229.54 262.013 229.181 261.874 228.76 261.874C228.13 261.874 227.637 262.185 227.282 262.807C226.926 263.426 226.749 264.303 226.749 265.436C226.749 266.192 226.828 266.834 226.988 267.363C227.147 267.891 227.375 268.293 227.674 268.569C227.975 268.844 228.337 268.982 228.76 268.982ZM236.26 269.919C235.618 269.919 235.071 269.745 234.62 269.395C234.168 269.043 233.823 268.533 233.584 267.865C233.346 267.195 233.226 266.385 233.226 265.436C233.226 264.493 233.346 263.688 233.584 263.02C233.826 262.35 234.172 261.838 234.624 261.486C235.078 261.131 235.624 260.953 236.26 260.953C236.897 260.953 237.441 261.131 237.892 261.486C238.347 261.838 238.694 262.35 238.932 263.02C239.174 263.688 239.294 264.493 239.294 265.436C239.294 266.385 239.175 267.195 238.936 267.865C238.698 268.533 238.353 269.043 237.901 269.395C237.449 269.745 236.902 269.919 236.26 269.919ZM236.26 268.982C236.897 268.982 237.391 268.675 237.743 268.061C238.096 267.448 238.272 266.573 238.272 265.436C238.272 264.681 238.191 264.037 238.029 263.506C237.87 262.975 237.64 262.57 237.338 262.292C237.04 262.013 236.681 261.874 236.26 261.874C235.63 261.874 235.137 262.185 234.782 262.807C234.426 263.426 234.249 264.303 234.249 265.436C234.249 266.192 234.328 266.834 234.488 267.363C234.647 267.891 234.875 268.293 235.174 268.569C235.475 268.844 235.837 268.982 236.26 268.982Z" fill="#7D8082"/>
<path d="M271.876 261.073V269.8H270.819V262.181H270.768L268.637 263.596V262.522L270.819 261.073H271.876ZM274.659 269.8L278.562 262.078V262.01H274.062V261.073H279.653V262.061L275.767 269.8H274.659ZM281.581 268.684C281.371 268.684 281.191 268.608 281.04 268.458C280.889 268.307 280.814 268.127 280.814 267.917C280.814 267.706 280.889 267.526 281.04 267.375C281.191 267.225 281.371 267.149 281.581 267.149C281.791 267.149 281.972 267.225 282.122 267.375C282.273 267.526 282.348 267.706 282.348 267.917C282.348 268.056 282.313 268.184 282.242 268.3C282.174 268.417 282.081 268.51 281.965 268.581C281.851 268.649 281.723 268.684 281.581 268.684ZM281.581 264.269C281.371 264.269 281.191 264.194 281.04 264.043C280.889 263.892 280.814 263.712 280.814 263.502C280.814 263.292 280.889 263.111 281.04 262.961C281.191 262.81 281.371 262.735 281.581 262.735C281.791 262.735 281.972 262.81 282.122 262.961C282.273 263.111 282.348 263.292 282.348 263.502C282.348 263.641 282.313 263.769 282.242 263.885C282.174 264.002 282.081 264.096 281.965 264.167C281.851 264.235 281.723 264.269 281.581 264.269ZM286.982 269.919C286.34 269.919 285.794 269.745 285.342 269.395C284.89 269.043 284.545 268.533 284.306 267.865C284.068 267.195 283.948 266.385 283.948 265.436C283.948 264.493 284.068 263.688 284.306 263.02C284.548 262.35 284.894 261.838 285.346 261.486C285.801 261.131 286.346 260.953 286.982 260.953C287.619 260.953 288.163 261.131 288.615 261.486C289.069 261.838 289.416 262.35 289.654 263.02C289.896 263.688 290.017 264.493 290.017 265.436C290.017 266.385 289.897 267.195 289.659 267.865C289.42 268.533 289.075 269.043 288.623 269.395C288.171 269.745 287.625 269.919 286.982 269.919ZM286.982 268.982C287.619 268.982 288.113 268.675 288.465 268.061C288.818 267.448 288.994 266.573 288.994 265.436C288.994 264.681 288.913 264.037 288.751 263.506C288.592 262.975 288.362 262.57 288.061 262.292C287.762 262.013 287.403 261.874 286.982 261.874C286.352 261.874 285.859 262.185 285.504 262.807C285.149 263.426 284.971 264.303 284.971 265.436C284.971 266.192 285.051 266.834 285.21 267.363C285.369 267.891 285.598 268.293 285.896 268.569C286.197 268.844 286.559 268.982 286.982 268.982ZM294.482 269.919C293.84 269.919 293.294 269.745 292.842 269.395C292.39 269.043 292.045 268.533 291.806 267.865C291.568 267.195 291.448 266.385 291.448 265.436C291.448 264.493 291.568 263.688 291.806 263.02C292.048 262.35 292.394 261.838 292.846 261.486C293.301 261.131 293.846 260.953 294.482 260.953C295.119 260.953 295.663 261.131 296.115 261.486C296.569 261.838 296.916 262.35 297.154 263.02C297.396 263.688 297.517 264.493 297.517 265.436C297.517 266.385 297.397 267.195 297.159 267.865C296.92 268.533 296.575 269.043 296.123 269.395C295.671 269.745 295.125 269.919 294.482 269.919ZM294.482 268.982C295.119 268.982 295.613 268.675 295.965 268.061C296.318 267.448 296.494 266.573 296.494 265.436C296.494 264.681 296.413 264.037 296.251 263.506C296.092 262.975 295.862 262.57 295.561 262.292C295.262 262.013 294.903 261.874 294.482 261.874C293.852 261.874 293.359 262.185 293.004 262.807C292.649 263.426 292.471 264.303 292.471 265.436C292.471 266.192 292.551 266.834 292.71 267.363C292.869 267.891 293.098 268.293 293.396 268.569C293.697 268.844 294.059 268.982 294.482 268.982Z" fill="#7D8082"/>
<path d="M326.286 269.8V269.033L329.166 265.88C329.505 265.51 329.783 265.189 330.002 264.917C330.22 264.641 330.382 264.382 330.487 264.141C330.595 263.897 330.649 263.641 330.649 263.374C330.649 263.067 330.576 262.801 330.428 262.577C330.283 262.353 330.084 262.179 329.831 262.057C329.578 261.935 329.294 261.874 328.979 261.874C328.644 261.874 328.351 261.944 328.101 262.083C327.854 262.219 327.662 262.411 327.526 262.658C327.392 262.905 327.326 263.195 327.326 263.527H326.32C326.32 263.016 326.438 262.567 326.674 262.181C326.909 261.794 327.23 261.493 327.637 261.277C328.046 261.061 328.505 260.953 329.013 260.953C329.524 260.953 329.978 261.061 330.372 261.277C330.767 261.493 331.077 261.784 331.301 262.151C331.526 262.517 331.638 262.925 331.638 263.374C331.638 263.695 331.58 264.009 331.463 264.316C331.35 264.62 331.151 264.959 330.867 265.334C330.586 265.706 330.195 266.161 329.695 266.698L327.735 268.794V268.863H331.791V269.8H326.286ZM336.398 269.919C335.756 269.919 335.209 269.745 334.757 269.395C334.306 269.043 333.961 268.533 333.722 267.865C333.483 267.195 333.364 266.385 333.364 265.436C333.364 264.493 333.483 263.688 333.722 263.02C333.963 262.35 334.31 261.838 334.762 261.486C335.216 261.131 335.762 260.953 336.398 260.953C337.034 260.953 337.578 261.131 338.03 261.486C338.485 261.838 338.831 262.35 339.07 263.02C339.311 263.688 339.432 264.493 339.432 265.436C339.432 266.385 339.313 267.195 339.074 267.865C338.836 268.533 338.49 269.043 338.039 269.395C337.587 269.745 337.04 269.919 336.398 269.919ZM336.398 268.982C337.034 268.982 337.529 268.675 337.881 268.061C338.233 267.448 338.409 266.573 338.409 265.436C338.409 264.681 338.328 264.037 338.166 263.506C338.007 262.975 337.777 262.57 337.476 262.292C337.178 262.013 336.818 261.874 336.398 261.874C335.767 261.874 335.274 262.185 334.919 262.807C334.564 263.426 334.387 264.303 334.387 265.436C334.387 266.192 334.466 266.834 334.625 267.363C334.784 267.891 335.013 268.293 335.311 268.569C335.612 268.844 335.975 268.982 336.398 268.982ZM341.801 268.684C341.591 268.684 341.411 268.608 341.26 268.458C341.11 268.307 341.034 268.127 341.034 267.917C341.034 267.706 341.11 267.526 341.26 267.375C341.411 267.225 341.591 267.149 341.801 267.149C342.012 267.149 342.192 267.225 342.343 267.375C342.493 267.526 342.568 267.706 342.568 267.917C342.568 268.056 342.533 268.184 342.462 268.3C342.394 268.417 342.301 268.51 342.185 268.581C342.071 268.649 341.943 268.684 341.801 268.684ZM341.801 264.269C341.591 264.269 341.411 264.194 341.26 264.043C341.11 263.892 341.034 263.712 341.034 263.502C341.034 263.292 341.11 263.111 341.26 262.961C341.411 262.81 341.591 262.735 341.801 262.735C342.012 262.735 342.192 262.81 342.343 262.961C342.493 263.111 342.568 263.292 342.568 263.502C342.568 263.641 342.533 263.769 342.462 263.885C342.394 264.002 342.301 264.096 342.185 264.167C342.071 264.235 341.943 264.269 341.801 264.269ZM347.203 269.919C346.561 269.919 346.014 269.745 345.562 269.395C345.11 269.043 344.765 268.533 344.527 267.865C344.288 267.195 344.169 266.385 344.169 265.436C344.169 264.493 344.288 263.688 344.527 263.02C344.768 262.35 345.115 261.838 345.566 261.486C346.021 261.131 346.566 260.953 347.203 260.953C347.839 260.953 348.383 261.131 348.835 261.486C349.289 261.838 349.636 262.35 349.875 263.02C350.116 263.688 350.237 264.493 350.237 265.436C350.237 266.385 350.117 267.195 349.879 267.865C349.64 268.533 349.295 269.043 348.843 269.395C348.392 269.745 347.845 269.919 347.203 269.919ZM347.203 268.982C347.839 268.982 348.333 268.675 348.686 268.061C349.038 267.448 349.214 266.573 349.214 265.436C349.214 264.681 349.133 264.037 348.971 263.506C348.812 262.975 348.582 262.57 348.281 262.292C347.983 262.013 347.623 261.874 347.203 261.874C346.572 261.874 346.079 262.185 345.724 262.807C345.369 263.426 345.191 264.303 345.191 265.436C345.191 266.192 345.271 266.834 345.43 267.363C345.589 267.891 345.818 268.293 346.116 268.569C346.417 268.844 346.779 268.982 347.203 268.982ZM354.703 269.919C354.061 269.919 353.514 269.745 353.062 269.395C352.61 269.043 352.265 268.533 352.027 267.865C351.788 267.195 351.669 266.385 351.669 265.436C351.669 264.493 351.788 263.688 352.027 263.02C352.268 262.35 352.615 261.838 353.066 261.486C353.521 261.131 354.066 260.953 354.703 260.953C355.339 260.953 355.883 261.131 356.335 261.486C356.789 261.838 357.136 262.35 357.375 263.02C357.616 263.688 357.737 264.493 357.737 265.436C357.737 266.385 357.617 267.195 357.379 267.865C357.14 268.533 356.795 269.043 356.343 269.395C355.892 269.745 355.345 269.919 354.703 269.919ZM354.703 268.982C355.339 268.982 355.833 268.675 356.186 268.061C356.538 267.448 356.714 266.573 356.714 265.436C356.714 264.681 356.633 264.037 356.471 263.506C356.312 262.975 356.082 262.57 355.781 262.292C355.483 262.013 355.123 261.874 354.703 261.874C354.072 261.874 353.579 262.185 353.224 262.807C352.869 263.426 352.691 264.303 352.691 265.436C352.691 266.192 352.771 266.834 352.93 267.363C353.089 267.891 353.318 268.293 353.616 268.569C353.917 268.844 354.279 268.982 354.703 268.982Z" fill="#7D8082"/>
</g>
</g>
<g filter="url(#filter1_d_2261_805)">
<rect x="20" y="369" width="400" height="275" rx="8" fill="white"/>
<g clip-path="url(#clip1_2261_805)">
<path d="M57.3456 405.5V413.5H56.3769V406.516H56.33L54.3769 407.812V406.828L56.3769 405.5H57.3456ZM62.2558 413.609C61.6672 413.609 61.1659 413.449 60.7519 413.129C60.3378 412.806 60.0214 412.339 59.8026 411.727C59.5839 411.112 59.4745 410.37 59.4745 409.5C59.4745 408.635 59.5839 407.897 59.8026 407.285C60.024 406.671 60.3417 406.202 60.7558 405.879C61.1724 405.553 61.6724 405.391 62.2558 405.391C62.8391 405.391 63.3378 405.553 63.7519 405.879C64.1685 406.202 64.4862 406.671 64.705 407.285C64.9263 407.897 65.037 408.635 65.037 409.5C65.037 410.37 64.9276 411.112 64.7089 411.727C64.4901 412.339 64.1737 412.806 63.7597 413.129C63.3456 413.449 62.8443 413.609 62.2558 413.609ZM62.2558 412.75C62.8391 412.75 63.2922 412.469 63.6151 411.906C63.9381 411.344 64.0995 410.542 64.0995 409.5C64.0995 408.807 64.0253 408.217 63.8769 407.73C63.731 407.243 63.5201 406.872 63.244 406.617C62.9706 406.362 62.6412 406.234 62.2558 406.234C61.6776 406.234 61.2258 406.52 60.9003 407.09C60.5748 407.658 60.412 408.461 60.412 409.5C60.412 410.193 60.4849 410.781 60.6308 411.266C60.7766 411.75 60.9862 412.118 61.2597 412.371C61.5357 412.624 61.8677 412.75 62.2558 412.75Z" fill="#7D8082"/>
<path d="M62.3056 450.77C61.7692 450.77 61.2952 450.674 60.8838 450.484C60.4749 450.292 60.1559 450.027 59.9267 449.691C59.6976 449.353 59.5843 448.967 59.5869 448.535C59.5843 448.197 59.6507 447.884 59.7861 447.598C59.9215 447.309 60.1064 447.068 60.3408 446.875C60.5778 446.68 60.8421 446.556 61.1338 446.504V446.457C60.7509 446.358 60.4463 446.143 60.2197 445.812C59.9931 445.479 59.8812 445.1 59.8838 444.676C59.8812 444.27 59.984 443.906 60.1924 443.586C60.4007 443.266 60.6871 443.013 61.0517 442.828C61.4189 442.643 61.8369 442.551 62.3056 442.551C62.7692 442.551 63.1832 442.643 63.5478 442.828C63.9124 443.013 64.1989 443.266 64.4072 443.586C64.6181 443.906 64.7249 444.27 64.7275 444.676C64.7249 445.1 64.609 445.479 64.3799 445.812C64.1533 446.143 63.8525 446.358 63.4775 446.457V446.504C63.7666 446.556 64.027 446.68 64.2588 446.875C64.4905 447.068 64.6754 447.309 64.8135 447.598C64.9515 447.884 65.0218 448.197 65.0244 448.535C65.0218 448.967 64.9046 449.353 64.6728 449.691C64.4437 450.027 64.1246 450.292 63.7158 450.484C63.3095 450.674 62.8395 450.77 62.3056 450.77ZM62.3056 449.91C62.6676 449.91 62.9801 449.852 63.2431 449.734C63.5062 449.617 63.7093 449.452 63.8525 449.238C63.9957 449.025 64.0687 448.775 64.0713 448.488C64.0687 448.186 63.9905 447.919 63.8369 447.687C63.6832 447.456 63.4736 447.273 63.208 447.141C62.945 447.008 62.6442 446.941 62.3056 446.941C61.9645 446.941 61.6598 447.008 61.3916 447.141C61.1259 447.273 60.9163 447.456 60.7627 447.687C60.6116 447.919 60.5374 448.186 60.54 448.488C60.5374 448.775 60.6064 449.025 60.747 449.238C60.8903 449.452 61.0947 449.617 61.3603 449.734C61.626 449.852 61.9411 449.91 62.3056 449.91ZM62.3056 446.113C62.5921 446.113 62.846 446.056 63.0674 445.941C63.2913 445.827 63.4671 445.667 63.5947 445.461C63.7223 445.255 63.7874 445.014 63.79 444.738C63.7874 444.467 63.7236 444.232 63.5986 444.031C63.4736 443.828 63.3004 443.672 63.0791 443.562C62.8577 443.451 62.5999 443.395 62.3056 443.395C62.0062 443.395 61.7444 443.451 61.5205 443.562C61.2965 443.672 61.1233 443.828 61.0009 444.031C60.8786 444.232 60.8187 444.467 60.8213 444.738C60.8187 445.014 60.8799 445.255 61.0049 445.461C61.1325 445.667 61.3082 445.827 61.5322 445.941C61.7562 446.056 62.014 446.113 62.3056 446.113Z" fill="#7D8082"/>
<path d="M62.3134 487.929C61.9853 487.924 61.6572 487.861 61.3291 487.742C61.0009 487.622 60.7015 487.42 60.4306 487.136C60.1598 486.85 59.9424 486.463 59.7783 485.976C59.6142 485.486 59.5322 484.872 59.5322 484.132C59.5322 483.424 59.5986 482.796 59.7314 482.25C59.8642 481.7 60.0569 481.238 60.3095 480.863C60.5621 480.485 60.8668 480.199 61.2236 480.003C61.583 479.808 61.9879 479.71 62.4384 479.71C62.8864 479.71 63.2848 479.8 63.6338 479.98C63.9853 480.157 64.2718 480.404 64.4931 480.722C64.7145 481.04 64.8577 481.406 64.9228 481.82H63.9697C63.8812 481.46 63.7093 481.162 63.4541 480.925C63.1989 480.688 62.8603 480.57 62.4384 480.57C61.8187 480.57 61.3304 480.839 60.9736 481.378C60.6194 481.917 60.4411 482.674 60.4384 483.648H60.5009C60.6468 483.427 60.82 483.238 61.0205 483.082C61.2236 482.923 61.4476 482.8 61.6924 482.714C61.9371 482.628 62.1963 482.585 62.4697 482.585C62.928 482.585 63.3473 482.7 63.7275 482.929C64.1077 483.156 64.4124 483.47 64.6416 483.871C64.8707 484.269 64.9853 484.726 64.9853 485.242C64.9853 485.736 64.8746 486.19 64.6533 486.601C64.4319 487.01 64.1207 487.335 63.7197 487.578C63.3213 487.817 62.8525 487.934 62.3134 487.929ZM62.3134 487.07C62.6416 487.07 62.9358 486.988 63.1963 486.824C63.4593 486.66 63.6663 486.44 63.8174 486.164C63.971 485.888 64.0478 485.58 64.0478 485.242C64.0478 484.911 63.9736 484.61 63.8252 484.339C63.6793 484.066 63.4775 483.848 63.2197 483.687C62.9645 483.526 62.6728 483.445 62.3447 483.445C62.0973 483.445 61.8668 483.494 61.6533 483.593C61.4398 483.69 61.2523 483.822 61.0908 483.992C60.9319 484.161 60.8069 484.355 60.7158 484.574C60.6246 484.79 60.5791 485.018 60.5791 485.257C60.5791 485.575 60.6533 485.872 60.8017 486.148C60.9528 486.424 61.1585 486.647 61.4189 486.816C61.6819 486.985 61.9801 487.07 62.3134 487.07Z" fill="#7D8082"/>
<path d="M59.2763 523.339V522.542L62.792 516.98H63.3701V518.214H62.9795L60.3232 522.417V522.48H65.0576V523.339H59.2763ZM63.042 524.98V523.097V522.726V516.98H63.9638V524.98H63.042Z" fill="#7D8082"/>
<path d="M59.8613 562.14V561.437L62.5019 558.546C62.8118 558.208 63.067 557.913 63.2676 557.663C63.4681 557.411 63.6165 557.174 63.7129 556.952C63.8118 556.728 63.8613 556.494 63.8613 556.249C63.8613 555.968 63.7936 555.725 63.6582 555.519C63.5254 555.313 63.3431 555.154 63.1113 555.042C62.8795 554.93 62.6191 554.874 62.3301 554.874C62.0228 554.874 61.7545 554.938 61.5254 555.066C61.2988 555.191 61.123 555.366 60.998 555.593C60.8756 555.82 60.8144 556.085 60.8144 556.39H59.8926C59.8926 555.921 60.0006 555.51 60.2168 555.156C60.4329 554.801 60.7272 554.525 61.0996 554.327C61.4746 554.129 61.8952 554.031 62.3613 554.031C62.8301 554.031 63.2454 554.129 63.6074 554.327C63.9694 554.525 64.2532 554.792 64.459 555.128C64.6647 555.464 64.7676 555.838 64.7676 556.249C64.7676 556.544 64.7142 556.831 64.6074 557.113C64.5032 557.391 64.3209 557.702 64.0605 558.046C63.8027 558.387 63.4446 558.804 62.9863 559.296L61.1894 561.218V561.281H64.9082V562.14H59.8613Z" fill="#7D8082"/>
<path d="M62.2558 599.409C61.6673 599.409 61.166 599.249 60.7519 598.929C60.3379 598.606 60.0215 598.139 59.8027 597.527C59.584 596.912 59.4746 596.17 59.4746 595.3C59.4746 594.435 59.584 593.697 59.8027 593.085C60.0241 592.471 60.3418 592.002 60.7558 591.679C61.1725 591.353 61.6725 591.191 62.2558 591.191C62.8392 591.191 63.3379 591.353 63.7519 591.679C64.1686 592.002 64.4863 592.471 64.7051 593.085C64.9264 593.697 65.0371 594.435 65.0371 595.3C65.0371 596.17 64.9277 596.912 64.709 597.527C64.4902 598.139 64.1738 598.606 63.7597 598.929C63.3457 599.249 62.8444 599.409 62.2558 599.409ZM62.2558 598.55C62.8392 598.55 63.2923 598.269 63.6152 597.706C63.9381 597.144 64.0996 596.342 64.0996 595.3C64.0996 594.607 64.0254 594.017 63.8769 593.531C63.7311 593.044 63.5202 592.672 63.2441 592.417C62.9707 592.162 62.6412 592.034 62.2558 592.034C61.6777 592.034 61.2259 592.32 60.9004 592.89C60.5748 593.458 60.4121 594.261 60.4121 595.3C60.4121 595.993 60.485 596.581 60.6308 597.066C60.7767 597.55 60.9863 597.919 61.2597 598.171C61.5358 598.424 61.8678 598.55 62.2558 598.55Z" fill="#7D8082"/>
<path d="M88.8388 598.8V604.8" stroke="#E0E0E0"/>
<path d="M146.304 598.8V604.8" stroke="#E0E0E0"/>
<path d="M175.037 598.8V604.8" stroke="#E0E0E0"/>
<path d="M203.769 598.8V604.8" stroke="#E0E0E0"/>
<path d="M232.502 598.8V604.8" stroke="#E0E0E0"/>
<path d="M261.235 598.8V604.8" stroke="#E0E0E0"/>
<path d="M289.967 598.8V604.8" stroke="#E0E0E0"/>
<path d="M318.7 598.8V604.8" stroke="#E0E0E0"/>
<path d="M347.433 598.8V604.8" stroke="#E0E0E0"/>
<path d="M79.2266 449.16H376.2" stroke="#7D8082"/>
<path d="M79.2266 486.32H376.2" stroke="#7D8082"/>
<path d="M79.2266 523.48H376.2" stroke="#7D8082"/>
<path d="M79.2266 560.64H376.2" stroke="#7D8082"/>
<path d="M79.2266 412H376.2" stroke="#7D8082"/>
<path d="M79.2266 597.8H376.2" stroke="#7D8082"/>
<path d="M79.2266 598.8H376.2" stroke="#E0E0E0"/>
<mask id="mask2_2261_805" style="mask-type:luminance" maskUnits="userSpaceOnUse" x="75" y="410" width="304" height="190">
<path d="M378.188 410H75.3055V599.8H378.188V410Z" fill="white"/>
</mask>
<g mask="url(#mask2_2261_805)">
<path d="M85.4867 597.801V494.552H92.191V597.801H85.4867Z" fill="#F55B53" fill-opacity="0.85"/>
</g>
<mask id="mask3_2261_805" style="mask-type:luminance" maskUnits="userSpaceOnUse" x="75" y="410" width="304" height="190">
<path d="M378.188 410H75.3055V599.8H378.188V410Z" fill="white"/>
</mask>
<g mask="url(#mask3_2261_805)">
<path d="M95.0642 597.801V502.065H101.769V597.801H95.0642Z" fill="#F55B53" fill-opacity="0.85"/>
</g>
<mask id="mask4_2261_805" style="mask-type:luminance" maskUnits="userSpaceOnUse" x="75" y="410" width="304" height="190">
<path d="M378.188 410H75.3055V599.8H378.188V410Z" fill="white"/>
</mask>
<g mask="url(#mask4_2261_805)">
<path d="M114.219 597.801V504.234H120.924V597.801H114.219Z" fill="#F55B53" fill-opacity="0.85"/>
</g>
<mask id="mask5_2261_805" style="mask-type:luminance" maskUnits="userSpaceOnUse" x="75" y="410" width="304" height="190">
<path d="M378.188 410H75.3055V599.8H378.188V410Z" fill="white"/>
</mask>
<g mask="url(#mask5_2261_805)">
<path d="M123.797 597.801V509.233H130.501V597.801H123.797Z" fill="#F55B53" fill-opacity="0.85"/>
</g>
<mask id="mask6_2261_805" style="mask-type:luminance" maskUnits="userSpaceOnUse" x="75" y="410" width="304" height="190">
<path d="M378.188 410H75.3055V599.8H378.188V410Z" fill="white"/>
</mask>
<g mask="url(#mask6_2261_805)">
<path d="M133.374 597.801V506.035H140.079V597.801H133.374Z" fill="#F55B53" fill-opacity="0.85"/>
</g>
<mask id="mask7_2261_805" style="mask-type:luminance" maskUnits="userSpaceOnUse" x="75" y="410" width="304" height="190">
<path d="M378.188 410H75.3055V599.8H378.188V410Z" fill="white"/>
</mask>
<g mask="url(#mask7_2261_805)">
<path d="M142.952 597.801V507.384H149.656V597.801H142.952Z" fill="#F55B53" fill-opacity="0.85"/>
</g>
<mask id="mask8_2261_805" style="mask-type:luminance" maskUnits="userSpaceOnUse" x="75" y="410" width="304" height="190">
<path d="M378.188 410H75.3055V599.8H378.188V410Z" fill="white"/>
</mask>
<g mask="url(#mask8_2261_805)">
<path d="M152.53 597.801V515.651H159.234V597.801H152.53Z" fill="#F55B53" fill-opacity="0.85"/>
</g>
<mask id="mask9_2261_805" style="mask-type:luminance" maskUnits="userSpaceOnUse" x="75" y="410" width="304" height="190">
<path d="M378.188 410H75.3055V599.8H378.188V410Z" fill="white"/>
</mask>
<g mask="url(#mask9_2261_805)">
<path d="M162.107 597.801V495.896H168.811V597.801H162.107Z" fill="#F55B53" fill-opacity="0.85"/>
</g>
<mask id="mask10_2261_805" style="mask-type:luminance" maskUnits="userSpaceOnUse" x="75" y="410" width="304" height="190">
<path d="M378.188 410H75.3055V599.8H378.188V410Z" fill="white"/>
</mask>
<g mask="url(#mask10_2261_805)">
<path d="M171.685 597.801V481.676H178.389V597.801H171.685Z" fill="#F55B53" fill-opacity="0.85"/>
</g>
<mask id="mask11_2261_805" style="mask-type:luminance" maskUnits="userSpaceOnUse" x="75" y="410" width="304" height="190">
<path d="M378.188 410H75.3055V599.8H378.188V410Z" fill="white"/>
</mask>
<g mask="url(#mask11_2261_805)">
<path d="M190.84 597.801V495.457H197.544V597.801H190.84Z" fill="#F55B53" fill-opacity="0.85"/>
</g>
<mask id="mask12_2261_805" style="mask-type:luminance" maskUnits="userSpaceOnUse" x="75" y="410" width="304" height="190">
<path d="M378.188 410H75.3055V599.8H378.188V410Z" fill="white"/>
</mask>
<g mask="url(#mask12_2261_805)">
<path d="M200.417 597.801V501.377H207.122V597.801H200.417Z" fill="#F55B53" fill-opacity="0.85"/>
</g>
<mask id="mask13_2261_805" style="mask-type:luminance" maskUnits="userSpaceOnUse" x="75" y="410" width="304" height="190">
<path d="M378.188 410H75.3055V599.8H378.188V410Z" fill="white"/>
</mask>
<g mask="url(#mask13_2261_805)">
<path d="M209.995 597.801V513.022H216.699V597.801H209.995Z" fill="#F55B53" fill-opacity="0.85"/>
</g>
<mask id="mask14_2261_805" style="mask-type:luminance" maskUnits="userSpaceOnUse" x="75" y="410" width="304" height="190">
<path d="M378.188 410H75.3055V599.8H378.188V410Z" fill="white"/>
</mask>
<g mask="url(#mask14_2261_805)">
<path d="M219.572 597.801V514.671H226.277V597.801H219.572Z" fill="#F55B53" fill-opacity="0.85"/>
</g>
<mask id="mask15_2261_805" style="mask-type:luminance" maskUnits="userSpaceOnUse" x="75" y="410" width="304" height="190">
<path d="M378.188 410H75.3055V599.8H378.188V410Z" fill="white"/>
</mask>
<g mask="url(#mask15_2261_805)">
<path d="M229.15 597.801V506.97H235.854V597.801H229.15Z" fill="#F55B53" fill-opacity="0.85"/>
</g>
<mask id="mask16_2261_805" style="mask-type:luminance" maskUnits="userSpaceOnUse" x="75" y="410" width="304" height="190">
<path d="M378.188 410H75.3055V599.8H378.188V410Z" fill="white"/>
</mask>
<g mask="url(#mask16_2261_805)">
<path d="M238.728 597.801V494.328H245.432V597.801H238.728Z" fill="#F55B53" fill-opacity="0.85"/>
</g>
<mask id="mask17_2261_805" style="mask-type:luminance" maskUnits="userSpaceOnUse" x="75" y="410" width="304" height="190">
<path d="M378.188 410H75.3055V599.8H378.188V410Z" fill="white"/>
</mask>
<g mask="url(#mask17_2261_805)">
<path d="M248.305 597.801V499.979H255.009V597.801H248.305Z" fill="#F55B53" fill-opacity="0.85"/>
</g>
<mask id="mask18_2261_805" style="mask-type:luminance" maskUnits="userSpaceOnUse" x="75" y="410" width="304" height="190">
<path d="M378.188 410H75.3055V599.8H378.188V410Z" fill="white"/>
</mask>
<g mask="url(#mask18_2261_805)">
<path d="M257.883 597.801V506.365H264.587V597.801H257.883Z" fill="#F55B53" fill-opacity="0.85"/>
</g>
<mask id="mask19_2261_805" style="mask-type:luminance" maskUnits="userSpaceOnUse" x="75" y="410" width="304" height="190">
<path d="M378.188 410H75.3055V599.8H378.188V410Z" fill="white"/>
</mask>
<g mask="url(#mask19_2261_805)">
<path d="M267.46 597.801V493.643H274.164V597.801H267.46Z" fill="#F55B53" fill-opacity="0.85"/>
</g>
<mask id="mask20_2261_805" style="mask-type:luminance" maskUnits="userSpaceOnUse" x="75" y="410" width="304" height="190">
<path d="M378.188 410H75.3055V599.8H378.188V410Z" fill="white"/>
</mask>
<g mask="url(#mask20_2261_805)">
<path d="M277.038 597.801V516.739H283.742V597.801H277.038Z" fill="#F55B53" fill-opacity="0.85"/>
</g>
<mask id="mask21_2261_805" style="mask-type:luminance" maskUnits="userSpaceOnUse" x="75" y="410" width="304" height="190">
<path d="M378.188 410H75.3055V599.8H378.188V410Z" fill="white"/>
</mask>
<g mask="url(#mask21_2261_805)">
<path d="M286.615 597.801V510.01H293.32V597.801H286.615Z" fill="#F55B53" fill-opacity="0.85"/>
</g>
<mask id="mask22_2261_805" style="mask-type:luminance" maskUnits="userSpaceOnUse" x="75" y="410" width="304" height="190">
<path d="M378.188 410H75.3055V599.8H378.188V410Z" fill="white"/>
</mask>
<g mask="url(#mask22_2261_805)">
<path d="M296.193 597.801V501.574H302.897V597.801H296.193Z" fill="#F55B53" fill-opacity="0.85"/>
</g>
<mask id="mask23_2261_805" style="mask-type:luminance" maskUnits="userSpaceOnUse" x="75" y="410" width="304" height="190">
<path d="M378.188 410H75.3055V599.8H378.188V410Z" fill="white"/>
</mask>
<g mask="url(#mask23_2261_805)">
<path d="M305.77 597.801V484.936H312.475V597.801H305.77Z" fill="#F55B53" fill-opacity="0.85"/>
</g>
<mask id="mask24_2261_805" style="mask-type:luminance" maskUnits="userSpaceOnUse" x="75" y="410" width="304" height="190">
<path d="M378.188 410H75.3055V599.8H378.188V410Z" fill="white"/>
</mask>
<g mask="url(#mask24_2261_805)">
<path d="M315.348 597.801V494.028H322.052V597.801H315.348Z" fill="#F55B53" fill-opacity="0.85"/>
</g>
<mask id="mask25_2261_805" style="mask-type:luminance" maskUnits="userSpaceOnUse" x="75" y="410" width="304" height="190">
<path d="M378.188 410H75.3055V599.8H378.188V410Z" fill="white"/>
</mask>
<g mask="url(#mask25_2261_805)">
<path d="M324.925 597.801V493.812H331.63V597.801H324.925Z" fill="#F55B53" fill-opacity="0.85"/>
</g>
<mask id="mask26_2261_805" style="mask-type:luminance" maskUnits="userSpaceOnUse" x="75" y="410" width="304" height="190">
<path d="M378.188 410H75.3055V599.8H378.188V410Z" fill="white"/>
</mask>
<g mask="url(#mask26_2261_805)">
<path d="M334.503 597.801V495.761H341.207V597.801H334.503Z" fill="#F55B53" fill-opacity="0.85"/>
</g>
<mask id="mask27_2261_805" style="mask-type:luminance" maskUnits="userSpaceOnUse" x="75" y="410" width="304" height="190">
<path d="M378.188 410H75.3055V599.8H378.188V410Z" fill="white"/>
</mask>
<g mask="url(#mask27_2261_805)">
<path d="M344.081 597.801V498.847H350.785V597.801H344.081Z" fill="#F55B53" fill-opacity="0.85"/>
</g>
<mask id="mask28_2261_805" style="mask-type:luminance" maskUnits="userSpaceOnUse" x="75" y="410" width="304" height="190">
<path d="M378.188 410H75.3055V599.8H378.188V410Z" fill="white"/>
</mask>
<g mask="url(#mask28_2261_805)">
<path d="M353.658 597.801V506.08H360.362V597.801H353.658Z" fill="#F55B53" fill-opacity="0.85"/>
</g>
<mask id="mask29_2261_805" style="mask-type:luminance" maskUnits="userSpaceOnUse" x="75" y="410" width="304" height="190">
<path d="M378.188 410H75.3055V599.8H378.188V410Z" fill="white"/>
</mask>
<g mask="url(#mask29_2261_805)">
<path d="M363.236 597.801V505.653H369.94V597.801H363.236Z" fill="#F55B53" fill-opacity="0.85"/>
</g>
<path d="M70.21 616.583C70.1759 616.239 70.0296 615.972 69.7711 615.782C69.5125 615.591 69.1617 615.496 68.7185 615.496C68.4174 615.496 68.1631 615.539 67.9557 615.624C67.7483 615.706 67.5892 615.821 67.4784 615.969C67.3705 616.117 67.3165 616.284 67.3165 616.472C67.3108 616.628 67.3435 616.765 67.4145 616.881C67.4884 616.997 67.5892 617.098 67.7171 617.184C67.8449 617.266 67.9926 617.338 68.1603 617.401C68.3279 617.461 68.5069 617.512 68.6972 617.554L69.4813 617.742C69.862 617.827 70.2114 617.941 70.5296 618.083C70.8478 618.225 71.1233 618.399 71.3563 618.607C71.5892 618.814 71.7696 619.059 71.8975 619.34C72.0282 619.621 72.0949 619.944 72.0978 620.307C72.0949 620.841 71.9586 621.304 71.6887 621.696C71.4216 622.086 71.0353 622.388 70.5296 622.604C70.0267 622.817 69.4202 622.924 68.71 622.924C68.0054 622.924 67.3918 622.816 66.8691 622.6C66.3492 622.384 65.9429 622.064 65.6503 621.641C65.3605 621.215 65.2086 620.688 65.1943 620.06H66.9799C66.9997 620.353 67.0836 620.597 67.2313 620.793C67.3819 620.986 67.5821 621.132 67.8321 621.232C68.085 621.328 68.3705 621.377 68.6887 621.377C69.0012 621.377 69.2725 621.331 69.5026 621.24C69.7355 621.149 69.9159 621.023 70.0438 620.861C70.1716 620.699 70.2355 620.513 70.2355 620.303C70.2355 620.107 70.1773 619.942 70.0608 619.809C69.9472 619.675 69.7796 619.561 69.558 619.468C69.3392 619.374 69.0708 619.289 68.7526 619.212L67.8023 618.973C67.0665 618.794 66.4855 618.515 66.0594 618.134C65.6333 617.753 65.4216 617.24 65.4245 616.596C65.4216 616.067 65.5622 615.605 65.8463 615.211C66.1333 614.816 66.5267 614.507 67.0267 614.286C67.5267 614.064 68.0949 613.953 68.7313 613.953C69.379 613.953 69.9444 614.064 70.4273 614.286C70.9131 614.507 71.2909 614.816 71.5608 615.211C71.8307 615.605 71.9699 616.063 71.9784 616.583H70.21ZM76.2877 622.928C75.6144 622.928 75.0349 622.792 74.5491 622.519C74.0662 622.243 73.694 621.854 73.4326 621.351C73.1713 620.846 73.0406 620.247 73.0406 619.557C73.0406 618.884 73.1713 618.293 73.4326 617.784C73.694 617.276 74.0619 616.88 74.5363 616.596C75.0136 616.311 75.5733 616.169 76.2153 616.169C76.6471 616.169 77.0491 616.239 77.4213 616.378C77.7963 616.515 78.123 616.721 78.4014 616.996C78.6826 617.272 78.9014 617.618 79.0576 618.036C79.2139 618.451 79.292 618.936 79.292 619.493V619.992H73.765V618.867H77.5832C77.5832 618.605 77.5264 618.374 77.4127 618.172C77.2991 617.971 77.1414 617.813 76.9397 617.699C76.7409 617.583 76.5093 617.524 76.2451 617.524C75.9696 617.524 75.7252 617.588 75.5122 617.716C75.3019 617.841 75.1372 618.01 75.0179 618.223C74.8985 618.434 74.8375 618.668 74.8346 618.926V619.996C74.8346 620.32 74.8943 620.6 75.0136 620.836C75.1358 621.071 75.3076 621.253 75.5292 621.381C75.7508 621.509 76.0136 621.573 76.3176 621.573C76.5193 621.573 76.7039 621.544 76.8716 621.488C77.0392 621.431 77.1826 621.346 77.3019 621.232C77.4213 621.118 77.5122 620.979 77.5747 620.814L79.2537 620.925C79.1684 621.328 78.9937 621.681 78.7295 621.982C78.4681 622.28 78.1301 622.513 77.7153 622.681C77.3034 622.846 76.8275 622.928 76.2877 622.928ZM80.4767 625.255V616.255H82.2664V617.354H82.3474C82.4269 617.178 82.542 616.999 82.6926 616.817C82.846 616.632 83.0448 616.479 83.2892 616.357C83.5363 616.232 83.8431 616.169 84.2096 616.169C84.6869 616.169 85.1272 616.294 85.5306 616.544C85.9341 616.792 86.2565 617.165 86.498 617.665C86.7394 618.162 86.8602 618.786 86.8602 619.536C86.8602 620.266 86.7423 620.882 86.5065 621.385C86.2735 621.885 85.9554 622.265 85.5519 622.523C85.1514 622.779 84.7025 622.907 84.2054 622.907C83.8531 622.907 83.5534 622.848 83.3062 622.732C83.0619 622.615 82.8616 622.469 82.7054 622.293C82.5491 622.114 82.4298 621.934 82.3474 621.752H82.292V625.255H80.4767ZM82.2537 619.527C82.2537 619.917 82.3076 620.256 82.4156 620.546C82.5235 620.836 82.6798 621.061 82.8843 621.223C83.0889 621.382 83.3375 621.462 83.6301 621.462C83.9255 621.462 84.1755 621.381 84.3801 621.219C84.5846 621.054 84.7394 620.827 84.8446 620.537C84.9525 620.245 85.0065 619.908 85.0065 619.527C85.0065 619.149 84.9539 618.817 84.8488 618.53C84.7437 618.243 84.5889 618.019 84.3843 617.857C84.1798 617.695 83.9284 617.614 83.6301 617.614C83.3346 617.614 83.0846 617.692 82.8801 617.848C82.6784 618.005 82.5235 618.226 82.4156 618.513C82.3076 618.8 82.2537 619.138 82.2537 619.527ZM92.0154 614.073V617.388H90.7199V614.073H92.0154ZM93.3385 622.8V621.471L96.4451 618.594C96.7093 618.338 96.9309 618.108 97.1098 617.904C97.2917 617.699 97.4294 617.499 97.5232 617.303C97.6169 617.104 97.6638 616.89 97.6638 616.659C97.6638 616.404 97.6056 616.184 97.4891 615.999C97.3726 615.811 97.2135 615.668 97.0118 615.569C96.8101 615.466 96.5814 615.415 96.3257 615.415C96.0587 615.415 95.8257 615.469 95.6269 615.577C95.428 615.685 95.2746 615.84 95.1667 616.042C95.0587 616.243 95.0047 616.483 95.0047 616.762H93.2533C93.2533 616.191 93.3826 615.695 93.6411 615.274C93.8996 614.854 94.2618 614.529 94.7277 614.299C95.1936 614.069 95.7306 613.953 96.3385 613.953C96.9635 613.953 97.5076 614.064 97.9706 614.286C98.4365 614.505 98.7988 614.809 99.0573 615.198C99.3158 615.587 99.4451 616.033 99.4451 616.536C99.4451 616.865 99.3797 617.191 99.249 617.512C99.1212 617.833 98.8925 618.189 98.563 618.581C98.2334 618.971 97.7689 619.438 97.1695 619.983L95.8953 621.232V621.292H99.5601V622.8H93.3385ZM100.897 622.8V621.471L104.004 618.594C104.268 618.338 104.489 618.108 104.668 617.904C104.85 617.699 104.988 617.499 105.082 617.303C105.176 617.104 105.222 616.89 105.222 616.659C105.222 616.404 105.164 616.184 105.048 615.999C104.931 615.811 104.772 615.668 104.57 615.569C104.369 615.466 104.14 615.415 103.884 615.415C103.617 615.415 103.384 615.469 103.185 615.577C102.987 615.685 102.833 615.84 102.725 616.042C102.617 616.243 102.563 616.483 102.563 616.762H100.812C100.812 616.191 100.941 615.695 101.2 615.274C101.458 614.854 101.82 614.529 102.286 614.299C102.752 614.069 103.289 613.953 103.897 613.953C104.522 613.953 105.066 614.064 105.529 614.286C105.995 614.505 106.357 614.809 106.616 615.198C106.874 615.587 107.004 616.033 107.004 616.536C107.004 616.865 106.938 617.191 106.808 617.512C106.68 617.833 106.451 618.189 106.122 618.581C105.792 618.971 105.328 619.438 104.728 619.983L103.454 621.232V621.292H107.119V622.8H100.897Z" fill="#7D8082"/>
<path d="M141.452 622.919C140.81 622.919 140.263 622.745 139.811 622.395C139.359 622.043 139.014 621.533 138.776 620.865C138.537 620.195 138.418 619.385 138.418 618.436C138.418 617.493 138.537 616.688 138.776 616.02C139.017 615.35 139.364 614.838 139.815 614.486C140.27 614.131 140.815 613.953 141.452 613.953C142.088 613.953 142.632 614.131 143.084 614.486C143.538 614.838 143.885 615.35 144.124 616.02C144.365 616.688 144.486 617.493 144.486 618.436C144.486 619.385 144.366 620.195 144.128 620.865C143.889 621.533 143.544 622.043 143.092 622.395C142.641 622.745 142.094 622.919 141.452 622.919ZM141.452 621.982C142.088 621.982 142.582 621.675 142.935 621.061C143.287 620.448 143.463 619.573 143.463 618.436C143.463 617.681 143.382 617.037 143.22 616.506C143.061 615.975 142.831 615.57 142.53 615.292C142.232 615.013 141.872 614.874 141.452 614.874C140.821 614.874 140.328 615.185 139.973 615.807C139.618 616.426 139.44 617.303 139.44 618.436C139.44 619.192 139.52 619.834 139.679 620.363C139.838 620.891 140.067 621.293 140.365 621.569C140.666 621.844 141.028 621.982 141.452 621.982ZM146.143 622.8L150.047 615.078V615.01H145.547V614.073H151.138V615.061L147.251 622.8H146.143Z" fill="#7D8082"/>
<path d="M171.46 614.073V622.8H170.403V615.181H170.352L168.221 616.596V615.522L170.403 614.073H171.46ZM176.816 622.919C176.174 622.919 175.627 622.745 175.176 622.395C174.724 622.043 174.379 621.533 174.14 620.865C173.901 620.195 173.782 619.385 173.782 618.436C173.782 617.493 173.901 616.688 174.14 616.02C174.381 615.35 174.728 614.838 175.18 614.486C175.634 614.131 176.18 613.953 176.816 613.953C177.453 613.953 177.997 614.131 178.448 614.486C178.903 614.838 179.249 615.35 179.488 616.02C179.73 616.688 179.85 617.493 179.85 618.436C179.85 619.385 179.731 620.195 179.492 620.865C179.254 621.533 178.908 622.043 178.457 622.395C178.005 622.745 177.458 622.919 176.816 622.919ZM176.816 621.982C177.453 621.982 177.947 621.675 178.299 621.061C178.651 620.448 178.828 619.573 178.828 618.436C178.828 617.681 178.747 617.037 178.585 616.506C178.426 615.975 178.195 615.57 177.894 615.292C177.596 615.013 177.237 614.874 176.816 614.874C176.185 614.874 175.693 615.185 175.337 615.807C174.982 616.426 174.805 617.303 174.805 618.436C174.805 619.192 174.884 619.834 175.043 620.363C175.203 620.891 175.431 621.293 175.73 621.569C176.031 621.844 176.393 621.982 176.816 621.982Z" fill="#7D8082"/>
<path d="M200.654 614.073V622.8H199.597V615.181H199.546L197.415 616.596V615.522L199.597 614.073H200.654ZM206.113 622.919C205.55 622.919 205.049 622.823 204.609 622.63C204.171 622.436 203.823 622.168 203.564 621.824C203.309 621.478 203.17 621.076 203.147 620.618H204.221C204.243 620.899 204.34 621.142 204.511 621.347C204.681 621.549 204.904 621.705 205.18 621.816C205.455 621.926 205.761 621.982 206.096 621.982C206.471 621.982 206.803 621.917 207.093 621.786C207.383 621.655 207.61 621.473 207.775 621.24C207.939 621.007 208.022 620.738 208.022 620.431C208.022 620.11 207.942 619.827 207.783 619.583C207.624 619.336 207.391 619.142 207.084 619.003C206.778 618.864 206.403 618.794 205.959 618.794H205.261V617.857H205.959C206.306 617.857 206.61 617.794 206.871 617.669C207.136 617.544 207.341 617.368 207.489 617.141C207.64 616.914 207.715 616.647 207.715 616.34C207.715 616.044 207.65 615.787 207.519 615.569C207.388 615.35 207.204 615.179 206.965 615.057C206.729 614.935 206.451 614.874 206.13 614.874C205.829 614.874 205.545 614.929 205.278 615.04C205.013 615.148 204.797 615.306 204.63 615.513C204.462 615.718 204.371 615.965 204.357 616.255H203.334C203.351 615.797 203.489 615.397 203.748 615.053C204.006 614.706 204.344 614.436 204.762 614.243C205.182 614.05 205.644 613.953 206.147 613.953C206.687 613.953 207.15 614.063 207.536 614.282C207.922 614.497 208.219 614.783 208.427 615.138C208.634 615.493 208.738 615.877 208.738 616.289C208.738 616.78 208.609 617.199 208.35 617.546C208.094 617.892 207.746 618.132 207.306 618.266V618.334C207.857 618.425 208.288 618.659 208.597 619.037C208.907 619.412 209.062 619.877 209.062 620.431C209.062 620.905 208.932 621.331 208.674 621.709C208.418 622.084 208.069 622.38 207.626 622.596C207.182 622.811 206.678 622.919 206.113 622.919Z" fill="#7D8082"/>
<path d="M229.995 614.073V622.8H228.938V615.181H228.887L226.756 616.596V615.522L228.938 614.073H229.995ZM235.403 622.919C235.045 622.914 234.687 622.846 234.329 622.715C233.971 622.584 233.644 622.364 233.349 622.054C233.053 621.742 232.816 621.32 232.637 620.789C232.458 620.255 232.369 619.584 232.369 618.777C232.369 618.005 232.441 617.32 232.586 616.723C232.731 616.124 232.941 615.62 233.217 615.211C233.492 614.799 233.825 614.486 234.214 614.273C234.606 614.06 235.048 613.953 235.539 613.953C236.028 613.953 236.462 614.051 236.843 614.247C237.226 614.441 237.539 614.711 237.78 615.057C238.022 615.404 238.178 615.803 238.249 616.255H237.209C237.113 615.863 236.925 615.537 236.647 615.279C236.369 615.02 235.999 614.891 235.539 614.891C234.863 614.891 234.33 615.185 233.941 615.773C233.555 616.361 233.36 617.186 233.357 618.249H233.425C233.584 618.007 233.773 617.801 233.992 617.631C234.214 617.458 234.458 617.324 234.725 617.23C234.992 617.137 235.275 617.09 235.573 617.09C236.073 617.09 236.53 617.215 236.945 617.465C237.36 617.712 237.692 618.054 237.942 618.492C238.192 618.926 238.317 619.425 238.317 619.988C238.317 620.527 238.197 621.022 237.955 621.471C237.714 621.917 237.374 622.272 236.937 622.536C236.502 622.797 235.991 622.925 235.403 622.919ZM235.403 621.982C235.761 621.982 236.082 621.892 236.366 621.713C236.653 621.534 236.878 621.294 237.043 620.993C237.211 620.692 237.295 620.357 237.295 619.988C237.295 619.627 237.214 619.299 237.052 619.003C236.893 618.705 236.673 618.468 236.391 618.292C236.113 618.115 235.795 618.027 235.437 618.027C235.167 618.027 234.915 618.081 234.682 618.189C234.45 618.294 234.245 618.439 234.069 618.624C233.896 618.809 233.759 619.02 233.66 619.259C233.56 619.495 233.511 619.743 233.511 620.005C233.511 620.351 233.592 620.675 233.753 620.976C233.918 621.277 234.143 621.52 234.427 621.705C234.714 621.89 235.039 621.982 235.403 621.982Z" fill="#7D8082"/>
<path d="M259.26 614.073V622.8H258.203V615.181H258.152L256.021 616.596V615.522L258.203 614.073H259.26ZM264.548 613.953C264.906 613.956 265.264 614.024 265.622 614.158C265.98 614.292 266.307 614.513 266.602 614.823C266.898 615.13 267.135 615.549 267.314 616.08C267.493 616.611 267.582 617.277 267.582 618.078C267.582 618.854 267.508 619.543 267.361 620.145C267.216 620.745 267.005 621.25 266.73 621.662C266.457 622.074 266.125 622.387 265.733 622.6C265.344 622.813 264.903 622.919 264.412 622.919C263.923 622.919 263.487 622.823 263.104 622.63C262.723 622.434 262.41 622.162 262.166 621.816C261.925 621.466 261.77 621.061 261.702 620.601H262.741C262.835 621.002 263.021 621.333 263.3 621.594C263.581 621.853 263.952 621.982 264.412 621.982C265.085 621.982 265.616 621.688 266.005 621.1C266.398 620.512 266.594 619.681 266.594 618.607H266.525C266.366 618.846 266.177 619.051 265.959 619.225C265.74 619.398 265.497 619.532 265.23 619.625C264.963 619.719 264.679 619.766 264.378 619.766C263.878 619.766 263.419 619.642 263.001 619.395C262.586 619.145 262.254 618.803 262.004 618.368C261.757 617.931 261.633 617.431 261.633 616.868C261.633 616.334 261.753 615.846 261.991 615.402C262.233 614.956 262.571 614.601 263.005 614.337C263.443 614.073 263.957 613.945 264.548 613.953ZM264.548 614.891C264.19 614.891 263.868 614.98 263.581 615.159C263.297 615.336 263.071 615.574 262.903 615.875C262.738 616.174 262.656 616.505 262.656 616.868C262.656 617.232 262.736 617.563 262.895 617.861C263.057 618.157 263.277 618.392 263.555 618.569C263.836 618.742 264.156 618.828 264.514 618.828C264.784 618.828 265.035 618.776 265.268 618.671C265.501 618.563 265.704 618.417 265.878 618.232C266.054 618.044 266.192 617.833 266.291 617.597C266.39 617.358 266.44 617.11 266.44 616.851C266.44 616.51 266.358 616.191 266.193 615.892C266.031 615.594 265.807 615.353 265.52 615.168C265.236 614.983 264.912 614.891 264.548 614.891Z" fill="#7D8082"/>
<path d="M284.724 622.8V622.033L287.605 618.88C287.943 618.51 288.221 618.189 288.44 617.917C288.659 617.641 288.821 617.382 288.926 617.141C289.034 616.897 289.088 616.641 289.088 616.374C289.088 616.067 289.014 615.801 288.866 615.577C288.721 615.353 288.522 615.179 288.269 615.057C288.017 614.935 287.733 614.874 287.417 614.874C287.082 614.874 286.789 614.944 286.539 615.083C286.292 615.219 286.1 615.411 285.964 615.658C285.831 615.905 285.764 616.195 285.764 616.527H284.758C284.758 616.016 284.876 615.567 285.112 615.181C285.348 614.794 285.669 614.493 286.075 614.277C286.484 614.061 286.943 613.953 287.451 613.953C287.963 613.953 288.416 614.061 288.811 614.277C289.206 614.493 289.515 614.784 289.74 615.151C289.964 615.517 290.076 615.925 290.076 616.374C290.076 616.695 290.018 617.009 289.902 617.316C289.788 617.62 289.589 617.959 289.305 618.334C289.024 618.706 288.633 619.161 288.133 619.698L286.173 621.794V621.863H290.23V622.8H284.724ZM291.99 622.8V622.033L294.87 618.88C295.208 618.51 295.487 618.189 295.706 617.917C295.924 617.641 296.086 617.382 296.191 617.141C296.299 616.897 296.353 616.641 296.353 616.374C296.353 616.067 296.279 615.801 296.132 615.577C295.987 615.353 295.788 615.179 295.535 615.057C295.282 614.935 294.998 614.874 294.683 614.874C294.348 614.874 294.055 614.944 293.805 615.083C293.558 615.219 293.366 615.411 293.23 615.658C293.096 615.905 293.029 616.195 293.029 616.527H292.024C292.024 616.016 292.142 615.567 292.377 615.181C292.613 614.794 292.934 614.493 293.34 614.277C293.75 614.061 294.208 613.953 294.717 613.953C295.228 613.953 295.681 614.061 296.076 614.277C296.471 614.493 296.781 614.784 297.005 615.151C297.23 615.517 297.342 615.925 297.342 616.374C297.342 616.695 297.284 617.009 297.167 617.316C297.054 617.62 296.855 617.959 296.571 618.334C296.289 618.706 295.899 619.161 295.399 619.698L293.438 621.794V621.863H297.495V622.8H291.99Z" fill="#7D8082"/>
<path d="M313.971 622.8V622.033L316.852 618.88C317.19 618.51 317.468 618.189 317.687 617.917C317.906 617.641 318.068 617.382 318.173 617.141C318.281 616.897 318.335 616.641 318.335 616.374C318.335 616.067 318.261 615.801 318.113 615.577C317.968 615.353 317.77 615.179 317.517 615.057C317.264 614.935 316.98 614.874 316.664 614.874C316.329 614.874 316.037 614.944 315.787 615.083C315.539 615.219 315.348 615.411 315.211 615.658C315.078 615.905 315.011 616.195 315.011 616.527H314.005C314.005 616.016 314.123 615.567 314.359 615.181C314.595 614.794 314.916 614.493 315.322 614.277C315.731 614.061 316.19 613.953 316.699 613.953C317.21 613.953 317.663 614.061 318.058 614.277C318.453 614.493 318.762 614.784 318.987 615.151C319.211 615.517 319.324 615.925 319.324 616.374C319.324 616.695 319.265 617.009 319.149 617.316C319.035 617.62 318.836 617.959 318.552 618.334C318.271 618.706 317.88 619.161 317.38 619.698L315.42 621.794V621.863H319.477V622.8H313.971ZM323.964 622.919C323.464 622.919 323.014 622.82 322.613 622.621C322.213 622.422 321.892 622.149 321.65 621.803C321.409 621.456 321.277 621.061 321.254 620.618H322.277C322.316 621.013 322.495 621.34 322.814 621.598C323.135 621.854 323.518 621.982 323.964 621.982C324.322 621.982 324.64 621.898 324.919 621.73C325.2 621.563 325.42 621.333 325.579 621.04C325.741 620.745 325.822 620.411 325.822 620.039C325.822 619.658 325.738 619.319 325.571 619.02C325.406 618.719 325.179 618.482 324.889 618.309C324.599 618.135 324.268 618.047 323.896 618.044C323.629 618.042 323.355 618.083 323.074 618.168C322.792 618.25 322.561 618.357 322.379 618.488L321.39 618.368L321.919 614.073H326.453V615.01H322.805L322.498 617.584H322.549C322.728 617.442 322.953 617.324 323.223 617.23C323.493 617.137 323.774 617.09 324.066 617.09C324.6 617.09 325.076 617.218 325.494 617.473C325.914 617.726 326.244 618.073 326.483 618.513C326.724 618.953 326.845 619.456 326.845 620.022C326.845 620.578 326.72 621.076 326.47 621.513C326.223 621.948 325.882 622.292 325.447 622.544C325.012 622.794 324.518 622.919 323.964 622.919Z" fill="#7D8082"/>
<path d="M343.189 622.8V622.033L346.07 618.88C346.408 618.51 346.686 618.189 346.905 617.917C347.124 617.641 347.286 617.382 347.391 617.141C347.499 616.897 347.553 616.641 347.553 616.374C347.553 616.067 347.479 615.801 347.331 615.577C347.186 615.353 346.987 615.179 346.734 615.057C346.482 614.935 346.198 614.874 345.882 614.874C345.547 614.874 345.254 614.944 345.004 615.083C344.757 615.219 344.565 615.411 344.429 615.658C344.296 615.905 344.229 616.195 344.229 616.527H343.223C343.223 616.016 343.341 615.567 343.577 615.181C343.813 614.794 344.134 614.493 344.54 614.277C344.949 614.061 345.408 613.953 345.916 613.953C346.428 613.953 346.881 614.061 347.276 614.277C347.671 614.493 347.98 614.784 348.205 615.151C348.429 615.517 348.541 615.925 348.541 616.374C348.541 616.695 348.483 617.009 348.367 617.316C348.253 617.62 348.054 617.959 347.77 618.334C347.489 618.706 347.098 619.161 346.598 619.698L344.638 621.794V621.863H348.695V622.8H343.189ZM353.25 622.919C352.665 622.919 352.148 622.816 351.699 622.608C351.253 622.398 350.905 622.11 350.655 621.743C350.405 621.374 350.281 620.953 350.284 620.482C350.281 620.113 350.354 619.772 350.502 619.459C350.649 619.144 350.851 618.881 351.107 618.671C351.365 618.458 351.654 618.323 351.972 618.266V618.215C351.554 618.107 351.222 617.872 350.975 617.512C350.727 617.148 350.605 616.735 350.608 616.272C350.605 615.828 350.717 615.432 350.945 615.083C351.172 614.733 351.484 614.458 351.882 614.256C352.283 614.054 352.739 613.953 353.25 613.953C353.756 613.953 354.207 614.054 354.605 614.256C355.003 614.458 355.315 614.733 355.543 615.083C355.773 615.432 355.889 615.828 355.892 616.272C355.889 616.735 355.763 617.148 355.513 617.512C355.266 617.872 354.938 618.107 354.529 618.215V618.266C354.844 618.323 355.128 618.458 355.381 618.671C355.634 618.881 355.835 619.144 355.986 619.459C356.136 619.772 356.213 620.113 356.216 620.482C356.213 620.953 356.085 621.374 355.832 621.743C355.582 622.11 355.234 622.398 354.788 622.608C354.345 622.816 353.832 622.919 353.25 622.919ZM353.25 621.982C353.645 621.982 353.986 621.918 354.273 621.79C354.56 621.662 354.781 621.482 354.938 621.249C355.094 621.016 355.173 620.743 355.176 620.431C355.173 620.101 355.088 619.81 354.921 619.557C354.753 619.304 354.524 619.105 354.234 618.961C353.948 618.816 353.619 618.743 353.25 618.743C352.878 618.743 352.546 618.816 352.253 618.961C351.963 619.105 351.734 619.304 351.567 619.557C351.402 619.81 351.321 620.101 351.324 620.431C351.321 620.743 351.396 621.016 351.55 621.249C351.706 621.482 351.929 621.662 352.219 621.79C352.509 621.918 352.852 621.982 353.25 621.982ZM353.25 617.84C353.563 617.84 353.84 617.777 354.081 617.652C354.325 617.527 354.517 617.353 354.656 617.128C354.796 616.904 354.867 616.641 354.869 616.34C354.867 616.044 354.797 615.787 354.661 615.569C354.524 615.347 354.335 615.176 354.094 615.057C353.852 614.935 353.571 614.874 353.25 614.874C352.923 614.874 352.638 614.935 352.394 615.057C352.149 615.176 351.96 615.347 351.827 615.569C351.693 615.787 351.628 616.044 351.631 616.34C351.628 616.641 351.695 616.904 351.831 617.128C351.97 617.353 352.162 617.527 352.406 617.652C352.651 617.777 352.932 617.84 353.25 617.84Z" fill="#7D8082"/>
</g>
</g>
<g filter="url(#filter2_d_2261_805)">
<rect x="189" y="223" width="400" height="275" rx="8" fill="white"/>
<g clip-path="url(#clip2_2261_805)">
<path d="M226.346 259.5V267.5H225.377V260.516H225.33L223.377 261.812V260.828L225.377 259.5H226.346ZM231.256 267.609C230.667 267.609 230.166 267.449 229.752 267.129C229.338 266.806 229.021 266.339 228.803 265.727C228.584 265.112 228.475 264.37 228.475 263.5C228.475 262.635 228.584 261.897 228.803 261.285C229.024 260.671 229.342 260.202 229.756 259.879C230.172 259.553 230.672 259.391 231.256 259.391C231.839 259.391 232.338 259.553 232.752 259.879C233.169 260.202 233.486 260.671 233.705 261.285C233.926 261.897 234.037 262.635 234.037 263.5C234.037 264.37 233.928 265.112 233.709 265.727C233.49 266.339 233.174 266.806 232.76 267.129C232.346 267.449 231.844 267.609 231.256 267.609ZM231.256 266.75C231.839 266.75 232.292 266.469 232.615 265.906C232.938 265.344 233.1 264.542 233.1 263.5C233.1 262.807 233.025 262.217 232.877 261.73C232.731 261.243 232.52 260.872 232.244 260.617C231.971 260.362 231.641 260.234 231.256 260.234C230.678 260.234 230.226 260.52 229.9 261.09C229.575 261.658 229.412 262.461 229.412 263.5C229.412 264.193 229.485 264.781 229.631 265.266C229.777 265.75 229.986 266.118 230.26 266.371C230.536 266.624 230.868 266.75 231.256 266.75Z" fill="#7D8082"/>
<path d="M231.306 304.769C230.769 304.769 230.295 304.674 229.884 304.484C229.475 304.292 229.156 304.027 228.927 303.691C228.698 303.353 228.584 302.967 228.587 302.535C228.584 302.196 228.651 301.884 228.786 301.598C228.922 301.308 229.106 301.068 229.341 300.875C229.578 300.68 229.842 300.556 230.134 300.504V300.457C229.751 300.358 229.446 300.143 229.22 299.812C228.993 299.479 228.881 299.1 228.884 298.676C228.881 298.269 228.984 297.906 229.192 297.586C229.401 297.266 229.687 297.013 230.052 296.828C230.419 296.643 230.837 296.551 231.306 296.551C231.769 296.551 232.183 296.643 232.548 296.828C232.912 297.013 233.199 297.266 233.407 297.586C233.618 297.906 233.725 298.269 233.728 298.676C233.725 299.1 233.609 299.479 233.38 299.812C233.153 300.143 232.853 300.358 232.478 300.457V300.504C232.767 300.556 233.027 300.68 233.259 300.875C233.491 301.068 233.675 301.308 233.813 301.598C233.951 301.884 234.022 302.196 234.024 302.535C234.022 302.967 233.905 303.353 233.673 303.691C233.444 304.027 233.125 304.292 232.716 304.484C232.31 304.674 231.839 304.769 231.306 304.769ZM231.306 303.91C231.668 303.91 231.98 303.851 232.243 303.734C232.506 303.617 232.709 303.452 232.853 303.238C232.996 303.025 233.069 302.775 233.071 302.488C233.069 302.186 232.991 301.919 232.837 301.687C232.683 301.456 232.474 301.273 232.208 301.141C231.945 301.008 231.644 300.941 231.306 300.941C230.964 300.941 230.66 301.008 230.392 301.141C230.126 301.273 229.916 301.456 229.763 301.687C229.612 301.919 229.537 302.186 229.54 302.488C229.537 302.775 229.606 303.025 229.747 303.238C229.89 303.452 230.095 303.617 230.36 303.734C230.626 303.851 230.941 303.91 231.306 303.91ZM231.306 300.113C231.592 300.113 231.846 300.056 232.067 299.941C232.291 299.827 232.467 299.667 232.595 299.461C232.722 299.255 232.787 299.014 232.79 298.738C232.787 298.467 232.724 298.232 232.599 298.031C232.474 297.828 232.3 297.672 232.079 297.562C231.858 297.45 231.6 297.394 231.306 297.394C231.006 297.394 230.744 297.45 230.52 297.562C230.297 297.672 230.123 297.828 230.001 298.031C229.879 298.232 229.819 298.467 229.821 298.738C229.819 299.014 229.88 299.255 230.005 299.461C230.132 299.667 230.308 299.827 230.532 299.941C230.756 300.056 231.014 300.113 231.306 300.113Z" fill="#7D8082"/>
<path d="M231.313 341.929C230.985 341.924 230.657 341.861 230.329 341.742C230.001 341.622 229.701 341.42 229.431 341.136C229.16 340.85 228.942 340.463 228.778 339.976C228.614 339.486 228.532 338.872 228.532 338.132C228.532 337.424 228.599 336.796 228.731 336.25C228.864 335.7 229.057 335.238 229.31 334.863C229.562 334.485 229.867 334.199 230.224 334.003C230.583 333.808 230.988 333.71 231.438 333.71C231.886 333.71 232.285 333.8 232.634 333.98C232.985 334.157 233.272 334.404 233.493 334.722C233.714 335.04 233.858 335.406 233.923 335.82H232.97C232.881 335.46 232.709 335.162 232.454 334.925C232.199 334.688 231.86 334.57 231.438 334.57C230.819 334.57 230.33 334.839 229.974 335.378C229.619 335.917 229.441 336.674 229.438 337.648H229.501C229.647 337.427 229.82 337.238 230.02 337.082C230.224 336.923 230.448 336.8 230.692 336.714C230.937 336.628 231.196 336.585 231.47 336.585C231.928 336.585 232.347 336.7 232.728 336.929C233.108 337.156 233.412 337.47 233.642 337.871C233.871 338.269 233.985 338.726 233.985 339.242C233.985 339.736 233.875 340.19 233.653 340.601C233.432 341.01 233.121 341.335 232.72 341.578C232.321 341.817 231.853 341.934 231.313 341.929ZM231.313 341.07C231.642 341.07 231.936 340.988 232.196 340.824C232.459 340.66 232.666 340.44 232.817 340.164C232.971 339.888 233.048 339.58 233.048 339.242C233.048 338.911 232.974 338.61 232.825 338.339C232.679 338.066 232.478 337.848 232.22 337.687C231.964 337.526 231.673 337.445 231.345 337.445C231.097 337.445 230.867 337.494 230.653 337.593C230.44 337.69 230.252 337.822 230.091 337.992C229.932 338.161 229.807 338.355 229.716 338.574C229.625 338.79 229.579 339.018 229.579 339.257C229.579 339.575 229.653 339.872 229.802 340.148C229.953 340.424 230.158 340.647 230.419 340.816C230.682 340.985 230.98 341.07 231.313 341.07Z" fill="#7D8082"/>
<path d="M228.276 377.339V376.542L231.792 370.98H232.37V372.214H231.979L229.323 376.417V376.48H234.058V377.339H228.276ZM232.042 378.98V377.097V376.726V370.98H232.964V378.98H232.042Z" fill="#7D8082"/>
<path d="M228.861 416.14V415.437L231.502 412.546C231.812 412.208 232.067 411.914 232.268 411.664C232.468 411.411 232.617 411.174 232.713 410.953C232.812 410.729 232.861 410.494 232.861 410.25C232.861 409.968 232.794 409.725 232.658 409.519C232.525 409.313 232.343 409.154 232.111 409.042C231.88 408.931 231.619 408.875 231.33 408.875C231.023 408.875 230.755 408.938 230.525 409.066C230.299 409.191 230.123 409.367 229.998 409.593C229.876 409.82 229.814 410.085 229.814 410.39H228.893C228.893 409.921 229.001 409.51 229.217 409.156C229.433 408.802 229.727 408.526 230.1 408.328C230.475 408.13 230.895 408.031 231.361 408.031C231.83 408.031 232.245 408.13 232.607 408.328C232.969 408.526 233.253 408.792 233.459 409.128C233.665 409.464 233.768 409.838 233.768 410.25C233.768 410.544 233.714 410.832 233.607 411.113C233.503 411.391 233.321 411.703 233.061 412.046C232.803 412.388 232.445 412.804 231.986 413.296L230.189 415.218V415.281H233.908V416.14H228.861Z" fill="#7D8082"/>
<path d="M231.256 453.409C230.667 453.409 230.166 453.249 229.752 452.929C229.338 452.606 229.021 452.139 228.803 451.527C228.584 450.912 228.475 450.17 228.475 449.3C228.475 448.435 228.584 447.697 228.803 447.085C229.024 446.471 229.342 446.002 229.756 445.679C230.172 445.353 230.672 445.191 231.256 445.191C231.839 445.191 232.338 445.353 232.752 445.679C233.169 446.002 233.486 446.471 233.705 447.085C233.926 447.697 234.037 448.435 234.037 449.3C234.037 450.17 233.928 450.912 233.709 451.527C233.49 452.139 233.174 452.606 232.76 452.929C232.346 453.249 231.844 453.409 231.256 453.409ZM231.256 452.55C231.839 452.55 232.292 452.269 232.615 451.706C232.938 451.144 233.1 450.342 233.1 449.3C233.1 448.607 233.025 448.017 232.877 447.531C232.731 447.044 232.52 446.672 232.244 446.417C231.971 446.162 231.641 446.034 231.256 446.034C230.678 446.034 230.226 446.32 229.9 446.89C229.575 447.458 229.412 448.261 229.412 449.3C229.412 449.993 229.485 450.581 229.631 451.066C229.777 451.55 229.986 451.919 230.26 452.171C230.536 452.424 230.868 452.55 231.256 452.55Z" fill="#7D8082"/>
<path d="M276.158 452.8V458.8" stroke="#E0E0E0"/>
<path d="M316.343 452.8V458.8" stroke="#E0E0E0"/>
<path d="M356.528 452.8V458.8" stroke="#E0E0E0"/>
<path d="M396.713 452.8V458.8" stroke="#E0E0E0"/>
<path d="M436.898 452.8V458.8" stroke="#E0E0E0"/>
<path d="M477.084 452.8V458.8" stroke="#E0E0E0"/>
<path d="M517.269 452.8V458.8" stroke="#E0E0E0"/>
<path d="M248.227 303.16H545.2" stroke="#7D8082"/>
<path d="M248.227 340.32H545.2" stroke="#7D8082"/>
<path d="M248.227 377.48H545.2" stroke="#7D8082"/>
<path d="M248.227 414.64H545.2" stroke="#7D8082"/>
<path d="M248.227 266H545.2" stroke="#7D8082"/>
<path d="M248.227 451.8H545.2" stroke="#7D8082"/>
<path d="M248.227 452.8H545.2" stroke="#E0E0E0"/>
<mask id="mask30_2261_805" style="mask-type:luminance" maskUnits="userSpaceOnUse" x="246" y="264" width="302" height="190">
<path d="M547.133 264H246.293V453.8H547.133V264Z" fill="white"/>
</mask>
<g mask="url(#mask30_2261_805)">
<path d="M262.093 451.801V363.233H290.223V451.801H262.093Z" fill="#F55B53" fill-opacity="0.85"/>
</g>
<mask id="mask31_2261_805" style="mask-type:luminance" maskUnits="userSpaceOnUse" x="246" y="264" width="302" height="190">
<path d="M547.133 264H246.293V453.8H547.133V264Z" fill="white"/>
</mask>
<g mask="url(#mask31_2261_805)">
<path d="M302.278 451.801V360.035H330.408V451.801H302.278Z" fill="#F55B53" fill-opacity="0.85"/>
</g>
<mask id="mask32_2261_805" style="mask-type:luminance" maskUnits="userSpaceOnUse" x="246" y="264" width="302" height="190">
<path d="M547.133 264H246.293V453.8H547.133V264Z" fill="white"/>
</mask>
<g mask="url(#mask32_2261_805)">
<path d="M342.463 451.801V361.384H370.593V451.801H342.463Z" fill="#F55B53" fill-opacity="0.85"/>
</g>
<mask id="mask33_2261_805" style="mask-type:luminance" maskUnits="userSpaceOnUse" x="246" y="264" width="302" height="190">
<path d="M547.133 264H246.293V453.8H547.133V264Z" fill="white"/>
</mask>
<g mask="url(#mask33_2261_805)">
<path d="M382.648 451.801V369.651H410.778V451.801H382.648Z" fill="#F55B53" fill-opacity="0.85"/>
</g>
<mask id="mask34_2261_805" style="mask-type:luminance" maskUnits="userSpaceOnUse" x="246" y="264" width="302" height="190">
<path d="M547.133 264H246.293V453.8H547.133V264Z" fill="white"/>
</mask>
<g mask="url(#mask34_2261_805)">
<path d="M422.834 451.801V349.896H450.963V451.801H422.834Z" fill="#F55B53" fill-opacity="0.85"/>
</g>
<mask id="mask35_2261_805" style="mask-type:luminance" maskUnits="userSpaceOnUse" x="246" y="264" width="302" height="190">
<path d="M547.133 264H246.293V453.8H547.133V264Z" fill="white"/>
</mask>
<g mask="url(#mask35_2261_805)">
<path d="M463.019 451.801V335.676H491.148V451.801H463.019Z" fill="#F55B53" fill-opacity="0.85"/>
</g>
<path d="M268.297 468.073H269.558L272.524 475.317H272.626L275.592 468.073H276.854V476.8H275.865V470.169H275.78L273.052 476.8H272.098L269.371 470.169H269.285V476.8H268.297V468.073ZM281.495 476.936C280.904 476.936 280.386 476.796 279.94 476.515C279.497 476.233 279.15 475.84 278.9 475.334C278.653 474.828 278.529 474.238 278.529 473.561C278.529 472.88 278.653 472.284 278.9 471.776C279.15 471.267 279.497 470.872 279.94 470.591C280.386 470.31 280.904 470.169 281.495 470.169C282.086 470.169 282.603 470.31 283.046 470.591C283.492 470.872 283.839 471.267 284.086 471.776C284.336 472.284 284.461 472.88 284.461 473.561C284.461 474.238 284.336 474.828 284.086 475.334C283.839 475.84 283.492 476.233 283.046 476.515C282.603 476.796 282.086 476.936 281.495 476.936ZM281.495 476.033C281.944 476.033 282.313 475.918 282.603 475.688C282.893 475.458 283.107 475.155 283.247 474.78C283.386 474.405 283.455 473.999 283.455 473.561C283.455 473.124 283.386 472.716 283.247 472.338C283.107 471.961 282.893 471.655 282.603 471.422C282.313 471.189 281.944 471.073 281.495 471.073C281.046 471.073 280.677 471.189 280.387 471.422C280.097 471.655 279.883 471.961 279.744 472.338C279.605 472.716 279.535 473.124 279.535 473.561C279.535 473.999 279.605 474.405 279.744 474.78C279.883 475.155 280.097 475.458 280.387 475.688C280.677 475.918 281.046 476.033 281.495 476.033Z" fill="#7D8082"/>
<path d="M310.032 469.01V468.073H316.577V469.01H313.833V476.8H312.776V469.01H310.032ZM321.306 474.124V470.255H322.312V476.8H321.306V475.692H321.238C321.085 476.024 320.846 476.307 320.522 476.54C320.198 476.77 319.789 476.885 319.295 476.885C318.886 476.885 318.522 476.796 318.204 476.617C317.886 476.435 317.636 476.162 317.454 475.799C317.272 475.432 317.181 474.971 317.181 474.414V470.255H318.187V474.346C318.187 474.823 318.321 475.203 318.588 475.488C318.858 475.772 319.201 475.914 319.619 475.914C319.869 475.914 320.123 475.85 320.382 475.722C320.643 475.594 320.862 475.398 321.038 475.134C321.217 474.87 321.306 474.533 321.306 474.124Z" fill="#7D8082"/>
<path d="M350.287 476.8L347.901 468.073H348.975L350.799 475.181H350.884L352.742 468.073H353.935L355.793 475.181H355.878L357.702 468.073H358.776L356.39 476.8H355.299L353.373 469.846H353.304L351.378 476.8H350.287ZM362.091 476.936C361.461 476.936 360.917 476.797 360.459 476.519C360.005 476.238 359.654 475.846 359.407 475.343C359.162 474.837 359.04 474.249 359.04 473.578C359.04 472.908 359.162 472.317 359.407 471.806C359.654 471.292 359.998 470.891 360.438 470.604C360.881 470.314 361.398 470.169 361.989 470.169C362.33 470.169 362.667 470.226 362.999 470.34C363.331 470.453 363.634 470.638 363.907 470.894C364.179 471.147 364.397 471.482 364.559 471.899C364.721 472.317 364.802 472.831 364.802 473.442V473.868H359.756V472.999H363.779C363.779 472.63 363.705 472.3 363.557 472.01C363.412 471.721 363.205 471.492 362.935 471.324C362.668 471.157 362.353 471.073 361.989 471.073C361.589 471.073 361.242 471.172 360.949 471.371C360.66 471.567 360.437 471.823 360.28 472.138C360.124 472.453 360.046 472.792 360.046 473.152V473.732C360.046 474.226 360.131 474.645 360.302 474.989C360.475 475.33 360.715 475.59 361.022 475.769C361.329 475.945 361.685 476.033 362.091 476.033C362.356 476.033 362.594 475.996 362.807 475.922C363.023 475.846 363.209 475.732 363.366 475.581C363.522 475.428 363.642 475.238 363.728 475.01L364.699 475.283C364.597 475.613 364.425 475.902 364.184 476.152C363.942 476.399 363.644 476.593 363.289 476.732C362.934 476.868 362.535 476.936 362.091 476.936Z" fill="#7D8082"/>
<path d="M389.898 469.01V468.073H396.444V469.01H393.699V476.8H392.643V469.01H389.898ZM398.944 472.863V476.8H397.938V468.073H398.944V471.277H399.029C399.183 470.939 399.413 470.671 399.72 470.472C400.029 470.27 400.441 470.169 400.955 470.169C401.402 470.169 401.792 470.259 402.127 470.438C402.463 470.614 402.723 470.885 402.907 471.252C403.095 471.615 403.188 472.078 403.188 472.641V476.8H402.183V472.709C402.183 472.189 402.048 471.787 401.778 471.503C401.511 471.216 401.14 471.073 400.666 471.073C400.336 471.073 400.041 471.142 399.779 471.282C399.521 471.421 399.316 471.624 399.166 471.891C399.018 472.158 398.944 472.482 398.944 472.863Z" fill="#7D8082"/>
<path d="M432.237 476.8V468.073H437.469V469.01H433.293V471.959H437.077V472.897H433.293V476.8H432.237ZM439.073 476.8V470.255H440.044V471.243H440.113C440.232 470.919 440.448 470.657 440.76 470.455C441.073 470.253 441.425 470.152 441.817 470.152C441.891 470.152 441.983 470.154 442.094 470.157C442.205 470.159 442.289 470.164 442.346 470.169V471.192C442.311 471.184 442.233 471.171 442.111 471.154C441.992 471.134 441.865 471.124 441.732 471.124C441.414 471.124 441.13 471.191 440.88 471.324C440.632 471.455 440.436 471.637 440.292 471.87C440.15 472.1 440.078 472.363 440.078 472.658V476.8H439.073Z" fill="#7D8082"/>
<path d="M475.706 470.255C475.655 469.823 475.448 469.488 475.084 469.249C474.72 469.01 474.274 468.891 473.746 468.891C473.36 468.891 473.021 468.953 472.732 469.078C472.445 469.203 472.22 469.375 472.058 469.594C471.899 469.813 471.82 470.061 471.82 470.34C471.82 470.573 471.875 470.773 471.986 470.941C472.1 471.105 472.244 471.243 472.421 471.354C472.597 471.462 472.781 471.551 472.975 471.622C473.168 471.691 473.345 471.746 473.507 471.789L474.394 472.027C474.621 472.087 474.874 472.169 475.152 472.274C475.433 472.38 475.702 472.523 475.958 472.705C476.216 472.884 476.429 473.114 476.597 473.395C476.764 473.676 476.848 474.022 476.848 474.431C476.848 474.902 476.725 475.328 476.477 475.709C476.233 476.09 475.875 476.392 475.404 476.617C474.935 476.841 474.365 476.953 473.695 476.953C473.07 476.953 472.529 476.853 472.071 476.651C471.617 476.449 471.259 476.168 470.997 475.807C470.739 475.446 470.592 475.027 470.558 474.55H471.649C471.678 474.88 471.788 475.152 471.982 475.368C472.178 475.581 472.425 475.74 472.723 475.846C473.024 475.948 473.348 475.999 473.695 475.999C474.098 475.999 474.46 475.934 474.781 475.803C475.102 475.669 475.357 475.485 475.544 475.249C475.732 475.01 475.825 474.732 475.825 474.414C475.825 474.124 475.744 473.888 475.583 473.706C475.421 473.524 475.208 473.377 474.943 473.263C474.679 473.149 474.394 473.05 474.087 472.965L473.013 472.658C472.331 472.462 471.791 472.182 471.394 471.819C470.996 471.455 470.797 470.979 470.797 470.391C470.797 469.902 470.929 469.476 471.193 469.113C471.46 468.746 471.818 468.462 472.267 468.26C472.719 468.056 473.223 467.953 473.78 467.953C474.342 467.953 474.842 468.054 475.28 468.256C475.717 468.455 476.064 468.728 476.32 469.074C476.578 469.421 476.715 469.814 476.729 470.255H475.706ZM480.375 476.953C479.961 476.953 479.584 476.875 479.246 476.719C478.908 476.56 478.64 476.331 478.441 476.033C478.242 475.732 478.143 475.368 478.143 474.942C478.143 474.567 478.216 474.263 478.364 474.03C478.512 473.794 478.709 473.61 478.956 473.476C479.204 473.343 479.476 473.243 479.775 473.178C480.076 473.11 480.378 473.056 480.682 473.016C481.08 472.965 481.402 472.926 481.65 472.901C481.9 472.872 482.081 472.826 482.195 472.76C482.312 472.695 482.37 472.581 482.37 472.419V472.385C482.37 471.965 482.255 471.638 482.025 471.405C481.797 471.172 481.452 471.056 480.989 471.056C480.509 471.056 480.133 471.161 479.86 471.371C479.587 471.581 479.395 471.806 479.285 472.044L478.33 471.703C478.5 471.306 478.728 470.996 479.012 470.774C479.299 470.55 479.611 470.394 479.949 470.306C480.29 470.215 480.625 470.169 480.955 470.169C481.165 470.169 481.407 470.195 481.679 470.246C481.955 470.294 482.221 470.395 482.476 470.549C482.735 470.702 482.949 470.934 483.12 471.243C483.29 471.553 483.375 471.968 483.375 472.488V476.8H482.37V475.914H482.319C482.25 476.056 482.137 476.208 481.978 476.37C481.819 476.532 481.607 476.669 481.343 476.783C481.079 476.897 480.756 476.953 480.375 476.953ZM480.529 476.05C480.927 476.05 481.262 475.972 481.535 475.816C481.81 475.659 482.018 475.458 482.157 475.211C482.299 474.963 482.37 474.703 482.37 474.431V473.51C482.327 473.561 482.233 473.608 482.089 473.651C481.947 473.691 481.782 473.726 481.594 473.757C481.41 473.786 481.229 473.811 481.053 473.834C480.88 473.854 480.739 473.871 480.631 473.885C480.37 473.919 480.125 473.975 479.898 474.051C479.674 474.125 479.492 474.238 479.353 474.388C479.216 474.536 479.148 474.738 479.148 474.993C479.148 475.343 479.277 475.607 479.536 475.786C479.797 475.962 480.128 476.05 480.529 476.05Z" fill="#7D8082"/>
<path d="M515.786 470.255C515.735 469.823 515.527 469.488 515.164 469.249C514.8 469.01 514.354 468.891 513.826 468.891C513.439 468.891 513.101 468.953 512.811 469.078C512.524 469.203 512.3 469.375 512.138 469.594C511.979 469.813 511.899 470.061 511.899 470.34C511.899 470.573 511.955 470.773 512.066 470.941C512.179 471.105 512.324 471.243 512.5 471.354C512.676 471.462 512.861 471.551 513.054 471.622C513.247 471.691 513.425 471.746 513.587 471.789L514.473 472.027C514.701 472.087 514.953 472.169 515.232 472.274C515.513 472.38 515.782 472.523 516.037 472.705C516.296 472.884 516.509 473.114 516.676 473.395C516.844 473.676 516.928 474.022 516.928 474.431C516.928 474.902 516.804 475.328 516.557 475.709C516.313 476.09 515.955 476.392 515.483 476.617C515.014 476.841 514.445 476.953 513.774 476.953C513.149 476.953 512.608 476.853 512.151 476.651C511.696 476.449 511.338 476.168 511.077 475.807C510.818 475.446 510.672 475.027 510.638 474.55H511.729C511.757 474.88 511.868 475.152 512.061 475.368C512.257 475.581 512.505 475.74 512.803 475.846C513.104 475.948 513.428 475.999 513.774 475.999C514.178 475.999 514.54 475.934 514.861 475.803C515.182 475.669 515.436 475.485 515.624 475.249C515.811 475.01 515.905 474.732 515.905 474.414C515.905 474.124 515.824 473.888 515.662 473.706C515.5 473.524 515.287 473.377 515.023 473.263C514.759 473.149 514.473 473.05 514.166 472.965L513.093 472.658C512.411 472.462 511.871 472.182 511.473 471.819C511.076 471.455 510.877 470.979 510.877 470.391C510.877 469.902 511.009 469.476 511.273 469.113C511.54 468.746 511.898 468.462 512.347 468.26C512.799 468.056 513.303 467.953 513.86 467.953C514.422 467.953 514.922 468.054 515.36 468.256C515.797 468.455 516.144 468.728 516.399 469.074C516.658 469.421 516.794 469.814 516.809 470.255H515.786ZM522.654 474.124V470.255H523.66V476.8H522.654V475.692H522.586C522.432 476.024 522.194 476.307 521.87 476.54C521.546 476.77 521.137 476.885 520.643 476.885C520.234 476.885 519.87 476.796 519.552 476.617C519.234 476.435 518.984 476.162 518.802 475.799C518.62 475.432 518.529 474.971 518.529 474.414V470.255H519.535V474.346C519.535 474.823 519.668 475.203 519.935 475.488C520.205 475.772 520.549 475.914 520.967 475.914C521.217 475.914 521.471 475.85 521.729 475.722C521.991 475.594 522.209 475.398 522.386 475.134C522.565 474.87 522.654 474.533 522.654 474.124Z" fill="#7D8082"/>
<rect x="503" y="327" width="28" height="125" fill="#F55B53" fill-opacity="0.85"/>
</g>
</g>
<defs>
<filter id="filter0_d_2261_805" x="21" y="0" width="440" height="315" filterUnits="userSpaceOnUse" color-interpolation-filters="sRGB">
<feFlood flood-opacity="0" result="BackgroundImageFix"/>
<feColorMatrix in="SourceAlpha" type="matrix" values="0 0 0 0 0 0 0 0 0 0 0 0 0 0 0 0 0 0 127 0" result="hardAlpha"/>
<feOffset dy="4"/>
<feGaussianBlur stdDeviation="10"/>
<feComposite in2="hardAlpha" operator="out"/>
<feColorMatrix type="matrix" values="0 0 0 0 0.392157 0 0 0 0 0.392157 0 0 0 0 0.435294 0 0 0 0.9 0"/>
<feBlend mode="normal" in2="BackgroundImageFix" result="effect1_dropShadow_2261_805"/>
<feBlend mode="normal" in="SourceGraphic" in2="effect1_dropShadow_2261_805" result="shape"/>
</filter>
<filter id="filter1_d_2261_805" x="0" y="353" width="440" height="315" filterUnits="userSpaceOnUse" color-interpolation-filters="sRGB">
<feFlood flood-opacity="0" result="BackgroundImageFix"/>
<feColorMatrix in="SourceAlpha" type="matrix" values="0 0 0 0 0 0 0 0 0 0 0 0 0 0 0 0 0 0 127 0" result="hardAlpha"/>
<feOffset dy="4"/>
<feGaussianBlur stdDeviation="10"/>
<feComposite in2="hardAlpha" operator="out"/>
<feColorMatrix type="matrix" values="0 0 0 0 0.392157 0 0 0 0 0.392157 0 0 0 0 0.435294 0 0 0 0.9 0"/>
<feBlend mode="normal" in2="BackgroundImageFix" result="effect1_dropShadow_2261_805"/>
<feBlend mode="normal" in="SourceGraphic" in2="effect1_dropShadow_2261_805" result="shape"/>
</filter>
<filter id="filter2_d_2261_805" x="169" y="207" width="440" height="315" filterUnits="userSpaceOnUse" color-interpolation-filters="sRGB">
<feFlood flood-opacity="0" result="BackgroundImageFix"/>
<feColorMatrix in="SourceAlpha" type="matrix" values="0 0 0 0 0 0 0 0 0 0 0 0 0 0 0 0 0 0 127 0" result="hardAlpha"/>
<feOffset dy="4"/>
<feGaussianBlur stdDeviation="10"/>
<feComposite in2="hardAlpha" operator="out"/>
<feColorMatrix type="matrix" values="0 0 0 0 0.392157 0 0 0 0 0.392157 0 0 0 0 0.435294 0 0 0 0.9 0"/>
<feBlend mode="normal" in2="BackgroundImageFix" result="effect1_dropShadow_2261_805"/>
<feBlend mode="normal" in="SourceGraphic" in2="effect1_dropShadow_2261_805" result="shape"/>
</filter>
<linearGradient id="paint0_linear_2261_805" x1="110.771" y1="124.03" x2="110.771" y2="244.8" gradientUnits="userSpaceOnUse">
<stop stop-color="#F55B53" stop-opacity="0.4225"/>
<stop offset="1" stop-color="#FAADA9" stop-opacity="0.25"/>
</linearGradient>
<clipPath id="clip0_2261_805">
<rect width="348" height="250" fill="white" transform="translate(55 29)"/>
</clipPath>
<clipPath id="clip1_2261_805">
<rect width="348" height="250" fill="white" transform="translate(34 382)"/>
</clipPath>
<clipPath id="clip2_2261_805">
<rect width="348" height="250" fill="white" transform="translate(203 236)"/>
</clipPath>
</defs>
</svg>
