<svg width="494" height="291" viewBox="0 0 494 291" fill="none" xmlns="http://www.w3.org/2000/svg">
<g filter="url(#filter0_d_2257_191)">
<rect x="29" y="22" width="381" height="130.492" rx="15.24" fill="white"/>
<rect x="48.7644" y="90.8181" width="107.156" height="36.6305" rx="6.90562" stroke="#F06060" stroke-width="1.42875"/>
<rect x="166.398" y="90.8181" width="107.156" height="36.6305" rx="6.90562" stroke="#F09D60" stroke-width="1.42875"/>
<rect x="284.032" y="90.8181" width="107.156" height="36.6305" rx="6.90562" stroke="#F0BF60" stroke-width="1.42875"/>
<path d="M77.6959 115.104L74.6652 104.02H76.029L78.3453 113.047H78.4535L80.8131 104.02H82.3285L84.6881 113.047H84.7963L87.1126 104.02H88.4764L85.4458 115.104H84.0603L81.6141 106.271H81.5275L79.0813 115.104H77.6959ZM91.6478 115.299C91.1211 115.299 90.643 115.199 90.2137 115.001C89.7843 114.799 89.4434 114.508 89.1908 114.13C88.9383 113.747 88.812 113.285 88.812 112.744C88.812 112.268 88.9058 111.882 89.0934 111.586C89.281 111.287 89.5318 111.052 89.8457 110.882C90.1596 110.713 90.5059 110.587 90.8847 110.504C91.2672 110.417 91.6514 110.348 92.0375 110.298C92.5426 110.233 92.9521 110.184 93.266 110.152C93.5835 110.116 93.8144 110.056 93.9587 109.973C94.1067 109.89 94.1806 109.746 94.1806 109.54V109.497C94.1806 108.963 94.0345 108.548 93.7422 108.252C93.4536 107.956 93.0152 107.808 92.4271 107.808C91.8174 107.808 91.3394 107.942 90.993 108.209C90.6466 108.476 90.4031 108.761 90.2624 109.064L89.0501 108.631C89.2666 108.126 89.5552 107.733 89.916 107.451C90.2804 107.166 90.6773 106.968 91.1066 106.856C91.5396 106.741 91.9653 106.683 92.3839 106.683C92.6508 106.683 92.9575 106.715 93.3039 106.78C93.6539 106.842 93.9912 106.97 94.3159 107.164C94.6442 107.359 94.9166 107.653 95.1331 108.047C95.3496 108.44 95.4578 108.967 95.4578 109.627V115.104H94.1806V113.978H94.1157C94.0291 114.158 93.8848 114.352 93.6827 114.557C93.4807 114.763 93.2119 114.938 92.8763 115.082C92.5408 115.226 92.1313 115.299 91.6478 115.299ZM91.8427 114.151C92.3478 114.151 92.7735 114.052 93.1199 113.854C93.4698 113.655 93.7332 113.399 93.91 113.085C94.0904 112.771 94.1806 112.441 94.1806 112.095V110.926C94.1265 110.991 94.0074 111.05 93.8234 111.104C93.643 111.155 93.4338 111.2 93.1956 111.24C92.9611 111.276 92.732 111.308 92.5083 111.337C92.2882 111.362 92.1097 111.384 91.9725 111.402C91.6406 111.445 91.3303 111.516 91.0417 111.613C90.7567 111.707 90.5258 111.849 90.349 112.041C90.1758 112.228 90.0892 112.484 90.0892 112.809C90.0892 113.253 90.2534 113.588 90.5817 113.816C90.9136 114.039 91.3339 114.151 91.8427 114.151ZM99.0662 104.02V115.104H97.789V104.02H99.0662ZM102.596 112.073L102.575 110.493H102.834L106.471 106.791H108.051L104.176 110.709H104.068L102.596 112.073ZM101.406 115.104V104.02H102.683V115.104H101.406ZM106.688 115.104L103.44 110.991L104.35 110.103L108.311 115.104H106.688ZM109.695 115.104V106.791H110.972V115.104H109.695ZM110.345 105.406C110.096 105.406 109.881 105.321 109.701 105.151C109.524 104.982 109.435 104.778 109.435 104.54C109.435 104.302 109.524 104.098 109.701 103.928C109.881 103.759 110.096 103.674 110.345 103.674C110.594 103.674 110.807 103.759 110.983 103.928C111.164 104.098 111.254 104.302 111.254 104.54C111.254 104.778 111.164 104.982 110.983 105.151C110.807 105.321 110.594 105.406 110.345 105.406ZM114.589 110.103V115.104H113.312V106.791H114.546V108.09H114.654C114.849 107.668 115.145 107.329 115.542 107.072C115.938 106.813 116.451 106.683 117.079 106.683C117.641 106.683 118.134 106.798 118.556 107.029C118.978 107.256 119.306 107.603 119.541 108.068C119.775 108.53 119.893 109.115 119.893 109.822V115.104H118.615V109.908C118.615 109.255 118.446 108.747 118.107 108.382C117.768 108.014 117.302 107.83 116.71 107.83C116.303 107.83 115.938 107.919 115.617 108.095C115.3 108.272 115.049 108.53 114.865 108.869C114.681 109.208 114.589 109.62 114.589 110.103ZM125.582 118.394C124.965 118.394 124.435 118.315 123.991 118.156C123.547 118.001 123.177 117.795 122.881 117.539C122.589 117.287 122.356 117.016 122.183 116.727L123.201 116.013C123.316 116.164 123.462 116.338 123.639 116.533C123.816 116.731 124.058 116.902 124.364 117.047C124.675 117.195 125.08 117.269 125.582 117.269C126.253 117.269 126.807 117.106 127.243 116.781C127.68 116.457 127.898 115.948 127.898 115.255V113.567H127.79C127.696 113.718 127.563 113.906 127.39 114.13C127.22 114.35 126.975 114.546 126.654 114.72C126.336 114.889 125.907 114.974 125.366 114.974C124.694 114.974 124.092 114.815 123.558 114.498C123.028 114.18 122.607 113.718 122.297 113.112C121.99 112.506 121.837 111.77 121.837 110.904C121.837 110.053 121.987 109.311 122.286 108.68C122.586 108.045 123.002 107.554 123.536 107.208C124.07 106.858 124.687 106.683 125.387 106.683C125.928 106.683 126.358 106.773 126.675 106.953C126.996 107.13 127.242 107.332 127.411 107.56C127.584 107.783 127.718 107.967 127.812 108.112H127.942V106.791H129.176V115.342C129.176 116.056 129.013 116.637 128.688 117.085C128.367 117.536 127.934 117.866 127.39 118.075C126.848 118.288 126.246 118.394 125.582 118.394ZM125.539 113.827C126.051 113.827 126.484 113.709 126.838 113.475C127.191 113.24 127.46 112.903 127.644 112.463C127.828 112.023 127.92 111.496 127.92 110.882C127.92 110.284 127.83 109.755 127.649 109.297C127.469 108.839 127.202 108.48 126.848 108.22C126.495 107.96 126.058 107.83 125.539 107.83C124.998 107.83 124.547 107.967 124.186 108.241C123.829 108.516 123.56 108.884 123.379 109.345C123.203 109.807 123.114 110.32 123.114 110.882C123.114 111.46 123.204 111.97 123.385 112.414C123.569 112.854 123.839 113.201 124.197 113.453C124.557 113.702 125.005 113.827 125.539 113.827Z" fill="black"/>
<path d="M192.118 115.104V104.02H195.863C196.729 104.02 197.44 104.168 197.996 104.464C198.551 104.756 198.963 105.158 199.23 105.671C199.497 106.183 199.63 106.766 199.63 107.419C199.63 108.072 199.497 108.651 199.23 109.156C198.963 109.661 198.553 110.058 198.001 110.347C197.449 110.632 196.744 110.774 195.885 110.774H192.854V109.562H195.842C196.433 109.562 196.91 109.475 197.27 109.302C197.635 109.129 197.898 108.884 198.061 108.566C198.227 108.245 198.31 107.863 198.31 107.419C198.31 106.975 198.227 106.587 198.061 106.255C197.895 105.923 197.629 105.667 197.265 105.487C196.901 105.303 196.419 105.211 195.82 105.211H193.46V115.104H192.118ZM197.335 110.125L200.063 115.104H198.504L195.82 110.125H197.335ZM205.089 115.277C204.288 115.277 203.597 115.1 203.017 114.747C202.439 114.389 201.994 113.891 201.68 113.253C201.37 112.611 201.214 111.864 201.214 111.012C201.214 110.161 201.37 109.41 201.68 108.761C201.994 108.108 202.43 107.599 202.99 107.235C203.552 106.867 204.209 106.683 204.959 106.683C205.392 106.683 205.82 106.755 206.242 106.899C206.664 107.044 207.048 107.278 207.395 107.603C207.741 107.924 208.017 108.35 208.223 108.88C208.429 109.41 208.531 110.063 208.531 110.839V111.38H202.124V110.276H207.233C207.233 109.807 207.139 109.389 206.951 109.021C206.767 108.653 206.504 108.362 206.161 108.149C205.822 107.937 205.421 107.83 204.959 107.83C204.451 107.83 204.011 107.956 203.639 108.209C203.271 108.458 202.988 108.783 202.789 109.183C202.591 109.584 202.492 110.013 202.492 110.471V111.207C202.492 111.835 202.6 112.367 202.816 112.804C203.036 113.237 203.341 113.567 203.731 113.794C204.121 114.018 204.573 114.13 205.089 114.13C205.425 114.13 205.728 114.083 205.999 113.989C206.273 113.891 206.509 113.747 206.708 113.556C206.906 113.361 207.059 113.119 207.168 112.831L208.401 113.177C208.272 113.596 208.053 113.964 207.747 114.281C207.44 114.595 207.061 114.84 206.61 115.017C206.159 115.19 205.652 115.277 205.089 115.277ZM212.92 115.299C212.394 115.299 211.916 115.199 211.486 115.001C211.057 114.799 210.716 114.508 210.463 114.13C210.211 113.747 210.085 113.285 210.085 112.744C210.085 112.268 210.178 111.882 210.366 111.586C210.554 111.287 210.804 111.052 211.118 110.882C211.432 110.713 211.779 110.587 212.157 110.504C212.54 110.417 212.924 110.348 213.31 110.298C213.815 110.233 214.225 110.184 214.539 110.152C214.856 110.116 215.087 110.056 215.231 109.973C215.379 109.89 215.453 109.746 215.453 109.54V109.497C215.453 108.963 215.307 108.548 215.015 108.252C214.726 107.956 214.288 107.808 213.7 107.808C213.09 107.808 212.612 107.942 212.266 108.209C211.919 108.476 211.676 108.761 211.535 109.064L210.323 108.631C210.539 108.126 210.828 107.733 211.189 107.451C211.553 107.166 211.95 106.968 212.379 106.856C212.812 106.741 213.238 106.683 213.656 106.683C213.923 106.683 214.23 106.715 214.576 106.78C214.926 106.842 215.264 106.97 215.589 107.164C215.917 107.359 216.189 107.653 216.406 108.047C216.622 108.44 216.73 108.967 216.73 109.627V115.104H215.453V113.978H215.388C215.302 114.158 215.157 114.352 214.955 114.557C214.753 114.763 214.484 114.938 214.149 115.082C213.813 115.226 213.404 115.299 212.92 115.299ZM213.115 114.151C213.62 114.151 214.046 114.052 214.392 113.854C214.742 113.655 215.006 113.399 215.183 113.085C215.363 112.771 215.453 112.441 215.453 112.095V110.926C215.399 110.991 215.28 111.05 215.096 111.104C214.916 111.155 214.706 111.2 214.468 111.24C214.234 111.276 214.005 111.308 213.781 111.337C213.561 111.362 213.382 111.384 213.245 111.402C212.913 111.445 212.603 111.516 212.314 111.613C212.029 111.707 211.798 111.849 211.622 112.041C211.448 112.228 211.362 112.484 211.362 112.809C211.362 113.253 211.526 113.588 211.854 113.816C212.186 114.039 212.607 114.151 213.115 114.151ZM222.201 115.277C221.508 115.277 220.896 115.102 220.366 114.752C219.836 114.398 219.421 113.901 219.121 113.258C218.822 112.612 218.672 111.849 218.672 110.969C218.672 110.096 218.822 109.338 219.121 108.696C219.421 108.054 219.837 107.558 220.371 107.208C220.905 106.858 221.522 106.683 222.222 106.683C222.763 106.683 223.191 106.773 223.505 106.953C223.822 107.13 224.064 107.332 224.23 107.56C224.4 107.783 224.531 107.967 224.625 108.112H224.733V104.02H226.011V115.104H224.777V113.827H224.625C224.531 113.978 224.398 114.169 224.225 114.4C224.051 114.628 223.804 114.831 223.483 115.012C223.162 115.189 222.735 115.277 222.201 115.277ZM222.374 114.13C222.886 114.13 223.319 113.996 223.673 113.729C224.026 113.459 224.295 113.085 224.479 112.609C224.663 112.129 224.755 111.575 224.755 110.947C224.755 110.327 224.665 109.784 224.484 109.318C224.304 108.849 224.037 108.485 223.683 108.225C223.33 107.962 222.893 107.83 222.374 107.83C221.833 107.83 221.382 107.969 221.021 108.247C220.664 108.521 220.395 108.894 220.214 109.367C220.038 109.836 219.949 110.363 219.949 110.947C219.949 111.539 220.039 112.077 220.22 112.56C220.404 113.04 220.674 113.422 221.032 113.707C221.392 113.989 221.84 114.13 222.374 114.13ZM228.527 115.104V106.791H229.804V115.104H228.527ZM229.177 105.406C228.928 105.406 228.713 105.321 228.533 105.151C228.356 104.982 228.267 104.778 228.267 104.54C228.267 104.302 228.356 104.098 228.533 103.928C228.713 103.759 228.928 103.674 229.177 103.674C229.425 103.674 229.638 103.759 229.815 103.928C229.996 104.098 230.086 104.302 230.086 104.54C230.086 104.778 229.996 104.982 229.815 105.151C229.638 105.321 229.425 105.406 229.177 105.406ZM233.421 110.103V115.104H232.144V106.791H233.378V108.09H233.486C233.681 107.668 233.976 107.329 234.373 107.072C234.77 106.813 235.283 106.683 235.91 106.683C236.473 106.683 236.966 106.798 237.388 107.029C237.81 107.256 238.138 107.603 238.373 108.068C238.607 108.53 238.725 109.115 238.725 109.822V115.104H237.447V109.908C237.447 109.255 237.278 108.747 236.939 108.382C236.599 108.014 236.134 107.83 235.542 107.83C235.135 107.83 234.77 107.919 234.449 108.095C234.132 108.272 233.881 108.53 233.697 108.869C233.513 109.208 233.421 109.62 233.421 110.103ZM244.414 118.394C243.797 118.394 243.266 118.315 242.823 118.156C242.379 118.001 242.009 117.795 241.713 117.539C241.421 117.287 241.188 117.016 241.015 116.727L242.033 116.013C242.148 116.164 242.294 116.338 242.471 116.533C242.648 116.731 242.889 116.902 243.196 117.047C243.506 117.195 243.912 117.269 244.414 117.269C245.085 117.269 245.639 117.106 246.075 116.781C246.512 116.457 246.73 115.948 246.73 115.255V113.567H246.622C246.528 113.718 246.395 113.906 246.221 114.13C246.052 114.35 245.806 114.546 245.485 114.72C245.168 114.889 244.739 114.974 244.197 114.974C243.526 114.974 242.924 114.815 242.39 114.498C241.859 114.18 241.439 113.718 241.129 113.112C240.822 112.506 240.669 111.77 240.669 110.904C240.669 110.053 240.818 109.311 241.118 108.68C241.417 108.045 241.834 107.554 242.368 107.208C242.902 106.858 243.519 106.683 244.219 106.683C244.76 106.683 245.19 106.773 245.507 106.953C245.828 107.13 246.073 107.332 246.243 107.56C246.416 107.783 246.55 107.967 246.644 108.112H246.773V106.791H248.007V115.342C248.007 116.056 247.845 116.637 247.52 117.085C247.199 117.536 246.766 117.866 246.221 118.075C245.68 118.288 245.078 118.394 244.414 118.394ZM244.371 113.827C244.883 113.827 245.316 113.709 245.669 113.475C246.023 113.24 246.292 112.903 246.476 112.463C246.66 112.023 246.752 111.496 246.752 110.882C246.752 110.284 246.662 109.755 246.481 109.297C246.301 108.839 246.034 108.48 245.68 108.22C245.327 107.96 244.89 107.83 244.371 107.83C243.829 107.83 243.378 107.967 243.018 108.241C242.66 108.516 242.392 108.884 242.211 109.345C242.034 109.807 241.946 110.32 241.946 110.882C241.946 111.46 242.036 111.97 242.217 112.414C242.401 112.854 242.671 113.201 243.028 113.453C243.389 113.702 243.837 113.827 244.371 113.827Z" fill="black"/>
<path d="M316.427 115.104V104.02H323.116V105.211H317.769V108.956H322.77V110.146H317.769V113.913H323.203V115.104H316.427ZM327.808 115.299C327.282 115.299 326.804 115.199 326.374 115.001C325.945 114.799 325.604 114.508 325.351 114.13C325.099 113.747 324.972 113.285 324.972 112.744C324.972 112.268 325.066 111.882 325.254 111.586C325.442 111.287 325.692 111.052 326.006 110.882C326.32 110.713 326.666 110.587 327.045 110.504C327.428 110.417 327.812 110.348 328.198 110.298C328.703 110.233 329.113 110.184 329.426 110.152C329.744 110.116 329.975 110.056 330.119 109.973C330.267 109.89 330.341 109.746 330.341 109.54V109.497C330.341 108.963 330.195 108.548 329.903 108.252C329.614 107.956 329.176 107.808 328.588 107.808C327.978 107.808 327.5 107.942 327.153 108.209C326.807 108.476 326.564 108.761 326.423 109.064L325.211 108.631C325.427 108.126 325.716 107.733 326.077 107.451C326.441 107.166 326.838 106.968 327.267 106.856C327.7 106.741 328.126 106.683 328.544 106.683C328.811 106.683 329.118 106.715 329.464 106.78C329.814 106.842 330.152 106.97 330.476 107.164C330.805 107.359 331.077 107.653 331.294 108.047C331.51 108.44 331.618 108.967 331.618 109.627V115.104H330.341V113.978H330.276C330.19 114.158 330.045 114.352 329.843 114.557C329.641 114.763 329.372 114.938 329.037 115.082C328.701 115.226 328.292 115.299 327.808 115.299ZM328.003 114.151C328.508 114.151 328.934 114.052 329.28 113.854C329.63 113.655 329.894 113.399 330.071 113.085C330.251 112.771 330.341 112.441 330.341 112.095V110.926C330.287 110.991 330.168 111.05 329.984 111.104C329.804 111.155 329.594 111.2 329.356 111.24C329.122 111.276 328.893 111.308 328.669 111.337C328.449 111.362 328.27 111.384 328.133 111.402C327.801 111.445 327.491 111.516 327.202 111.613C326.917 111.707 326.686 111.849 326.509 112.041C326.336 112.228 326.25 112.484 326.25 112.809C326.25 113.253 326.414 113.588 326.742 113.816C327.074 114.039 327.494 114.151 328.003 114.151ZM337.565 106.791V107.873H333.257V106.791H337.565ZM334.512 104.799H335.79V112.723C335.79 113.083 335.842 113.354 335.947 113.534C336.055 113.711 336.192 113.83 336.358 113.891C336.527 113.949 336.706 113.978 336.894 113.978C337.034 113.978 337.15 113.971 337.24 113.956C337.33 113.938 337.402 113.924 337.456 113.913L337.716 115.06C337.63 115.093 337.509 115.125 337.354 115.158C337.198 115.194 337.002 115.212 336.764 115.212C336.403 115.212 336.049 115.134 335.703 114.979C335.36 114.824 335.075 114.588 334.848 114.27C334.624 113.953 334.512 113.552 334.512 113.069V104.799ZM339.486 115.104V106.791H340.763V115.104H339.486ZM340.135 105.406C339.886 105.406 339.672 105.321 339.491 105.151C339.315 104.982 339.226 104.778 339.226 104.54C339.226 104.302 339.315 104.098 339.491 103.928C339.672 103.759 339.886 103.674 340.135 103.674C340.384 103.674 340.597 103.759 340.774 103.928C340.954 104.098 341.045 104.302 341.045 104.54C341.045 104.778 340.954 104.982 340.774 105.151C340.597 105.321 340.384 105.406 340.135 105.406ZM344.38 110.103V115.104H343.102V106.791H344.336V108.09H344.445C344.639 107.668 344.935 107.329 345.332 107.072C345.729 106.813 346.241 106.683 346.869 106.683C347.432 106.683 347.924 106.798 348.347 107.029C348.769 107.256 349.097 107.603 349.332 108.068C349.566 108.53 349.683 109.115 349.683 109.822V115.104H348.406V109.908C348.406 109.255 348.237 108.747 347.897 108.382C347.558 108.014 347.093 107.83 346.501 107.83C346.093 107.83 345.729 107.919 345.408 108.095C345.09 108.272 344.84 108.53 344.656 108.869C344.472 109.208 344.38 109.62 344.38 110.103ZM355.373 118.394C354.756 118.394 354.225 118.315 353.782 118.156C353.338 118.001 352.968 117.795 352.672 117.539C352.38 117.287 352.147 117.016 351.974 116.727L352.991 116.013C353.107 116.164 353.253 116.338 353.43 116.533C353.607 116.731 353.848 116.902 354.155 117.047C354.465 117.195 354.871 117.269 355.373 117.269C356.044 117.269 356.598 117.106 357.034 116.781C357.471 116.457 357.689 115.948 357.689 115.255V113.567H357.581C357.487 113.718 357.353 113.906 357.18 114.13C357.011 114.35 356.765 114.546 356.444 114.72C356.127 114.889 355.697 114.974 355.156 114.974C354.485 114.974 353.883 114.815 353.349 114.498C352.818 114.18 352.398 113.718 352.088 113.112C351.781 112.506 351.628 111.77 351.628 110.904C351.628 110.053 351.777 109.311 352.077 108.68C352.376 108.045 352.793 107.554 353.327 107.208C353.861 106.858 354.478 106.683 355.178 106.683C355.719 106.683 356.148 106.773 356.466 106.953C356.787 107.13 357.032 107.332 357.202 107.56C357.375 107.783 357.509 107.967 357.602 108.112H357.732V106.791H358.966V115.342C358.966 116.056 358.804 116.637 358.479 117.085C358.158 117.536 357.725 117.866 357.18 118.075C356.639 118.288 356.037 118.394 355.373 118.394ZM355.329 113.827C355.842 113.827 356.275 113.709 356.628 113.475C356.982 113.24 357.251 112.903 357.435 112.463C357.619 112.023 357.711 111.496 357.711 110.882C357.711 110.284 357.62 109.755 357.44 109.297C357.26 108.839 356.993 108.48 356.639 108.22C356.285 107.96 355.849 107.83 355.329 107.83C354.788 107.83 354.337 107.967 353.976 108.241C353.619 108.516 353.35 108.884 353.17 109.345C352.993 109.807 352.905 110.32 352.905 110.882C352.905 111.46 352.995 111.97 353.175 112.414C353.359 112.854 353.63 113.201 353.987 113.453C354.348 113.702 354.795 113.827 355.329 113.827Z" fill="black"/>
<path d="M106.09 63.24V49.3854H114.776V51.1849H108.18V55.4062H114.323V57.1989H108.18V61.4405H114.857V63.24H106.09ZM119.428 57.0704V63.24H117.406V52.8491H119.347V54.5403H119.476C119.715 53.9901 120.089 53.5481 120.599 53.2144C121.113 52.8807 121.76 52.7138 122.54 52.7138C123.248 52.7138 123.868 52.8626 124.401 53.1603C124.933 53.4534 125.345 53.8909 125.639 54.4727C125.932 55.0544 126.078 55.7738 126.078 56.6307V63.24H124.056V56.8742C124.056 56.121 123.859 55.5325 123.467 55.1086C123.075 54.6801 122.536 54.4659 121.85 54.4659C121.381 54.4659 120.964 54.5674 120.599 54.7703C120.238 54.9733 119.951 55.2709 119.74 55.6633C119.532 56.0511 119.428 56.5202 119.428 57.0704ZM133.269 63.4497C132.246 63.4497 131.364 63.231 130.624 62.7935C129.889 62.3515 129.321 61.7314 128.919 60.9332C128.523 60.1304 128.324 59.1901 128.324 58.1122C128.324 57.0478 128.523 56.1098 128.919 55.298C129.321 54.4862 129.88 53.8525 130.597 53.397C131.319 52.9415 132.162 52.7138 133.127 52.7138C133.714 52.7138 134.282 52.8107 134.832 53.0047C135.382 53.1986 135.876 53.503 136.314 53.9179C136.751 54.3329 137.096 54.8718 137.349 55.5348C137.601 56.1932 137.727 56.9937 137.727 57.9363V58.6534H129.467V57.138H135.745C135.745 56.6059 135.637 56.1346 135.421 55.7242C135.204 55.3093 134.9 54.9823 134.507 54.7433C134.119 54.5042 133.664 54.3847 133.141 54.3847C132.573 54.3847 132.076 54.5245 131.653 54.8041C131.233 55.0792 130.908 55.44 130.678 55.8865C130.453 56.3285 130.34 56.8088 130.34 57.3275V58.5113C130.34 59.2058 130.462 59.7966 130.705 60.2837C130.953 60.7708 131.298 61.1429 131.74 61.3999C132.182 61.6525 132.699 61.7788 133.29 61.7788C133.673 61.7788 134.022 61.7246 134.338 61.6164C134.654 61.5037 134.927 61.3368 135.157 61.1158C135.387 60.8948 135.563 60.622 135.684 60.2973L137.599 60.6423C137.446 61.206 137.17 61.6998 136.774 62.1238C136.381 62.5432 135.887 62.8702 135.292 63.1047C134.701 63.3347 134.027 63.4497 133.269 63.4497ZM139.972 63.24V52.8491H141.927V54.4997H142.035C142.224 53.9405 142.558 53.5008 143.036 53.1806C143.519 52.8558 144.064 52.6935 144.673 52.6935C144.8 52.6935 144.948 52.698 145.12 52.707C145.296 52.716 145.433 52.7273 145.532 52.7408V54.6756C145.451 54.6531 145.307 54.6283 145.099 54.6012C144.892 54.5696 144.685 54.5538 144.477 54.5538C143.999 54.5538 143.573 54.6553 143.199 54.8583C142.829 55.0567 142.536 55.3341 142.319 55.6903C142.103 56.0421 141.994 56.4435 141.994 56.8945V63.24H139.972ZM151.267 67.3531C150.442 67.3531 149.732 67.2448 149.136 67.0283C148.546 66.8119 148.063 66.5255 147.689 66.1692C147.314 65.8129 147.035 65.4228 146.85 64.9989L148.588 64.2818C148.71 64.4802 148.873 64.6899 149.076 64.9109C149.283 65.1364 149.563 65.3281 149.914 65.4859C150.271 65.6438 150.728 65.7227 151.288 65.7227C152.054 65.7227 152.688 65.5356 153.189 65.1612C153.689 64.7914 153.94 64.2006 153.94 63.3888V61.3458H153.811C153.689 61.5668 153.513 61.8126 153.283 62.0832C153.058 62.3538 152.747 62.5883 152.35 62.7867C151.953 62.9852 151.437 63.0844 150.801 63.0844C149.98 63.0844 149.24 62.8927 148.582 62.5094C147.928 62.1215 147.409 61.551 147.026 60.7979C146.647 60.0402 146.458 59.1089 146.458 58.0039C146.458 56.899 146.645 55.9519 147.019 55.1627C147.398 54.3734 147.917 53.7691 148.575 53.3497C149.233 52.9258 149.98 52.7138 150.814 52.7138C151.459 52.7138 151.98 52.822 152.377 53.0385C152.774 53.2505 153.083 53.4985 153.304 53.7826C153.529 54.0668 153.703 54.3171 153.825 54.5335H153.973V52.8491H155.955V63.47C155.955 64.363 155.748 65.0958 155.333 65.6686C154.918 66.2414 154.357 66.6653 153.649 66.9404C152.945 67.2155 152.151 67.3531 151.267 67.3531ZM151.247 61.4067C151.829 61.4067 152.32 61.2714 152.722 61.0008C153.128 60.7257 153.434 60.3333 153.642 59.8237C153.854 59.3096 153.96 58.694 153.96 57.9769C153.96 57.2778 153.856 56.6622 153.649 56.1301C153.441 55.5979 153.137 55.183 152.735 54.8853C152.334 54.5832 151.838 54.4321 151.247 54.4321C150.638 54.4321 150.131 54.5899 149.725 54.9056C149.319 55.2168 149.012 55.6407 148.805 56.1774C148.602 56.7141 148.501 57.3139 148.501 57.9769C148.501 58.6579 148.604 59.2555 148.812 59.7696C149.019 60.2837 149.326 60.6851 149.732 60.9737C150.142 61.2624 150.647 61.4067 151.247 61.4067ZM159.947 67.1366C159.645 67.1366 159.37 67.1118 159.121 67.0622C158.873 67.0171 158.688 66.9675 158.567 66.9133L159.054 65.2559C159.424 65.3552 159.753 65.398 160.041 65.3845C160.33 65.3709 160.585 65.2627 160.806 65.0598C161.031 64.8568 161.23 64.5253 161.401 64.0653L161.652 63.3753L157.85 52.8491H160.014L162.646 60.9129H162.754L165.386 52.8491H167.557L163.275 64.6268C163.077 65.168 162.824 65.6257 162.517 66.0001C162.211 66.3789 161.845 66.663 161.422 66.8525C160.998 67.0419 160.506 67.1366 159.947 67.1366ZM178.39 63.4429C177.551 63.4429 176.802 63.2287 176.144 62.8003C175.49 62.3673 174.976 61.7517 174.601 60.9534C174.231 60.1507 174.047 59.1878 174.047 58.0648C174.047 56.9419 174.234 55.9812 174.608 55.183C174.987 54.3847 175.506 53.7736 176.164 53.3497C176.822 52.9258 177.569 52.7138 178.403 52.7138C179.048 52.7138 179.567 52.822 179.959 53.0385C180.356 53.2505 180.663 53.4985 180.879 53.7826C181.1 54.0668 181.271 54.3171 181.393 54.5335H181.515V49.3854H183.538V63.24H181.562V61.6232H181.393C181.271 61.8442 181.096 62.0967 180.866 62.3808C180.64 62.665 180.329 62.913 179.932 63.125C179.535 63.337 179.021 63.4429 178.39 63.4429ZM178.836 61.7179C179.418 61.7179 179.909 61.5645 180.311 61.2579C180.717 60.9467 181.023 60.516 181.231 59.9658C181.443 59.4156 181.549 58.7751 181.549 58.0445C181.549 57.3229 181.445 56.6916 181.238 56.1504C181.03 55.6092 180.726 55.1875 180.324 54.8853C179.923 54.5832 179.427 54.4321 178.836 54.4321C178.227 54.4321 177.72 54.5899 177.314 54.9056C176.908 55.2213 176.601 55.652 176.394 56.1977C176.191 56.7434 176.09 57.359 176.09 58.0445C176.09 58.7391 176.193 59.3637 176.401 59.9184C176.608 60.4731 176.915 60.9129 177.321 61.2376C177.731 61.5578 178.236 61.7179 178.836 61.7179ZM186.425 63.24V52.8491H188.38V54.4997H188.488C188.677 53.9405 189.011 53.5008 189.489 53.1806C189.972 52.8558 190.517 52.6935 191.126 52.6935C191.253 52.6935 191.401 52.698 191.573 52.707C191.749 52.716 191.886 52.7273 191.985 52.7408V54.6756C191.904 54.6531 191.76 54.6283 191.552 54.6012C191.345 54.5696 191.138 54.5538 190.93 54.5538C190.452 54.5538 190.026 54.6553 189.652 54.8583C189.282 55.0567 188.989 55.3341 188.772 55.6903C188.556 56.0421 188.447 56.4435 188.447 56.8945V63.24H186.425ZM196.667 63.47C196.008 63.47 195.413 63.3482 194.881 63.1047C194.349 62.8566 193.927 62.4981 193.616 62.0291C193.309 61.56 193.156 60.985 193.156 60.304C193.156 59.7177 193.268 59.2352 193.494 58.8563C193.719 58.4775 194.024 58.1776 194.407 57.9566C194.791 57.7356 195.219 57.5687 195.693 57.456C196.166 57.3432 196.649 57.2576 197.14 57.1989C197.763 57.1268 198.268 57.0681 198.656 57.023C199.043 56.9734 199.325 56.8945 199.501 56.7863C199.677 56.678 199.765 56.5021 199.765 56.2586V56.2112C199.765 55.6204 199.598 55.1627 199.264 54.838C198.935 54.5133 198.444 54.3509 197.79 54.3509C197.109 54.3509 196.572 54.502 196.18 54.8041C195.792 55.1018 195.523 55.4333 195.375 55.7986L193.474 55.3656C193.699 54.7342 194.028 54.2246 194.461 53.8368C194.899 53.4444 195.402 53.1603 195.97 52.9844C196.538 52.804 197.136 52.7138 197.763 52.7138C198.178 52.7138 198.617 52.7634 199.082 52.8626C199.551 52.9573 199.988 53.1332 200.394 53.3903C200.805 53.6473 201.141 54.0149 201.402 54.493C201.664 54.9665 201.795 55.5821 201.795 56.3398V63.24H199.819V61.8194H199.738C199.607 62.0809 199.411 62.338 199.149 62.5906C198.888 62.8431 198.552 63.0528 198.141 63.2197C197.731 63.3866 197.239 63.47 196.667 63.47ZM197.106 61.8464C197.666 61.8464 198.144 61.7359 198.541 61.5149C198.942 61.294 199.246 61.0053 199.454 60.649C199.666 60.2882 199.772 59.9026 199.772 59.4922V58.1528C199.7 58.2249 199.56 58.2926 199.352 58.3557C199.149 58.4144 198.917 58.4662 198.656 58.5113C198.394 58.5519 198.139 58.5902 197.891 58.6263C197.643 58.6579 197.436 58.6849 197.269 58.7075C196.876 58.7571 196.518 58.8405 196.193 58.9578C195.873 59.0751 195.616 59.2442 195.422 59.4652C195.233 59.6816 195.138 59.9703 195.138 60.3311C195.138 60.8317 195.323 61.2105 195.693 61.4676C196.062 61.7201 196.534 61.8464 197.106 61.8464ZM204.489 63.24V52.8491H206.511V63.24H204.489ZM205.51 51.2458C205.158 51.2458 204.856 51.1285 204.604 50.894C204.356 50.655 204.232 50.3709 204.232 50.0416C204.232 49.7079 204.356 49.4238 204.604 49.1893C204.856 48.9502 205.158 48.8307 205.51 48.8307C205.862 48.8307 206.162 48.9502 206.41 49.1893C206.662 49.4238 206.789 49.7079 206.789 50.0416C206.789 50.3709 206.662 50.655 206.41 50.894C206.162 51.1285 205.862 51.2458 205.51 51.2458ZM211.255 57.0704V63.24H209.233V52.8491H211.174V54.5403H211.303C211.542 53.9901 211.916 53.5481 212.426 53.2144C212.94 52.8807 213.587 52.7138 214.367 52.7138C215.075 52.7138 215.695 52.8626 216.227 53.1603C216.76 53.4534 217.172 53.8909 217.465 54.4727C217.759 55.0544 217.905 55.7738 217.905 56.6307V63.24H215.882V56.8742C215.882 56.121 215.686 55.5325 215.294 55.1086C214.902 54.6801 214.363 54.4659 213.677 54.4659C213.208 54.4659 212.791 54.5674 212.426 54.7703C212.065 54.9733 211.778 55.2709 211.566 55.6633C211.359 56.0511 211.255 56.5202 211.255 57.0704ZM220.618 63.24V52.8491H222.641V63.24H220.618ZM221.639 51.2458C221.288 51.2458 220.985 51.1285 220.733 50.894C220.485 50.655 220.361 50.3709 220.361 50.0416C220.361 49.7079 220.485 49.4238 220.733 49.1893C220.985 48.9502 221.288 48.8307 221.639 48.8307C221.991 48.8307 222.291 48.9502 222.539 49.1893C222.792 49.4238 222.918 49.7079 222.918 50.0416C222.918 50.3709 222.792 50.655 222.539 50.894C222.291 51.1285 221.991 51.2458 221.639 51.2458ZM227.385 57.0704V63.24H225.362V52.8491H227.303V54.5403H227.432C227.671 53.9901 228.045 53.5481 228.555 53.2144C229.069 52.8807 229.716 52.7138 230.496 52.7138C231.204 52.7138 231.825 52.8626 232.357 53.1603C232.889 53.4534 233.302 53.8909 233.595 54.4727C233.888 55.0544 234.034 55.7738 234.034 56.6307V63.24H232.012V56.8742C232.012 56.121 231.816 55.5325 231.423 55.1086C231.031 54.6801 230.492 54.4659 229.806 54.4659C229.337 54.4659 228.92 54.5674 228.555 54.7703C228.194 54.9733 227.908 55.2709 227.696 55.6633C227.488 56.0511 227.385 56.5202 227.385 57.0704ZM241.104 67.3531C240.278 67.3531 239.568 67.2448 238.973 67.0283C238.382 66.8119 237.899 66.5255 237.525 66.1692C237.151 65.8129 236.871 65.4228 236.686 64.9989L238.425 64.2818C238.547 64.4802 238.709 64.6899 238.912 64.9109C239.119 65.1364 239.399 65.3281 239.751 65.4859C240.107 65.6438 240.565 65.7227 241.124 65.7227C241.891 65.7227 242.524 65.5356 243.025 65.1612C243.526 64.7914 243.776 64.2006 243.776 63.3888V61.3458H243.647C243.526 61.5668 243.35 61.8126 243.12 62.0832C242.894 62.3538 242.583 62.5883 242.186 62.7867C241.789 62.9852 241.273 63.0844 240.637 63.0844C239.816 63.0844 239.077 62.8927 238.418 62.5094C237.764 62.1215 237.245 61.551 236.862 60.7979C236.483 60.0402 236.294 59.1089 236.294 58.0039C236.294 56.899 236.481 55.9519 236.855 55.1627C237.234 54.3734 237.753 53.7691 238.411 53.3497C239.07 52.9258 239.816 52.7138 240.65 52.7138C241.295 52.7138 241.816 52.822 242.213 53.0385C242.61 53.2505 242.919 53.4985 243.14 53.7826C243.365 54.0668 243.539 54.3171 243.661 54.5335H243.81V52.8491H245.792V63.47C245.792 64.363 245.584 65.0958 245.169 65.6686C244.755 66.2414 244.193 66.6653 243.485 66.9404C242.781 67.2155 241.988 67.3531 241.104 67.3531ZM241.083 61.4067C241.665 61.4067 242.157 61.2714 242.558 61.0008C242.964 60.7257 243.271 60.3333 243.478 59.8237C243.69 59.3096 243.796 58.694 243.796 57.9769C243.796 57.2778 243.692 56.6622 243.485 56.1301C243.278 55.5979 242.973 55.183 242.572 54.8853C242.17 54.5832 241.674 54.4321 241.083 54.4321C240.475 54.4321 239.967 54.5899 239.561 54.9056C239.155 55.2168 238.849 55.6407 238.641 56.1774C238.438 56.7141 238.337 57.3139 238.337 57.9769C238.337 58.6579 238.441 59.2555 238.648 59.7696C238.856 60.2837 239.162 60.6851 239.568 60.9737C239.979 61.2624 240.484 61.4067 241.083 61.4067ZM256.57 63.47C255.912 63.47 255.316 63.3482 254.784 63.1047C254.252 62.8566 253.83 62.4981 253.519 62.0291C253.212 61.56 253.059 60.985 253.059 60.304C253.059 59.7177 253.172 59.2352 253.397 58.8563C253.623 58.4775 253.927 58.1776 254.311 57.9566C254.694 57.7356 255.122 57.5687 255.596 57.456C256.069 57.3432 256.552 57.2576 257.044 57.1989C257.666 57.1268 258.171 57.0681 258.559 57.023C258.947 56.9734 259.229 56.8945 259.405 56.7863C259.58 56.678 259.668 56.5021 259.668 56.2586V56.2112C259.668 55.6204 259.501 55.1627 259.168 54.838C258.839 54.5133 258.347 54.3509 257.693 54.3509C257.012 54.3509 256.475 54.502 256.083 54.8041C255.695 55.1018 255.427 55.4333 255.278 55.7986L253.377 55.3656C253.602 54.7342 253.932 54.2246 254.365 53.8368C254.802 53.4444 255.305 53.1603 255.873 52.9844C256.442 52.804 257.039 52.7138 257.666 52.7138C258.081 52.7138 258.521 52.7634 258.985 52.8626C259.454 52.9573 259.892 53.1332 260.298 53.3903C260.708 53.6473 261.044 54.0149 261.305 54.493C261.567 54.9665 261.698 55.5821 261.698 56.3398V63.24H259.722V61.8194H259.641C259.511 62.0809 259.314 62.338 259.053 62.5906C258.791 62.8431 258.455 63.0528 258.045 63.2197C257.634 63.3866 257.143 63.47 256.57 63.47ZM257.01 61.8464C257.569 61.8464 258.047 61.7359 258.444 61.5149C258.845 61.294 259.15 61.0053 259.357 60.649C259.569 60.2882 259.675 59.9026 259.675 59.4922V58.1528C259.603 58.2249 259.463 58.2926 259.256 58.3557C259.053 58.4144 258.82 58.4662 258.559 58.5113C258.297 58.5519 258.043 58.5902 257.794 58.6263C257.546 58.6579 257.339 58.6849 257.172 58.7075C256.78 58.7571 256.421 58.8405 256.096 58.9578C255.776 59.0751 255.519 59.2442 255.325 59.4652C255.136 59.6816 255.041 59.9703 255.041 60.3311C255.041 60.8317 255.226 61.2105 255.596 61.4676C255.966 61.7201 256.437 61.8464 257.01 61.8464ZM268.769 63.4497C267.763 63.4497 266.897 63.222 266.171 62.7664C265.45 62.3064 264.895 61.6728 264.507 60.8655C264.119 60.0582 263.925 59.1337 263.925 58.0919C263.925 57.0366 264.124 56.1053 264.521 55.298C264.917 54.4862 265.477 53.8525 266.198 53.397C266.92 52.9415 267.77 52.7138 268.749 52.7138C269.538 52.7138 270.241 52.8604 270.859 53.1535C271.477 53.4421 271.975 53.848 272.354 54.3712C272.738 54.8943 272.965 55.5054 273.038 56.2045H271.069C270.961 55.7174 270.713 55.298 270.325 54.9462C269.941 54.5944 269.427 54.4185 268.782 54.4185C268.219 54.4185 267.725 54.5674 267.301 54.865C266.881 55.1582 266.554 55.5776 266.32 56.1233C266.085 56.6645 265.968 57.3049 265.968 58.0445C265.968 58.8022 266.083 59.4561 266.313 60.0064C266.543 60.5566 266.868 60.9828 267.287 61.2849C267.711 61.5871 268.21 61.7382 268.782 61.7382C269.166 61.7382 269.513 61.6683 269.824 61.5285C270.14 61.3841 270.404 61.1789 270.616 60.9129C270.832 60.6468 270.983 60.3266 271.069 59.9522H273.038C272.965 60.6242 272.747 61.224 272.381 61.7517C272.016 62.2794 271.527 62.6943 270.913 62.9965C270.305 63.2986 269.59 63.4497 268.769 63.4497ZM280.051 52.8491V54.4727H274.375V52.8491H280.051ZM275.897 50.3596H277.92V60.189C277.92 60.5814 277.979 60.8768 278.096 61.0752C278.213 61.2691 278.364 61.4022 278.549 61.4743C278.739 61.542 278.944 61.5758 279.165 61.5758C279.327 61.5758 279.469 61.5645 279.591 61.542C279.713 61.5194 279.808 61.5014 279.875 61.4879L280.24 63.1588C280.123 63.2039 279.956 63.249 279.74 63.2941C279.523 63.3437 279.253 63.3708 278.928 63.3753C278.396 63.3843 277.9 63.2896 277.44 63.0912C276.98 62.8927 276.608 62.586 276.324 62.1711C276.039 61.7562 275.897 61.2353 275.897 60.6084V50.3596ZM282.289 63.24V52.8491H284.311V63.24H282.289ZM283.31 51.2458C282.958 51.2458 282.656 51.1285 282.404 50.894C282.156 50.655 282.031 50.3709 282.031 50.0416C282.031 49.7079 282.156 49.4238 282.404 49.1893C282.656 48.9502 282.958 48.8307 283.31 48.8307C283.662 48.8307 283.962 48.9502 284.21 49.1893C284.462 49.4238 284.589 49.7079 284.589 50.0416C284.589 50.3709 284.462 50.655 284.21 50.894C283.962 51.1285 283.662 51.2458 283.31 51.2458ZM295.922 52.8491L292.153 63.24H289.989L286.214 52.8491H288.385L291.017 60.8452H291.125L293.75 52.8491H295.922ZM297.822 63.24V52.8491H299.845V63.24H297.822ZM298.844 51.2458C298.492 51.2458 298.19 51.1285 297.937 50.894C297.689 50.655 297.565 50.3709 297.565 50.0416C297.565 49.7079 297.689 49.4238 297.937 49.1893C298.19 48.9502 298.492 48.8307 298.844 48.8307C299.196 48.8307 299.496 48.9502 299.744 49.1893C299.996 49.4238 300.123 49.7079 300.123 50.0416C300.123 50.3709 299.996 50.655 299.744 50.894C299.496 51.1285 299.196 51.2458 298.844 51.2458ZM307.417 52.8491V54.4727H301.741V52.8491H307.417ZM303.263 50.3596H305.286V60.189C305.286 60.5814 305.345 60.8768 305.462 61.0752C305.579 61.2691 305.73 61.4022 305.915 61.4743C306.104 61.542 306.31 61.5758 306.531 61.5758C306.693 61.5758 306.835 61.5645 306.957 61.542C307.079 61.5194 307.173 61.5014 307.241 61.4879L307.606 63.1588C307.489 63.2039 307.322 63.249 307.106 63.2941C306.889 63.3437 306.619 63.3708 306.294 63.3753C305.762 63.3843 305.266 63.2896 304.806 63.0912C304.346 62.8927 303.973 62.586 303.689 62.1711C303.405 61.7562 303.263 61.2353 303.263 60.6084V50.3596ZM309.654 63.24V52.8491H311.677V63.24H309.654ZM310.676 51.2458C310.324 51.2458 310.022 51.1285 309.769 50.894C309.521 50.655 309.397 50.3709 309.397 50.0416C309.397 49.7079 309.521 49.4238 309.769 49.1893C310.022 48.9502 310.324 48.8307 310.676 48.8307C311.028 48.8307 311.327 48.9502 311.576 49.1893C311.828 49.4238 311.954 49.7079 311.954 50.0416C311.954 50.3709 311.828 50.655 311.576 50.894C311.327 51.1285 311.028 51.2458 310.676 51.2458ZM318.877 63.4497C317.853 63.4497 316.971 63.231 316.231 62.7935C315.496 62.3515 314.928 61.7314 314.527 60.9332C314.13 60.1304 313.931 59.1901 313.931 58.1122C313.931 57.0478 314.13 56.1098 314.527 55.298C314.928 54.4862 315.487 53.8525 316.204 53.397C316.926 52.9415 317.769 52.7138 318.735 52.7138C319.321 52.7138 319.889 52.8107 320.439 53.0047C320.989 53.1986 321.483 53.503 321.921 53.9179C322.358 54.3329 322.703 54.8718 322.956 55.5348C323.208 56.1932 323.335 56.9937 323.335 57.9363V58.6534H315.075V57.138H321.353C321.353 56.6059 321.244 56.1346 321.028 55.7242C320.811 55.3093 320.507 54.9823 320.115 54.7433C319.727 54.5042 319.271 54.3847 318.748 54.3847C318.18 54.3847 317.684 54.5245 317.26 54.8041C316.84 55.0792 316.516 55.44 316.286 55.8865C316.06 56.3285 315.947 56.8088 315.947 57.3275V58.5113C315.947 59.2058 316.069 59.7966 316.313 60.2837C316.561 60.7708 316.906 61.1429 317.348 61.3999C317.79 61.6525 318.306 61.7788 318.897 61.7788C319.28 61.7788 319.63 61.7246 319.945 61.6164C320.261 61.5037 320.534 61.3368 320.764 61.1158C320.994 60.8948 321.17 60.622 321.292 60.2973L323.206 60.6423C323.053 61.206 322.778 61.6998 322.381 62.1238C321.988 62.5432 321.495 62.8702 320.899 63.1047C320.308 63.3347 319.634 63.4497 318.877 63.4497ZM333.365 55.3859L331.532 55.7106C331.455 55.4761 331.334 55.2529 331.167 55.0409C331.004 54.8289 330.783 54.6553 330.504 54.52C330.224 54.3847 329.875 54.3171 329.455 54.3171C328.882 54.3171 328.404 54.4456 328.021 54.7027C327.638 54.9552 327.446 55.2822 327.446 55.6836C327.446 56.0308 327.575 56.3105 327.832 56.5224C328.089 56.7344 328.504 56.908 329.076 57.0433L330.727 57.4222C331.683 57.6432 332.396 57.9837 332.865 58.4437C333.334 58.9037 333.568 59.5012 333.568 60.2364C333.568 60.8587 333.388 61.4135 333.027 61.9005C332.671 62.3831 332.172 62.7619 331.532 63.037C330.896 63.3121 330.159 63.4497 329.32 63.4497C328.156 63.4497 327.207 63.2017 326.472 62.7056C325.737 62.205 325.286 61.4946 325.119 60.5746L327.074 60.277C327.196 60.7866 327.446 61.1722 327.825 61.4338C328.204 61.6908 328.698 61.8194 329.306 61.8194C329.969 61.8194 330.499 61.6818 330.896 61.4067C331.293 61.1271 331.491 60.7866 331.491 60.3852C331.491 60.0605 331.37 59.7876 331.126 59.5666C330.887 59.3457 330.52 59.1788 330.023 59.066L328.265 58.6804C327.295 58.4595 326.578 58.1077 326.113 57.6251C325.653 57.1425 325.423 56.5315 325.423 55.7918C325.423 55.1785 325.595 54.6418 325.937 54.1818C326.28 53.7218 326.754 53.3632 327.358 53.1061C327.962 52.8446 328.655 52.7138 329.435 52.7138C330.558 52.7138 331.442 52.9573 332.087 53.4444C332.732 53.927 333.158 54.5741 333.365 55.3859Z" fill="black"/>
</g>
<g filter="url(#filter1_d_2257_191)">
<rect x="84" y="124" width="381" height="130.492" rx="15.24" fill="white"/>
<rect x="103.764" y="192.818" width="107.156" height="36.6305" rx="6.90562" stroke="#31AC12" stroke-width="1.42875"/>
<rect x="221.398" y="192.818" width="107.156" height="36.6305" rx="6.90562" stroke="#BDD719" stroke-width="1.42875"/>
<rect x="339.032" y="192.818" width="107.156" height="36.6305" rx="6.90562" stroke="#CFC823" stroke-width="1.42875"/>
<path d="M117.839 217.104V206.02H119.181V215.913H124.333V217.104H117.839ZM126.019 220.221C125.802 220.221 125.609 220.203 125.44 220.167C125.27 220.134 125.153 220.102 125.088 220.069L125.413 218.944C125.723 219.023 125.997 219.052 126.235 219.03C126.474 219.009 126.685 218.902 126.869 218.711C127.056 218.523 127.228 218.219 127.383 217.796L127.621 217.147L124.547 208.791H125.932L128.227 215.415H128.314L130.608 208.791H131.994L128.465 218.316C128.306 218.745 128.11 219.101 127.875 219.382C127.641 219.667 127.368 219.878 127.058 220.015C126.751 220.152 126.405 220.221 126.019 220.221ZM133.679 217.104V208.791H134.957V217.104H133.679ZM134.329 207.406C134.08 207.406 133.865 207.321 133.685 207.151C133.508 206.982 133.42 206.778 133.42 206.54C133.42 206.302 133.508 206.098 133.685 205.928C133.865 205.759 134.08 205.674 134.329 205.674C134.578 205.674 134.791 205.759 134.968 205.928C135.148 206.098 135.238 206.302 135.238 206.54C135.238 206.778 135.148 206.982 134.968 207.151C134.791 207.321 134.578 207.406 134.329 207.406ZM138.573 212.103V217.104H137.296V208.791H138.53V210.09H138.638C138.833 209.668 139.129 209.329 139.526 209.072C139.923 208.813 140.435 208.683 141.063 208.683C141.626 208.683 142.118 208.798 142.54 209.029C142.962 209.256 143.291 209.603 143.525 210.068C143.76 210.53 143.877 211.115 143.877 211.822V217.104H142.6V211.908C142.6 211.255 142.43 210.747 142.091 210.382C141.752 210.014 141.286 209.83 140.695 209.83C140.287 209.83 139.923 209.919 139.602 210.095C139.284 210.272 139.033 210.53 138.849 210.869C138.665 211.208 138.573 211.62 138.573 212.103ZM149.566 220.394C148.949 220.394 148.419 220.315 147.975 220.156C147.531 220.001 147.162 219.795 146.866 219.539C146.573 219.287 146.341 219.016 146.168 218.727L147.185 218.013C147.3 218.164 147.447 218.338 147.623 218.533C147.8 218.731 148.042 218.902 148.349 219.047C148.659 219.195 149.065 219.269 149.566 219.269C150.237 219.269 150.791 219.106 151.228 218.781C151.664 218.457 151.883 217.948 151.883 217.255V215.567H151.774C151.68 215.718 151.547 215.906 151.374 216.13C151.204 216.35 150.959 216.546 150.638 216.72C150.32 216.889 149.891 216.974 149.35 216.974C148.679 216.974 148.076 216.815 147.542 216.498C147.012 216.18 146.591 215.718 146.281 215.112C145.975 214.506 145.821 213.77 145.821 212.904C145.821 212.053 145.971 211.311 146.27 210.68C146.57 210.045 146.987 209.554 147.521 209.208C148.054 208.858 148.671 208.683 149.371 208.683C149.913 208.683 150.342 208.773 150.659 208.953C150.981 209.13 151.226 209.332 151.395 209.56C151.569 209.783 151.702 209.967 151.796 210.112H151.926V208.791H153.16V217.342C153.16 218.056 152.997 218.637 152.673 219.085C152.352 219.536 151.919 219.866 151.374 220.075C150.833 220.288 150.23 220.394 149.566 220.394ZM149.523 215.827C150.035 215.827 150.468 215.709 150.822 215.475C151.175 215.24 151.444 214.903 151.628 214.463C151.812 214.023 151.904 213.496 151.904 212.882C151.904 212.284 151.814 211.755 151.634 211.297C151.453 210.839 151.186 210.48 150.833 210.22C150.479 209.96 150.042 209.83 149.523 209.83C148.982 209.83 148.531 209.967 148.17 210.241C147.813 210.516 147.544 210.884 147.364 211.345C147.187 211.807 147.098 212.32 147.098 212.882C147.098 213.46 147.189 213.97 147.369 214.414C147.553 214.854 147.824 215.201 148.181 215.453C148.542 215.702 148.989 215.827 149.523 215.827ZM162.923 217.277C162.23 217.277 161.619 217.102 161.088 216.752C160.558 216.398 160.143 215.901 159.843 215.258C159.544 214.612 159.394 213.849 159.394 212.969C159.394 212.096 159.544 211.338 159.843 210.696C160.143 210.054 160.56 209.558 161.094 209.208C161.628 208.858 162.245 208.683 162.945 208.683C163.486 208.683 163.913 208.773 164.227 208.953C164.545 209.13 164.786 209.332 164.952 209.56C165.122 209.783 165.254 209.967 165.347 210.112H165.456V206.02H166.733V217.104H165.499V215.827H165.347C165.254 215.978 165.12 216.169 164.947 216.4C164.774 216.628 164.527 216.831 164.205 217.012C163.884 217.189 163.457 217.277 162.923 217.277ZM163.096 216.13C163.608 216.13 164.041 215.996 164.395 215.729C164.748 215.459 165.017 215.085 165.201 214.609C165.385 214.129 165.477 213.575 165.477 212.947C165.477 212.327 165.387 211.784 165.207 211.318C165.026 210.849 164.759 210.485 164.406 210.225C164.052 209.962 163.616 209.83 163.096 209.83C162.555 209.83 162.104 209.969 161.743 210.247C161.386 210.521 161.117 210.894 160.937 211.367C160.76 211.836 160.672 212.363 160.672 212.947C160.672 213.539 160.762 214.077 160.942 214.56C161.126 215.04 161.397 215.422 161.754 215.707C162.115 215.989 162.562 216.13 163.096 216.13ZM172.626 217.277C171.876 217.277 171.218 217.098 170.651 216.741C170.088 216.384 169.648 215.884 169.331 215.242C169.017 214.6 168.86 213.849 168.86 212.991C168.86 212.125 169.017 211.369 169.331 210.723C169.648 210.077 170.088 209.576 170.651 209.219C171.218 208.861 171.876 208.683 172.626 208.683C173.377 208.683 174.034 208.861 174.596 209.219C175.163 209.576 175.603 210.077 175.917 210.723C176.234 211.369 176.393 212.125 176.393 212.991C176.393 213.849 176.234 214.6 175.917 215.242C175.603 215.884 175.163 216.384 174.596 216.741C174.034 217.098 173.377 217.277 172.626 217.277ZM172.626 216.13C173.197 216.13 173.666 215.983 174.034 215.691C174.402 215.399 174.674 215.015 174.851 214.539C175.028 214.062 175.116 213.546 175.116 212.991C175.116 212.435 175.028 211.917 174.851 211.437C174.674 210.958 174.402 210.57 174.034 210.274C173.666 209.978 173.197 209.83 172.626 209.83C172.056 209.83 171.587 209.978 171.219 210.274C170.851 210.57 170.579 210.958 170.402 211.437C170.225 211.917 170.137 212.435 170.137 212.991C170.137 213.546 170.225 214.062 170.402 214.539C170.579 215.015 170.851 215.399 171.219 215.691C171.587 215.983 172.056 216.13 172.626 216.13ZM179.943 217.104L177.411 208.791H178.753L180.55 215.155H180.636L182.411 208.791H183.775L185.529 215.134H185.615L187.412 208.791H188.754L186.221 217.104H184.966L183.147 210.718H183.017L181.199 217.104H179.943ZM191.72 212.103V217.104H190.443V208.791H191.676V210.09H191.785C191.98 209.668 192.275 209.329 192.672 209.072C193.069 208.813 193.581 208.683 194.209 208.683C194.772 208.683 195.265 208.798 195.687 209.029C196.109 209.256 196.437 209.603 196.672 210.068C196.906 210.53 197.023 211.115 197.023 211.822V217.104H195.746V211.908C195.746 211.255 195.577 210.747 195.238 210.382C194.898 210.014 194.433 209.83 193.841 209.83C193.434 209.83 193.069 209.919 192.748 210.095C192.431 210.272 192.18 210.53 191.996 210.869C191.812 211.208 191.72 211.62 191.72 212.103Z" fill="black"/>
<path d="M259.709 217.104V206.02H263.584C264.356 206.02 264.993 206.154 265.495 206.421C265.996 206.684 266.369 207.039 266.615 207.487C266.86 207.931 266.983 208.423 266.983 208.964C266.983 209.44 266.898 209.834 266.728 210.144C266.562 210.454 266.342 210.7 266.068 210.88C265.798 211.06 265.504 211.194 265.186 211.281V211.389C265.525 211.41 265.866 211.529 266.209 211.746C266.552 211.962 266.839 212.273 267.069 212.677C267.3 213.081 267.416 213.575 267.416 214.16C267.416 214.715 267.289 215.215 267.037 215.659C266.784 216.103 266.386 216.454 265.841 216.714C265.296 216.974 264.587 217.104 263.714 217.104H259.709ZM261.051 215.913H263.714C264.591 215.913 265.213 215.744 265.581 215.404C265.953 215.062 266.139 214.647 266.139 214.16C266.139 213.784 266.043 213.438 265.852 213.121C265.661 212.799 265.388 212.543 265.035 212.352C264.681 212.157 264.262 212.06 263.779 212.06H261.051V215.913ZM261.051 210.891H263.541C263.945 210.891 264.309 210.811 264.634 210.653C264.962 210.494 265.222 210.27 265.413 209.982C265.608 209.693 265.706 209.354 265.706 208.964C265.706 208.477 265.536 208.064 265.197 207.725C264.858 207.382 264.32 207.211 263.584 207.211H261.051V210.891ZM271.894 217.299C271.367 217.299 270.889 217.199 270.46 217.001C270.031 216.799 269.69 216.508 269.437 216.13C269.185 215.747 269.058 215.285 269.058 214.744C269.058 214.268 269.152 213.882 269.34 213.586C269.527 213.287 269.778 213.052 270.092 212.882C270.406 212.713 270.752 212.587 271.131 212.504C271.514 212.417 271.898 212.348 272.284 212.298C272.789 212.233 273.198 212.184 273.512 212.152C273.83 212.116 274.061 212.056 274.205 211.973C274.353 211.89 274.427 211.746 274.427 211.54V211.497C274.427 210.963 274.281 210.548 273.989 210.252C273.7 209.956 273.262 209.808 272.673 209.808C272.064 209.808 271.586 209.942 271.239 210.209C270.893 210.476 270.649 210.761 270.509 211.064L269.296 210.631C269.513 210.126 269.802 209.733 270.162 209.451C270.527 209.166 270.924 208.968 271.353 208.856C271.786 208.741 272.212 208.683 272.63 208.683C272.897 208.683 273.204 208.715 273.55 208.78C273.9 208.842 274.238 208.97 274.562 209.164C274.891 209.359 275.163 209.653 275.379 210.047C275.596 210.44 275.704 210.967 275.704 211.627V217.104H274.427V215.978H274.362C274.275 216.158 274.131 216.352 273.929 216.557C273.727 216.763 273.458 216.938 273.123 217.082C272.787 217.226 272.378 217.299 271.894 217.299ZM272.089 216.151C272.594 216.151 273.02 216.052 273.366 215.854C273.716 215.655 273.98 215.399 274.156 215.085C274.337 214.771 274.427 214.441 274.427 214.095V212.926C274.373 212.991 274.254 213.05 274.07 213.104C273.889 213.155 273.68 213.2 273.442 213.24C273.207 213.276 272.978 213.308 272.755 213.337C272.535 213.362 272.356 213.384 272.219 213.402C271.887 213.445 271.577 213.516 271.288 213.613C271.003 213.707 270.772 213.849 270.595 214.041C270.422 214.228 270.336 214.484 270.336 214.809C270.336 215.253 270.5 215.588 270.828 215.816C271.16 216.039 271.58 216.151 272.089 216.151ZM281.651 208.791V209.873H277.343V208.791H281.651ZM278.598 206.799H279.875V214.723C279.875 215.083 279.928 215.354 280.032 215.534C280.141 215.711 280.278 215.83 280.444 215.891C280.613 215.949 280.792 215.978 280.979 215.978C281.12 215.978 281.236 215.971 281.326 215.956C281.416 215.938 281.488 215.924 281.542 215.913L281.802 217.06C281.715 217.093 281.595 217.125 281.439 217.158C281.284 217.194 281.088 217.212 280.85 217.212C280.489 217.212 280.135 217.134 279.789 216.979C279.446 216.824 279.161 216.588 278.934 216.27C278.71 215.953 278.598 215.552 278.598 215.069V206.799ZM285.028 212.103V217.104H283.75V206.02H285.028V210.09H285.136C285.331 209.661 285.623 209.32 286.013 209.067C286.406 208.811 286.929 208.683 287.582 208.683C288.148 208.683 288.645 208.796 289.07 209.024C289.496 209.247 289.826 209.592 290.061 210.057C290.299 210.519 290.418 211.107 290.418 211.822V217.104H289.141V211.908C289.141 211.248 288.969 210.738 288.626 210.377C288.287 210.012 287.817 209.83 287.214 209.83C286.795 209.83 286.42 209.919 286.088 210.095C285.76 210.272 285.5 210.53 285.309 210.869C285.121 211.208 285.028 211.62 285.028 212.103Z" fill="black"/>
<path d="M372.7 206.02H374.301L378.068 215.22H378.198L381.965 206.02H383.567V217.104H382.311V208.683H382.203L378.739 217.104H377.527L374.063 208.683H373.955V217.104H372.7V206.02ZM391.323 213.705V208.791H392.601V217.104H391.323V215.697H391.237C391.042 216.119 390.739 216.478 390.328 216.774C389.916 217.066 389.397 217.212 388.769 217.212C388.249 217.212 387.788 217.098 387.383 216.871C386.979 216.64 386.662 216.294 386.431 215.832C386.2 215.367 386.085 214.78 386.085 214.073V208.791H387.362V213.986C387.362 214.593 387.531 215.076 387.871 215.437C388.213 215.798 388.65 215.978 389.18 215.978C389.498 215.978 389.821 215.897 390.149 215.735C390.481 215.572 390.759 215.323 390.982 214.988C391.21 214.652 391.323 214.225 391.323 213.705ZM400.828 210.653L399.681 210.977C399.609 210.786 399.502 210.6 399.361 210.42C399.224 210.236 399.037 210.084 398.799 209.965C398.56 209.846 398.256 209.787 397.884 209.787C397.375 209.787 396.951 209.904 396.612 210.139C396.277 210.37 396.109 210.664 396.109 211.021C396.109 211.338 396.224 211.589 396.455 211.773C396.686 211.957 397.047 212.11 397.538 212.233L398.771 212.536C399.515 212.716 400.069 212.992 400.433 213.364C400.797 213.732 400.98 214.207 400.98 214.787C400.98 215.264 400.842 215.689 400.568 216.065C400.298 216.44 399.919 216.736 399.432 216.952C398.945 217.169 398.378 217.277 397.732 217.277C396.885 217.277 396.183 217.093 395.627 216.725C395.072 216.357 394.72 215.819 394.572 215.112L395.784 214.809C395.9 215.256 396.118 215.592 396.439 215.816C396.764 216.039 397.188 216.151 397.711 216.151C398.306 216.151 398.779 216.025 399.129 215.772C399.482 215.516 399.659 215.21 399.659 214.852C399.659 214.564 399.558 214.322 399.356 214.127C399.154 213.929 398.844 213.781 398.425 213.683L397.04 213.359C396.278 213.178 395.719 212.899 395.362 212.52C395.008 212.137 394.832 211.659 394.832 211.086C394.832 210.617 394.963 210.202 395.227 209.841C395.494 209.48 395.856 209.197 396.314 208.991C396.776 208.786 397.299 208.683 397.884 208.683C398.707 208.683 399.352 208.863 399.821 209.224C400.294 209.585 400.63 210.061 400.828 210.653ZM402.902 217.104V208.791H404.179V217.104H402.902ZM403.552 207.406C403.303 207.406 403.088 207.321 402.908 207.151C402.731 206.982 402.642 206.778 402.642 206.54C402.642 206.302 402.731 206.098 402.908 205.928C403.088 205.759 403.303 205.674 403.552 205.674C403.801 205.674 404.013 205.759 404.19 205.928C404.371 206.098 404.461 206.302 404.461 206.54C404.461 206.778 404.371 206.982 404.19 207.151C404.013 207.321 403.801 207.406 403.552 207.406ZM409.896 217.277C409.116 217.277 408.445 217.093 407.882 216.725C407.32 216.357 406.887 215.85 406.584 215.204C406.281 214.558 406.129 213.821 406.129 212.991C406.129 212.146 406.284 211.401 406.594 210.756C406.908 210.106 407.345 209.599 407.904 209.235C408.467 208.867 409.124 208.683 409.874 208.683C410.459 208.683 410.985 208.791 411.454 209.008C411.923 209.224 412.308 209.527 412.607 209.917C412.907 210.306 413.092 210.761 413.165 211.281H411.887C411.79 210.902 411.573 210.566 411.238 210.274C410.906 209.978 410.459 209.83 409.896 209.83C409.398 209.83 408.961 209.96 408.586 210.22C408.214 210.476 407.924 210.839 407.715 211.308C407.509 211.773 407.406 212.32 407.406 212.947C407.406 213.59 407.507 214.149 407.709 214.625C407.915 215.101 408.204 215.471 408.575 215.735C408.95 215.998 409.391 216.13 409.896 216.13C410.228 216.13 410.529 216.072 410.8 215.956C411.07 215.841 411.299 215.675 411.487 215.459C411.674 215.242 411.808 214.982 411.887 214.679H413.165C413.092 215.17 412.914 215.612 412.629 216.005C412.347 216.395 411.974 216.705 411.508 216.936C411.047 217.163 410.509 217.277 409.896 217.277Z" fill="black"/>
<path d="M158.057 165.24V151.385H166.743V153.185H160.148V157.406H166.29V159.199H160.148V163.441H166.825V165.24H158.057ZM171.396 159.07V165.24H169.373V154.849H171.315V156.54H171.443C171.682 155.99 172.057 155.548 172.566 155.214C173.08 154.881 173.728 154.714 174.508 154.714C175.216 154.714 175.836 154.863 176.368 155.16C176.9 155.453 177.313 155.891 177.606 156.473C177.899 157.054 178.046 157.774 178.046 158.631V165.24H176.023V158.874C176.023 158.121 175.827 157.532 175.435 157.109C175.042 156.68 174.503 156.466 173.818 156.466C173.349 156.466 172.932 156.567 172.566 156.77C172.205 156.973 171.919 157.271 171.707 157.663C171.5 158.051 171.396 158.52 171.396 159.07ZM185.237 165.45C184.213 165.45 183.332 165.231 182.592 164.794C181.857 164.352 181.289 163.731 180.887 162.933C180.49 162.13 180.292 161.19 180.292 160.112C180.292 159.048 180.49 158.11 180.887 157.298C181.289 156.486 181.848 155.853 182.565 155.397C183.286 154.942 184.13 154.714 185.095 154.714C185.681 154.714 186.249 154.811 186.8 155.005C187.35 155.199 187.844 155.503 188.281 155.918C188.719 156.333 189.064 156.872 189.316 157.535C189.569 158.193 189.695 158.994 189.695 159.936V160.653H181.435V159.138H187.713C187.713 158.606 187.605 158.135 187.388 157.724C187.172 157.309 186.867 156.982 186.475 156.743C186.087 156.504 185.632 156.385 185.108 156.385C184.54 156.385 184.044 156.525 183.62 156.804C183.201 157.079 182.876 157.44 182.646 157.887C182.421 158.329 182.308 158.809 182.308 159.327V160.511C182.308 161.206 182.43 161.797 182.673 162.284C182.921 162.771 183.266 163.143 183.708 163.4C184.15 163.652 184.666 163.779 185.257 163.779C185.641 163.779 185.99 163.725 186.306 163.616C186.622 163.504 186.894 163.337 187.124 163.116C187.354 162.895 187.53 162.622 187.652 162.297L189.567 162.642C189.413 163.206 189.138 163.7 188.741 164.124C188.349 164.543 187.855 164.87 187.26 165.105C186.669 165.335 185.995 165.45 185.237 165.45ZM191.939 165.24V154.849H193.894V156.5H194.003C194.192 155.94 194.526 155.501 195.004 155.181C195.486 154.856 196.032 154.693 196.641 154.693C196.767 154.693 196.916 154.698 197.087 154.707C197.263 154.716 197.401 154.727 197.5 154.741V156.676C197.419 156.653 197.275 156.628 197.067 156.601C196.86 156.57 196.652 156.554 196.445 156.554C195.967 156.554 195.54 156.655 195.166 156.858C194.796 157.057 194.503 157.334 194.287 157.69C194.07 158.042 193.962 158.444 193.962 158.895V165.24H191.939ZM203.235 169.353C202.41 169.353 201.699 169.245 201.104 169.028C200.513 168.812 200.031 168.525 199.656 168.169C199.282 167.813 199.002 167.423 198.818 166.999L200.556 166.282C200.678 166.48 200.84 166.69 201.043 166.911C201.251 167.136 201.53 167.328 201.882 167.486C202.238 167.644 202.696 167.723 203.255 167.723C204.022 167.723 204.656 167.536 205.156 167.161C205.657 166.791 205.907 166.201 205.907 165.389V163.346H205.779C205.657 163.567 205.481 163.813 205.251 164.083C205.025 164.354 204.714 164.588 204.317 164.787C203.921 164.985 203.404 165.084 202.768 165.084C201.947 165.084 201.208 164.893 200.549 164.509C199.895 164.122 199.377 163.551 198.993 162.798C198.615 162.04 198.425 161.109 198.425 160.004C198.425 158.899 198.612 157.952 198.987 157.163C199.365 156.373 199.884 155.769 200.543 155.35C201.201 154.926 201.947 154.714 202.782 154.714C203.427 154.714 203.948 154.822 204.344 155.038C204.741 155.25 205.05 155.499 205.271 155.783C205.497 156.067 205.67 156.317 205.792 156.534H205.941V154.849H207.923V165.47C207.923 166.363 207.716 167.096 207.301 167.669C206.886 168.241 206.324 168.665 205.616 168.94C204.913 169.216 204.119 169.353 203.235 169.353ZM203.215 163.407C203.797 163.407 204.288 163.271 204.689 163.001C205.095 162.726 205.402 162.333 205.609 161.824C205.821 161.31 205.927 160.694 205.927 159.977C205.927 159.278 205.824 158.662 205.616 158.13C205.409 157.598 205.104 157.183 204.703 156.885C204.302 156.583 203.806 156.432 203.215 156.432C202.606 156.432 202.099 156.59 201.693 156.906C201.287 157.217 200.98 157.641 200.773 158.177C200.57 158.714 200.468 159.314 200.468 159.977C200.468 160.658 200.572 161.255 200.779 161.77C200.987 162.284 201.293 162.685 201.699 162.974C202.11 163.262 202.615 163.407 203.215 163.407ZM211.914 169.137C211.612 169.137 211.337 169.112 211.089 169.062C210.841 169.017 210.656 168.967 210.534 168.913L211.021 167.256C211.391 167.355 211.72 167.398 212.009 167.384C212.298 167.371 212.553 167.263 212.774 167.06C212.999 166.857 213.197 166.525 213.369 166.065L213.619 165.375L209.817 154.849H211.982L214.614 162.913H214.722L217.353 154.849H219.525L215.243 166.627C215.044 167.168 214.792 167.626 214.485 168C214.178 168.379 213.813 168.663 213.389 168.852C212.965 169.042 212.474 169.137 211.914 169.137ZM226.63 165.24V151.385H228.652V156.534H228.774C228.892 156.317 229.061 156.067 229.282 155.783C229.503 155.499 229.809 155.25 230.202 155.038C230.594 154.822 231.113 154.714 231.758 154.714C232.596 154.714 233.345 154.926 234.004 155.35C234.662 155.774 235.178 156.385 235.553 157.183C235.932 157.981 236.121 158.942 236.121 160.065C236.121 161.188 235.934 162.151 235.559 162.953C235.185 163.752 234.671 164.367 234.017 164.8C233.363 165.229 232.617 165.443 231.778 165.443C231.146 165.443 230.63 165.337 230.229 165.125C229.832 164.913 229.521 164.665 229.295 164.381C229.07 164.097 228.896 163.844 228.774 163.623H228.605V165.24H226.63ZM228.612 160.045C228.612 160.775 228.718 161.416 228.93 161.966C229.142 162.516 229.448 162.947 229.85 163.258C230.251 163.565 230.743 163.718 231.325 163.718C231.929 163.718 232.434 163.558 232.84 163.238C233.246 162.913 233.553 162.473 233.76 161.918C233.972 161.364 234.078 160.739 234.078 160.045C234.078 159.359 233.974 158.743 233.767 158.198C233.564 157.652 233.257 157.221 232.847 156.906C232.441 156.59 231.933 156.432 231.325 156.432C230.738 156.432 230.242 156.583 229.836 156.885C229.435 157.187 229.131 157.609 228.923 158.15C228.716 158.692 228.612 159.323 228.612 160.045ZM242.769 165.45C241.795 165.45 240.945 165.226 240.219 164.78C239.493 164.333 238.929 163.709 238.528 162.906C238.126 162.103 237.926 161.165 237.926 160.092C237.926 159.014 238.126 158.071 238.528 157.264C238.929 156.457 239.493 155.83 240.219 155.384C240.945 154.937 241.795 154.714 242.769 154.714C243.743 154.714 244.593 154.937 245.32 155.384C246.046 155.83 246.609 156.457 247.011 157.264C247.412 158.071 247.613 159.014 247.613 160.092C247.613 161.165 247.412 162.103 247.011 162.906C246.609 163.709 246.046 164.333 245.32 164.78C244.593 165.226 243.743 165.45 242.769 165.45ZM242.776 163.752C243.407 163.752 243.93 163.585 244.345 163.251C244.76 162.917 245.067 162.473 245.265 161.918C245.468 161.364 245.57 160.753 245.57 160.085C245.57 159.422 245.468 158.813 245.265 158.259C245.067 157.699 244.76 157.251 244.345 156.912C243.93 156.574 243.407 156.405 242.776 156.405C242.14 156.405 241.612 156.574 241.193 156.912C240.778 157.251 240.469 157.699 240.266 158.259C240.068 158.813 239.969 159.422 239.969 160.085C239.969 160.753 240.068 161.364 240.266 161.918C240.469 162.473 240.778 162.917 241.193 163.251C241.612 163.585 242.14 163.752 242.776 163.752ZM254.248 165.45C253.273 165.45 252.423 165.226 251.697 164.78C250.971 164.333 250.407 163.709 250.006 162.906C249.605 162.103 249.404 161.165 249.404 160.092C249.404 159.014 249.605 158.071 250.006 157.264C250.407 156.457 250.971 155.83 251.697 155.384C252.423 154.937 253.273 154.714 254.248 154.714C255.222 154.714 256.072 154.937 256.798 155.384C257.524 155.83 258.088 156.457 258.489 157.264C258.891 158.071 259.091 159.014 259.091 160.092C259.091 161.165 258.891 162.103 258.489 162.906C258.088 163.709 257.524 164.333 256.798 164.78C256.072 165.226 255.222 165.45 254.248 165.45ZM254.254 163.752C254.886 163.752 255.409 163.585 255.824 163.251C256.239 162.917 256.545 162.473 256.744 161.918C256.947 161.364 257.048 160.753 257.048 160.085C257.048 159.422 256.947 158.813 256.744 158.259C256.545 157.699 256.239 157.251 255.824 156.912C255.409 156.574 254.886 156.405 254.254 156.405C253.618 156.405 253.091 156.574 252.671 156.912C252.256 157.251 251.947 157.699 251.745 158.259C251.546 158.813 251.447 159.422 251.447 160.085C251.447 160.753 251.546 161.364 251.745 161.918C251.947 162.473 252.256 162.917 252.671 163.251C253.091 163.585 253.618 163.752 254.254 163.752ZM269.135 157.386L267.302 157.711C267.225 157.476 267.104 157.253 266.937 157.041C266.774 156.829 266.553 156.655 266.274 156.52C265.994 156.385 265.645 156.317 265.225 156.317C264.653 156.317 264.174 156.446 263.791 156.703C263.408 156.955 263.216 157.282 263.216 157.684C263.216 158.031 263.345 158.31 263.602 158.522C263.859 158.734 264.274 158.908 264.846 159.043L266.497 159.422C267.453 159.643 268.166 159.984 268.635 160.444C269.104 160.904 269.338 161.501 269.338 162.236C269.338 162.859 269.158 163.413 268.797 163.901C268.441 164.383 267.943 164.762 267.302 165.037C266.666 165.312 265.929 165.45 265.09 165.45C263.926 165.45 262.977 165.202 262.242 164.706C261.507 164.205 261.056 163.495 260.889 162.575L262.844 162.277C262.966 162.787 263.216 163.172 263.595 163.434C263.974 163.691 264.468 163.819 265.076 163.819C265.739 163.819 266.269 163.682 266.666 163.407C267.063 163.127 267.262 162.787 267.262 162.385C267.262 162.06 267.14 161.788 266.896 161.567C266.657 161.346 266.29 161.179 265.794 161.066L264.035 160.68C263.065 160.459 262.348 160.108 261.883 159.625C261.423 159.143 261.193 158.531 261.193 157.792C261.193 157.178 261.365 156.642 261.708 156.182C262.05 155.722 262.524 155.363 263.128 155.106C263.733 154.845 264.425 154.714 265.205 154.714C266.328 154.714 267.212 154.957 267.857 155.444C268.502 155.927 268.928 156.574 269.135 157.386ZM276.413 154.849V156.473H270.737V154.849H276.413ZM272.259 152.36H274.282V162.189C274.282 162.581 274.34 162.877 274.458 163.075C274.575 163.269 274.726 163.402 274.911 163.474C275.1 163.542 275.306 163.576 275.527 163.576C275.689 163.576 275.831 163.565 275.953 163.542C276.075 163.519 276.169 163.501 276.237 163.488L276.602 165.159C276.485 165.204 276.318 165.249 276.102 165.294C275.885 165.344 275.615 165.371 275.29 165.375C274.758 165.384 274.262 165.29 273.802 165.091C273.342 164.893 272.969 164.586 272.685 164.171C272.401 163.756 272.259 163.235 272.259 162.608V152.36ZM278.65 165.24V154.849H280.673V165.24H278.65ZM279.672 153.246C279.32 153.246 279.018 153.129 278.765 152.894C278.517 152.655 278.393 152.371 278.393 152.042C278.393 151.708 278.517 151.424 278.765 151.189C279.018 150.95 279.32 150.831 279.672 150.831C280.024 150.831 280.323 150.95 280.572 151.189C280.824 151.424 280.95 151.708 280.95 152.042C280.95 152.371 280.824 152.655 280.572 152.894C280.323 153.129 280.024 153.246 279.672 153.246ZM285.417 159.07V165.24H283.394V154.849H285.336V156.54H285.464C285.703 155.99 286.078 155.548 286.587 155.214C287.101 154.881 287.749 154.714 288.529 154.714C289.237 154.714 289.857 154.863 290.389 155.16C290.921 155.453 291.334 155.891 291.627 156.473C291.92 157.054 292.067 157.774 292.067 158.631V165.24H290.044V158.874C290.044 158.121 289.848 157.532 289.456 157.109C289.063 156.68 288.524 156.466 287.839 156.466C287.37 156.466 286.953 156.567 286.587 156.77C286.226 156.973 285.94 157.271 285.728 157.663C285.521 158.051 285.417 158.52 285.417 159.07ZM299.136 169.353C298.311 169.353 297.6 169.245 297.005 169.028C296.414 168.812 295.932 168.525 295.557 168.169C295.183 167.813 294.904 167.423 294.719 166.999L296.457 166.282C296.579 166.48 296.741 166.69 296.944 166.911C297.152 167.136 297.431 167.328 297.783 167.486C298.139 167.644 298.597 167.723 299.156 167.723C299.923 167.723 300.557 167.536 301.057 167.161C301.558 166.791 301.808 166.201 301.808 165.389V163.346H301.68C301.558 163.567 301.382 163.813 301.152 164.083C300.927 164.354 300.615 164.588 300.219 164.787C299.822 164.985 299.305 165.084 298.669 165.084C297.849 165.084 297.109 164.893 296.45 164.509C295.797 164.122 295.278 163.551 294.895 162.798C294.516 162.04 294.326 161.109 294.326 160.004C294.326 158.899 294.513 157.952 294.888 157.163C295.267 156.373 295.785 155.769 296.444 155.35C297.102 154.926 297.849 154.714 298.683 154.714C299.328 154.714 299.849 154.822 300.246 155.038C300.642 155.25 300.951 155.499 301.172 155.783C301.398 156.067 301.571 156.317 301.693 156.534H301.842V154.849H303.824V165.47C303.824 166.363 303.617 167.096 303.202 167.669C302.787 168.241 302.225 168.665 301.517 168.94C300.814 169.216 300.02 169.353 299.136 169.353ZM299.116 163.407C299.698 163.407 300.189 163.271 300.591 163.001C300.996 162.726 301.303 162.333 301.511 161.824C301.723 161.31 301.829 160.694 301.829 159.977C301.829 159.278 301.725 158.662 301.517 158.13C301.31 157.598 301.005 157.183 300.604 156.885C300.203 156.583 299.707 156.432 299.116 156.432C298.507 156.432 298 156.59 297.594 156.906C297.188 157.217 296.881 157.641 296.674 158.177C296.471 158.714 296.369 159.314 296.369 159.977C296.369 160.658 296.473 161.255 296.68 161.77C296.888 162.284 297.195 162.685 297.6 162.974C298.011 163.262 298.516 163.407 299.116 163.407ZM314.602 165.47C313.944 165.47 313.349 165.348 312.816 165.105C312.284 164.857 311.863 164.498 311.551 164.029C311.245 163.56 311.091 162.985 311.091 162.304C311.091 161.718 311.204 161.235 311.43 160.856C311.655 160.477 311.96 160.178 312.343 159.957C312.726 159.736 313.155 159.569 313.628 159.456C314.102 159.343 314.584 159.258 315.076 159.199C315.698 159.127 316.203 159.068 316.591 159.023C316.979 158.973 317.261 158.895 317.437 158.786C317.613 158.678 317.701 158.502 317.701 158.259V158.211C317.701 157.62 317.534 157.163 317.2 156.838C316.871 156.513 316.379 156.351 315.725 156.351C315.044 156.351 314.508 156.502 314.115 156.804C313.727 157.102 313.459 157.433 313.31 157.799L311.409 157.366C311.635 156.734 311.964 156.225 312.397 155.837C312.835 155.444 313.337 155.16 313.906 154.984C314.474 154.804 315.071 154.714 315.698 154.714C316.113 154.714 316.553 154.763 317.017 154.863C317.487 154.957 317.924 155.133 318.33 155.39C318.74 155.647 319.076 156.015 319.338 156.493C319.599 156.967 319.73 157.582 319.73 158.34V165.24H317.755V163.819H317.674C317.543 164.081 317.347 164.338 317.085 164.591C316.824 164.843 316.488 165.053 316.077 165.22C315.667 165.387 315.175 165.47 314.602 165.47ZM315.042 163.846C315.601 163.846 316.079 163.736 316.476 163.515C316.878 163.294 317.182 163.005 317.39 162.649C317.602 162.288 317.708 161.903 317.708 161.492V160.153C317.635 160.225 317.496 160.293 317.288 160.356C317.085 160.414 316.853 160.466 316.591 160.511C316.33 160.552 316.075 160.59 315.827 160.626C315.579 160.658 315.371 160.685 315.204 160.707C314.812 160.757 314.454 160.841 314.129 160.958C313.809 161.075 313.552 161.244 313.358 161.465C313.168 161.682 313.074 161.97 313.074 162.331C313.074 162.832 313.258 163.211 313.628 163.468C313.998 163.72 314.469 163.846 315.042 163.846ZM326.801 165.45C325.796 165.45 324.93 165.222 324.204 164.766C323.482 164.306 322.927 163.673 322.539 162.866C322.151 162.058 321.958 161.134 321.958 160.092C321.958 159.037 322.156 158.105 322.553 157.298C322.95 156.486 323.509 155.853 324.231 155.397C324.952 154.942 325.802 154.714 326.781 154.714C327.57 154.714 328.274 154.86 328.892 155.154C329.509 155.442 330.008 155.848 330.387 156.371C330.77 156.894 330.998 157.505 331.07 158.204H329.101C328.993 157.717 328.745 157.298 328.357 156.946C327.974 156.594 327.46 156.419 326.815 156.419C326.251 156.419 325.757 156.567 325.333 156.865C324.914 157.158 324.587 157.578 324.352 158.123C324.118 158.664 324.001 159.305 324.001 160.045C324.001 160.802 324.116 161.456 324.346 162.006C324.576 162.557 324.9 162.983 325.32 163.285C325.744 163.587 326.242 163.738 326.815 163.738C327.198 163.738 327.545 163.668 327.857 163.528C328.172 163.384 328.436 163.179 328.648 162.913C328.865 162.647 329.016 162.327 329.101 161.952H331.07C330.998 162.624 330.779 163.224 330.414 163.752C330.048 164.279 329.559 164.694 328.946 164.996C328.337 165.299 327.622 165.45 326.801 165.45ZM338.083 154.849V156.473H332.408V154.849H338.083ZM333.93 152.36H335.952V162.189C335.952 162.581 336.011 162.877 336.128 163.075C336.246 163.269 336.397 163.402 336.582 163.474C336.771 163.542 336.976 163.576 337.197 163.576C337.36 163.576 337.502 163.565 337.623 163.542C337.745 163.519 337.84 163.501 337.908 163.488L338.273 165.159C338.156 165.204 337.989 165.249 337.772 165.294C337.556 165.344 337.285 165.371 336.96 165.375C336.428 165.384 335.932 165.29 335.472 165.091C335.012 164.893 334.64 164.586 334.356 164.171C334.072 163.756 333.93 163.235 333.93 162.608V152.36ZM340.321 165.24V154.849H342.344V165.24H340.321ZM341.342 153.246C340.991 153.246 340.688 153.129 340.436 152.894C340.188 152.655 340.064 152.371 340.064 152.042C340.064 151.708 340.188 151.424 340.436 151.189C340.688 150.95 340.991 150.831 341.342 150.831C341.694 150.831 341.994 150.95 342.242 151.189C342.495 151.424 342.621 151.708 342.621 152.042C342.621 152.371 342.495 152.655 342.242 152.894C341.994 153.129 341.694 153.246 341.342 153.246ZM353.954 154.849L350.186 165.24H348.021L344.246 154.849H346.418L349.049 162.845H349.158L351.782 154.849H353.954ZM355.855 165.24V154.849H357.878V165.24H355.855ZM356.876 153.246C356.525 153.246 356.222 153.129 355.97 152.894C355.722 152.655 355.598 152.371 355.598 152.042C355.598 151.708 355.722 151.424 355.97 151.189C356.222 150.95 356.525 150.831 356.876 150.831C357.228 150.831 357.528 150.95 357.776 151.189C358.029 151.424 358.155 151.708 358.155 152.042C358.155 152.371 358.029 152.655 357.776 152.894C357.528 153.129 357.228 153.246 356.876 153.246ZM365.449 154.849V156.473H359.773V154.849H365.449ZM361.296 152.36H363.318V162.189C363.318 162.581 363.377 162.877 363.494 163.075C363.611 163.269 363.762 163.402 363.947 163.474C364.137 163.542 364.342 163.576 364.563 163.576C364.725 163.576 364.867 163.565 364.989 163.542C365.111 163.519 365.206 163.501 365.273 163.488L365.639 165.159C365.521 165.204 365.354 165.249 365.138 165.294C364.922 165.344 364.651 165.371 364.326 165.375C363.794 165.384 363.298 165.29 362.838 165.091C362.378 164.893 362.006 164.586 361.722 164.171C361.438 163.756 361.296 163.235 361.296 162.608V152.36ZM367.687 165.24V154.849H369.709V165.24H367.687ZM368.708 153.246C368.356 153.246 368.054 153.129 367.802 152.894C367.554 152.655 367.43 152.371 367.43 152.042C367.43 151.708 367.554 151.424 367.802 151.189C368.054 150.95 368.356 150.831 368.708 150.831C369.06 150.831 369.36 150.95 369.608 151.189C369.861 151.424 369.987 151.708 369.987 152.042C369.987 152.371 369.861 152.655 369.608 152.894C369.36 153.129 369.06 153.246 368.708 153.246ZM376.909 165.45C375.885 165.45 375.004 165.231 374.264 164.794C373.529 164.352 372.961 163.731 372.559 162.933C372.162 162.13 371.964 161.19 371.964 160.112C371.964 159.048 372.162 158.11 372.559 157.298C372.961 156.486 373.52 155.853 374.237 155.397C374.958 154.942 375.802 154.714 376.767 154.714C377.353 154.714 377.921 154.811 378.472 155.005C379.022 155.199 379.516 155.503 379.953 155.918C380.391 156.333 380.736 156.872 380.988 157.535C381.241 158.193 381.367 158.994 381.367 159.936V160.653H373.107V159.138H379.385C379.385 158.606 379.277 158.135 379.06 157.724C378.844 157.309 378.539 156.982 378.147 156.743C377.759 156.504 377.304 156.385 376.78 156.385C376.212 156.385 375.716 156.525 375.292 156.804C374.873 157.079 374.548 157.44 374.318 157.887C374.093 158.329 373.98 158.809 373.98 159.327V160.511C373.98 161.206 374.102 161.797 374.345 162.284C374.593 162.771 374.938 163.143 375.38 163.4C375.822 163.652 376.338 163.779 376.929 163.779C377.313 163.779 377.662 163.725 377.978 163.616C378.294 163.504 378.566 163.337 378.796 163.116C379.026 162.895 379.202 162.622 379.324 162.297L381.239 162.642C381.085 163.206 380.81 163.7 380.413 164.124C380.021 164.543 379.527 164.87 378.932 165.105C378.341 165.335 377.667 165.45 376.909 165.45ZM391.398 157.386L389.564 157.711C389.488 157.476 389.366 157.253 389.199 157.041C389.037 156.829 388.816 156.655 388.536 156.52C388.257 156.385 387.907 156.317 387.488 156.317C386.915 156.317 386.437 156.446 386.053 156.703C385.67 156.955 385.478 157.282 385.478 157.684C385.478 158.031 385.607 158.31 385.864 158.522C386.121 158.734 386.536 158.908 387.109 159.043L388.759 159.422C389.716 159.643 390.428 159.984 390.897 160.444C391.366 160.904 391.601 161.501 391.601 162.236C391.601 162.859 391.42 163.413 391.059 163.901C390.703 164.383 390.205 164.762 389.564 165.037C388.929 165.312 388.191 165.45 387.352 165.45C386.189 165.45 385.239 165.202 384.504 164.706C383.769 164.205 383.318 163.495 383.151 162.575L385.106 162.277C385.228 162.787 385.478 163.172 385.857 163.434C386.236 163.691 386.73 163.819 387.339 163.819C388.002 163.819 388.532 163.682 388.929 163.407C389.325 163.127 389.524 162.787 389.524 162.385C389.524 162.06 389.402 161.788 389.159 161.567C388.92 161.346 388.552 161.179 388.056 161.066L386.297 160.68C385.327 160.459 384.61 160.108 384.146 159.625C383.686 159.143 383.456 158.531 383.456 157.792C383.456 157.178 383.627 156.642 383.97 156.182C384.313 155.722 384.786 155.363 385.39 155.106C385.995 154.845 386.687 154.714 387.467 154.714C388.59 154.714 389.474 154.957 390.119 155.444C390.764 155.927 391.19 156.574 391.398 157.386Z" fill="black"/>
</g>
<defs>
<filter id="filter0_d_2257_191" x="0" y="0" width="439" height="188.492" filterUnits="userSpaceOnUse" color-interpolation-filters="sRGB">
<feFlood flood-opacity="0" result="BackgroundImageFix"/>
<feColorMatrix in="SourceAlpha" type="matrix" values="0 0 0 0 0 0 0 0 0 0 0 0 0 0 0 0 0 0 127 0" result="hardAlpha"/>
<feOffset dy="7"/>
<feGaussianBlur stdDeviation="14.5"/>
<feComposite in2="hardAlpha" operator="out"/>
<feColorMatrix type="matrix" values="0 0 0 0 0.392157 0 0 0 0 0.392157 0 0 0 0 0.435294 0 0 0 0.4 0"/>
<feBlend mode="normal" in2="BackgroundImageFix" result="effect1_dropShadow_2257_191"/>
<feBlend mode="normal" in="SourceGraphic" in2="effect1_dropShadow_2257_191" result="shape"/>
</filter>
<filter id="filter1_d_2257_191" x="55" y="102" width="439" height="188.492" filterUnits="userSpaceOnUse" color-interpolation-filters="sRGB">
<feFlood flood-opacity="0" result="BackgroundImageFix"/>
<feColorMatrix in="SourceAlpha" type="matrix" values="0 0 0 0 0 0 0 0 0 0 0 0 0 0 0 0 0 0 127 0" result="hardAlpha"/>
<feOffset dy="7"/>
<feGaussianBlur stdDeviation="14.5"/>
<feComposite in2="hardAlpha" operator="out"/>
<feColorMatrix type="matrix" values="0 0 0 0 0.392157 0 0 0 0 0.392157 0 0 0 0 0.435294 0 0 0 0.4 0"/>
<feBlend mode="normal" in2="BackgroundImageFix" result="effect1_dropShadow_2257_191"/>
<feBlend mode="normal" in="SourceGraphic" in2="effect1_dropShadow_2257_191" result="shape"/>
</filter>
</defs>
</svg>
