<svg width="449" height="305" viewBox="0 0 449 305" fill="none" xmlns="http://www.w3.org/2000/svg">
<g clip-path="url(#clip0_1290_459)">
<path d="M18.7329 96.9432C18.4331 96.9429 18.1359 96.8868 17.8567 96.7779C17.4051 96.6045 17.0169 96.298 16.7438 95.8991C16.4707 95.5001 16.3255 95.0276 16.3276 94.5442V69.5091C16.3266 68.6617 15.9893 67.8493 15.3895 67.2501C14.7897 66.6508 13.9766 66.3138 13.1283 66.3128H7.99684C5.87667 66.3104 3.84403 65.4679 2.34484 63.9702C0.845661 62.4724 0.00237618 60.4417 0 58.3235V7.98923C0.00237759 5.87108 0.845661 3.84037 2.34484 2.34262C3.84403 0.844859 5.87667 0.00237392 7.99684 0H189C191.12 0.00237673 193.153 0.84486 194.652 2.34262C196.151 3.84037 196.994 5.87108 196.997 7.98923V58.3235C196.994 60.4417 196.151 62.4724 194.652 63.9702C193.153 65.4679 191.12 66.3104 189 66.3128H49.2913C48.8478 66.3133 48.4093 66.4057 48.0033 66.5841C47.5974 66.7625 47.2329 67.023 46.9329 67.3493L20.4947 96.1637C20.2715 96.4089 19.9995 96.6049 19.6961 96.7391C19.3927 96.8733 19.0647 96.9428 18.7329 96.9432V96.9432ZM7.99684 1.06457C6.15919 1.06664 4.39741 1.79687 3.09799 3.09505C1.79858 4.39323 1.06766 6.15333 1.06558 7.98923V58.3235C1.06766 60.1594 1.79858 61.9196 3.09799 63.2177C4.3974 64.5159 6.15919 65.2461 7.99684 65.2482H13.1283C14.2591 65.2495 15.3431 65.6988 16.1426 66.4976C16.9422 67.2964 17.3919 68.3794 17.3931 69.5091V94.5442C17.3932 94.8126 17.4743 95.0747 17.626 95.2962C17.7777 95.5177 17.9928 95.6883 18.2431 95.7856C18.4935 95.8829 18.7674 95.9023 19.029 95.8414C19.2907 95.7805 19.5278 95.6421 19.7093 95.4443L46.1474 66.6299C46.5474 66.195 47.0333 65.8476 47.5744 65.6098C48.1155 65.372 48.7001 65.2489 49.2913 65.2482H189C190.838 65.2461 192.599 64.5159 193.899 63.2177C195.198 61.9196 195.929 60.1594 195.931 58.3235V7.98923C195.929 6.15333 195.198 4.39323 193.899 3.09505C192.599 1.79687 190.838 1.06665 189 1.06457H7.99684Z" fill="#CCCCCC"/>
<path d="M19.6152 22.67C23.4798 22.67 26.6128 19.5401 26.6128 15.6791C26.6128 11.8182 23.4798 8.68823 19.6152 8.68823C15.7506 8.68823 12.6177 11.8182 12.6177 15.6791C12.6177 19.5401 15.7506 22.67 19.6152 22.67Z" fill="#CCCCCC"/>
<path d="M180.836 54.3622H16.1608C15.6703 54.3628 15.1846 54.2668 14.7313 54.0797C14.2779 53.8926 13.866 53.618 13.519 53.2718C13.172 52.9255 12.8967 52.5143 12.7088 52.0616C12.521 51.609 12.4243 51.1238 12.4243 50.6338C12.4243 50.1438 12.521 49.6586 12.7088 49.2059C12.8967 48.7533 13.172 48.342 13.519 47.9957C13.866 47.6495 14.2779 47.3749 14.7313 47.1878C15.1846 47.0007 15.6703 46.9047 16.1608 46.9053H180.836C181.327 46.9047 181.812 47.0007 182.266 47.1878C182.719 47.3749 183.131 47.6495 183.478 47.9957C183.825 48.342 184.1 48.7533 184.288 49.2059C184.476 49.6586 184.573 50.1438 184.573 50.6338C184.573 51.1238 184.476 51.609 184.288 52.0616C184.1 52.5143 183.825 52.9255 183.478 53.2718C183.131 53.618 182.719 53.8926 182.266 54.0797C181.812 54.2668 181.327 54.3628 180.836 54.3622V54.3622Z" fill="#CCCCCC"/>
<path d="M127.188 38.516H16.1608C15.6703 38.5166 15.1846 38.4206 14.7313 38.2335C14.2779 38.0464 13.866 37.7718 13.519 37.4256C13.172 37.0793 12.8967 36.6681 12.7088 36.2154C12.521 35.7628 12.4243 35.2776 12.4243 34.7876C12.4243 34.2976 12.521 33.8124 12.7088 33.3597C12.8967 32.9071 13.172 32.4958 13.519 32.1496C13.866 31.8033 14.2779 31.5287 14.7313 31.3416C15.1846 31.1545 15.6703 31.0585 16.1608 31.0591H127.188C127.679 31.0585 128.165 31.1545 128.618 31.3416C129.071 31.5287 129.483 31.8033 129.83 32.1496C130.177 32.4958 130.453 32.9071 130.64 33.3597C130.828 33.8124 130.925 34.2976 130.925 34.7876C130.925 35.2776 130.828 35.7628 130.64 36.2154C130.453 36.6681 130.177 37.0793 129.83 37.4256C129.483 37.7718 129.071 38.0464 128.618 38.2335C128.165 38.4206 127.679 38.5166 127.188 38.516V38.516Z" fill="#CCCCCC"/>
<path d="M18.7329 274.512C18.4331 274.511 18.1359 274.455 17.8567 274.346C17.4051 274.173 17.017 273.867 16.7438 273.468C16.4707 273.069 16.3255 272.596 16.3276 272.113V247.078C16.3266 246.23 15.9893 245.418 15.3895 244.819C14.7897 244.219 13.9765 243.882 13.1283 243.881H7.99684C5.87668 243.879 3.84403 243.037 2.34485 241.539C0.84567 240.041 0.00238182 238.01 0 235.892V185.558C0.00237758 183.44 0.845663 181.409 2.34484 179.911C3.84402 178.413 5.87667 177.571 7.99684 177.569H189C191.12 177.571 193.153 178.413 194.652 179.911C196.151 181.409 196.994 183.44 196.997 185.558V235.892C196.994 238.01 196.151 240.041 194.652 241.539C193.153 243.037 191.12 243.879 189 243.881H49.2913C48.8478 243.882 48.4093 243.974 48.0033 244.153C47.5974 244.331 47.2329 244.592 46.9329 244.918L20.4947 273.732C20.2715 273.977 19.9995 274.173 19.6961 274.308C19.3927 274.442 19.0647 274.511 18.7329 274.512V274.512ZM7.99684 178.633C6.15919 178.635 4.39741 179.365 3.09799 180.664C1.79858 181.962 1.06766 183.722 1.06558 185.558V235.892C1.06766 237.728 1.79858 239.488 3.09799 240.786C4.3974 242.085 6.15919 242.815 7.99684 242.817H13.1283C14.2591 242.818 15.3431 243.267 16.1426 244.066C16.9422 244.865 17.3919 245.948 17.3931 247.078V272.113C17.3932 272.381 17.4743 272.643 17.626 272.865C17.7777 273.086 17.9928 273.257 18.2431 273.354C18.4935 273.451 18.7674 273.471 19.029 273.41C19.2907 273.349 19.5278 273.211 19.7093 273.013L46.1474 244.198C46.5474 243.764 47.0333 243.416 47.5744 243.178C48.1155 242.941 48.7001 242.817 49.2913 242.817H189C190.838 242.815 192.599 242.085 193.899 240.786C195.198 239.488 195.929 237.728 195.931 235.892V185.558C195.929 183.722 195.198 181.962 193.899 180.664C192.599 179.365 190.838 178.635 189 178.633L7.99684 178.633Z" fill="#CCCCCC"/>
<path d="M286.026 182.232C285.694 182.232 285.366 182.162 285.063 182.028C284.759 181.894 284.487 181.698 284.264 181.453L257.826 152.638C257.526 152.312 257.161 152.052 256.755 151.873C256.35 151.695 255.911 151.602 255.468 151.602H115.759C113.639 151.599 111.606 150.757 110.107 149.259C108.608 147.761 107.765 145.731 107.762 143.613V93.2783C107.765 91.1601 108.608 89.1294 110.107 87.6317C111.606 86.1339 113.639 85.2914 115.759 85.2891H296.762C298.882 85.2914 300.915 86.1339 302.414 87.6317C303.913 89.1294 304.756 91.1601 304.759 93.2783V143.613C304.756 145.731 303.913 147.761 302.414 149.259C300.915 150.757 298.882 151.599 296.762 151.602H291.63C290.782 151.603 289.969 151.94 289.369 152.539C288.77 153.138 288.432 153.951 288.431 154.798V179.833C288.433 180.317 288.288 180.789 288.015 181.188C287.742 181.587 287.354 181.893 286.902 182.067C286.623 182.176 286.326 182.232 286.026 182.232V182.232ZM115.759 86.3536C113.921 86.3557 112.16 87.0859 110.86 88.3841C109.561 89.6823 108.83 91.4424 108.828 93.2783V143.613C108.83 145.448 109.561 147.209 110.86 148.507C112.16 149.805 113.921 150.535 115.759 150.537H255.468C256.059 150.538 256.643 150.661 257.184 150.899C257.726 151.137 258.211 151.484 258.611 151.919L285.05 180.733C285.231 180.931 285.468 181.07 285.73 181.13C285.991 181.191 286.265 181.172 286.516 181.075C286.766 180.977 286.981 180.807 287.133 180.585C287.284 180.364 287.366 180.102 287.366 179.833V154.798C287.367 153.669 287.817 152.585 288.616 151.787C289.416 150.988 290.5 150.539 291.63 150.537H296.762C298.6 150.535 300.361 149.805 301.661 148.507C302.96 147.209 303.691 145.449 303.693 143.613V93.2783C303.691 91.4424 302.96 89.6823 301.661 88.3841C300.361 87.0859 298.6 86.3557 296.762 86.3536L115.759 86.3536Z" fill="#3F3D56"/>
<path d="M19.6152 200.239C23.4798 200.239 26.6128 197.109 26.6128 193.248C26.6128 189.387 23.4798 186.257 19.6152 186.257C15.7506 186.257 12.6177 189.387 12.6177 193.248C12.6177 197.109 15.7506 200.239 19.6152 200.239Z" fill="#CCCCCC"/>
<path d="M180.836 231.931H16.1608C15.6703 231.931 15.1846 231.835 14.7313 231.648C14.2779 231.461 13.866 231.187 13.519 230.84C13.172 230.494 12.8967 230.083 12.7088 229.63C12.521 229.178 12.4243 228.692 12.4243 228.202C12.4243 227.712 12.521 227.227 12.7088 226.774C12.8967 226.322 13.172 225.911 13.519 225.564C13.866 225.218 14.2779 224.944 14.7313 224.756C15.1846 224.569 15.6703 224.473 16.1608 224.474H180.836C181.826 224.474 182.775 224.867 183.475 225.566C184.175 226.265 184.568 227.213 184.568 228.202C184.568 229.191 184.175 230.14 183.475 230.839C182.775 231.538 181.826 231.931 180.836 231.931Z" fill="#CCCCCC"/>
<path d="M127.188 216.085H16.1608C15.6703 216.085 15.1846 215.989 14.7313 215.802C14.2779 215.615 13.866 215.341 13.519 214.994C13.172 214.648 12.8967 214.237 12.7088 213.784C12.521 213.332 12.4243 212.846 12.4243 212.356C12.4243 211.866 12.521 211.381 12.7088 210.929C12.8967 210.476 13.172 210.065 13.519 209.718C13.866 209.372 14.2779 209.098 14.7313 208.91C15.1846 208.723 15.6703 208.627 16.1608 208.628H127.188C127.679 208.627 128.165 208.723 128.618 208.91C129.071 209.098 129.483 209.372 129.83 209.718C130.177 210.065 130.453 210.476 130.64 210.929C130.828 211.381 130.925 211.866 130.925 212.356C130.925 212.846 130.828 213.332 130.64 213.784C130.453 214.237 130.177 214.648 129.83 214.994C129.483 215.341 129.071 215.615 128.618 215.802C128.165 215.989 127.679 216.085 127.188 216.085Z" fill="#CCCCCC"/>
<path d="M127.377 107.493C131.242 107.493 134.375 104.363 134.375 100.502C134.375 96.6412 131.242 93.5112 127.377 93.5112C123.513 93.5112 120.38 96.6412 120.38 100.502C120.38 104.363 123.513 107.493 127.377 107.493Z" fill="#3F3D56"/>
<path d="M288.598 139.185H123.923C122.933 139.185 121.984 138.792 121.284 138.093C120.584 137.394 120.191 136.445 120.191 135.457C120.191 134.468 120.584 133.519 121.284 132.82C121.984 132.121 122.933 131.728 123.923 131.728H288.598C289.588 131.728 290.537 132.121 291.237 132.82C291.937 133.519 292.33 134.468 292.33 135.457C292.33 136.445 291.937 137.394 291.237 138.093C290.537 138.792 289.588 139.185 288.598 139.185V139.185Z" fill="#4A83B4"/>
<path d="M234.95 123.339H123.923C123.432 123.34 122.946 123.244 122.493 123.057C122.04 122.869 121.628 122.595 121.281 122.249C120.934 121.902 120.658 121.491 120.471 121.038C120.283 120.586 120.186 120.101 120.186 119.611C120.186 119.121 120.283 118.635 120.471 118.183C120.658 117.73 120.934 117.319 121.281 116.973C121.628 116.626 122.04 116.352 122.493 116.165C122.946 115.978 123.432 115.881 123.923 115.882H234.95C235.441 115.881 235.926 115.978 236.38 116.165C236.833 116.352 237.245 116.626 237.592 116.973C237.939 117.319 238.214 117.73 238.402 118.183C238.59 118.635 238.687 119.121 238.687 119.611C238.687 120.101 238.59 120.586 238.402 121.038C238.214 121.491 237.939 121.902 237.592 122.249C237.245 122.595 236.833 122.869 236.38 123.057C235.926 123.244 235.441 123.34 234.95 123.339Z" fill="#4A83B4"/>
<path d="M288.526 191.814C288.686 191.048 289.012 190.326 289.482 189.7C289.951 189.073 290.552 188.557 291.243 188.188C291.933 187.818 292.696 187.605 293.478 187.562C294.261 187.519 295.042 187.648 295.769 187.94L308.268 173.592L310.923 183.114L298.647 195.279C298.075 196.467 297.087 197.403 295.871 197.912C294.654 198.42 293.293 198.465 292.046 198.038C290.798 197.61 289.751 196.741 289.102 195.594C288.454 194.447 288.249 193.102 288.526 191.814V191.814Z" fill="#FFB8B8"/>
<path d="M357.125 124.481C364.353 124.481 370.211 118.628 370.211 111.408C370.211 104.188 364.353 98.3345 357.125 98.3345C349.898 98.3345 344.04 104.188 344.04 111.408C344.04 118.628 349.898 124.481 357.125 124.481Z" fill="#FFB8B8"/>
<path d="M341.752 291.359L335.221 291.358L332.113 266.188L341.754 266.188L341.752 291.359Z" fill="#FFB8B8"/>
<path d="M343.418 297.685L322.356 297.684V297.418C322.356 296.342 322.568 295.277 322.98 294.284C323.392 293.29 323.996 292.387 324.757 291.627C325.519 290.866 326.422 290.263 327.417 289.851C328.412 289.44 329.478 289.228 330.554 289.228H330.555L343.418 289.229L343.418 297.685Z" fill="#2F2E41"/>
<path d="M361.465 298.279L354.934 298.278L354.029 273.709L361.467 273.108L361.465 298.279Z" fill="#FFB8B8"/>
<path d="M363.131 304.605L342.07 304.604V304.338C342.07 303.262 342.282 302.197 342.694 301.203C343.106 300.21 343.71 299.307 344.471 298.546C345.232 297.786 346.136 297.183 347.13 296.771C348.125 296.359 349.191 296.148 350.268 296.148H350.268L363.132 296.148L363.131 304.605Z" fill="#2F2E41"/>
<path d="M359.608 293.685L354.521 293.087C353.944 293.018 353.412 292.742 353.023 292.311C352.634 291.88 352.414 291.323 352.404 290.743L351.451 224.559C351.448 224.372 351.38 224.191 351.257 224.049C351.135 223.907 350.966 223.813 350.781 223.783C350.596 223.752 350.407 223.788 350.245 223.883C350.084 223.979 349.961 224.128 349.899 224.304L342.841 244.211L343.346 281.525C343.355 282.141 343.125 282.737 342.706 283.188C342.286 283.64 341.709 283.912 341.093 283.949L334.452 284.23C333.845 284.265 333.247 284.069 332.778 283.681C332.309 283.294 332.005 282.744 331.925 282.141L328.456 239.931L328.454 239.904L333.717 195.821L373.241 198.677L362.269 291.587C362.2 292.169 361.919 292.706 361.481 293.096C361.042 293.485 360.476 293.701 359.889 293.702C359.795 293.702 359.701 293.697 359.608 293.685Z" fill="#2F2E41"/>
<path d="M333.885 199.728C333.531 199.539 333.23 199.263 333.01 198.927C332.791 198.59 332.66 198.203 332.631 197.803C332.631 197.803 336.185 175.721 337.488 175.307L334.638 151.693C334.296 148.813 334.534 145.893 335.338 143.106C336.141 140.319 337.494 137.721 339.316 135.463C341.071 133.273 343.252 131.461 345.727 130.136C348.203 128.811 350.921 128.001 353.718 127.754C354.117 127.719 354.513 127.691 354.907 127.672C358.279 127.492 361.645 128.128 364.718 129.525C367.792 130.923 370.482 133.041 372.56 135.7C374.716 138.382 376.192 141.545 376.861 144.918C377.531 148.292 377.375 151.778 376.407 155.079L374.808 160.636V199.469C374.807 199.848 374.716 200.221 374.544 200.559C374.372 200.897 374.122 201.19 373.817 201.414C368.84 205.063 363.216 206.353 357.75 206.353C347.408 206.353 337.633 201.733 333.885 199.728Z" fill="#4A83B4"/>
<path d="M303.202 192.622L296.328 187.487C296.058 187.285 295.834 187.029 295.67 186.736C295.506 186.442 295.405 186.117 295.375 185.782C295.345 185.447 295.386 185.109 295.496 184.791C295.605 184.473 295.78 184.181 296.01 183.935L336.962 140.035C338.276 138.638 340.049 137.759 341.957 137.556C343.865 137.353 345.783 137.841 347.362 138.93L347.363 138.931C348.325 139.601 349.127 140.475 349.713 141.49C350.299 142.505 350.653 143.637 350.751 144.805C350.849 145.973 350.688 147.148 350.28 148.246C349.871 149.345 349.225 150.34 348.388 151.161L306.317 192.414C305.947 192.78 305.468 193.015 304.952 193.083C304.436 193.151 303.912 193.048 303.46 192.791C303.371 192.74 303.284 192.684 303.202 192.622V192.622Z" fill="#4A83B4"/>
<path d="M355.815 186.81C356.115 186.087 356.571 185.439 357.149 184.911C357.727 184.384 358.414 183.989 359.162 183.755C359.909 183.521 360.699 183.454 361.475 183.558C362.252 183.662 362.996 183.935 363.655 184.358L378.619 172.597L379.445 182.447L365.108 192.105C364.324 193.164 363.179 193.9 361.888 194.172C360.598 194.444 359.253 194.234 358.107 193.581C356.962 192.928 356.096 191.879 355.673 190.631C355.251 189.383 355.301 188.023 355.815 186.81V186.81Z" fill="#FFB8B8"/>
<path d="M369.208 191.401C368.812 191.278 368.455 191.053 368.173 190.75C367.89 190.447 367.692 190.075 367.598 189.671L366.086 183.328C365.975 182.878 366 182.405 366.156 181.969C366.312 181.532 366.594 181.151 366.966 180.873L377.136 169.885L362.176 146.839C361.044 145.446 360.405 143.717 360.361 141.923C360.316 140.13 360.868 138.372 361.93 136.924C362.776 135.771 363.913 134.862 365.224 134.289C366.535 133.716 367.975 133.499 369.397 133.661C370.82 133.823 372.174 134.357 373.323 135.21C374.471 136.063 375.374 137.204 375.939 138.518L389.847 165.564C391.23 168.251 391.575 171.352 390.816 174.277C390.058 177.202 388.249 179.745 385.734 181.423L371.521 190.909C371.085 191.298 370.522 191.513 369.938 191.514C369.69 191.514 369.444 191.475 369.208 191.401V191.401Z" fill="#4A83B4"/>
<path d="M366.822 123.095C366.513 123.28 366.167 123.392 365.808 123.421C365.45 123.451 365.089 123.397 364.755 123.265C364.42 123.133 364.121 122.926 363.879 122.66C363.638 122.394 363.461 122.075 363.362 121.73L363.354 121.697C363.087 120.61 363.298 119.471 363.367 118.353C363.436 117.236 363.319 116.009 362.553 115.191C361.125 113.667 358.603 114.493 356.548 114.116C355.344 113.855 354.277 113.164 353.546 112.172C352.815 111.181 352.471 109.958 352.577 108.731C352.605 108.499 352.65 108.266 352.7 108.034C352.825 107.444 352.812 106.834 352.662 106.25C352.511 105.667 352.227 105.126 351.832 104.671C351.437 104.215 350.942 103.857 350.385 103.625C349.829 103.393 349.226 103.294 348.624 103.334C346.549 103.463 344.313 104.103 342.588 102.577C341.955 101.975 341.514 101.2 341.32 100.348C341.125 99.4973 341.186 98.6077 341.494 97.7908C342.459 94.9587 345.222 93.4639 347.959 92.6357C351.345 91.6388 354.911 91.4081 358.397 91.9605C361.883 92.5128 365.202 93.8343 368.113 95.829C369.851 97.0392 371.477 98.5629 372.225 100.543C372.974 102.523 372.631 105.028 370.974 106.347C372.272 107.705 373.189 109.38 373.635 111.203C374.08 113.027 374.038 114.935 373.513 116.738C372.705 119.388 368.795 121.947 366.822 123.095Z" fill="#2F2E41"/>
<path d="M449 304.468C448.999 304.609 448.943 304.744 448.843 304.844C448.744 304.944 448.608 305 448.467 305H245.473C245.332 305 245.196 304.944 245.096 304.844C244.997 304.744 244.94 304.609 244.94 304.468C244.94 304.327 244.997 304.191 245.096 304.091C245.196 303.992 245.332 303.936 245.473 303.936H448.467C448.608 303.936 448.744 303.992 448.843 304.092C448.943 304.192 448.999 304.327 449 304.468V304.468Z" fill="#3F3D56"/>
</g>
<defs>
<clipPath id="clip0_1290_459">
<rect width="449" height="305" fill="white"/>
</clipPath>
</defs>
</svg>
