<svg width="325" height="211" viewBox="0 0 325 211" fill="none" xmlns="http://www.w3.org/2000/svg">
<g clip-path="url(#clip0_1121_2445)">
<path d="M325 99.0637C325.001 107.458 321.832 115.544 316.128 121.704C310.424 127.864 302.604 131.645 294.233 132.29C293.951 132.311 293.665 132.333 293.378 132.346V100.717C293.379 100.401 293.308 100.089 293.172 99.8035C293.036 99.5181 292.838 99.2668 292.592 99.068C292.564 99.0388 292.532 99.013 292.498 98.9911C292.467 98.9658 292.434 98.943 292.4 98.9227C292.1 98.7295 291.756 98.6146 291.4 98.5885C291.044 98.5624 290.687 98.6259 290.361 98.7732L290.007 97.9956C290.395 97.819 290.816 97.7273 291.242 97.7264L266.902 76.7619C267.09 76.5483 267.286 76.3389 267.483 76.1296C272.071 71.2934 278.005 67.9441 284.518 66.5145C291.03 65.085 297.821 65.6408 304.014 68.1102C310.207 70.5795 315.517 74.849 319.258 80.3669C322.999 85.8848 324.999 92.3976 325 99.0637Z" fill="#F2F2F2"/>
<path d="M8.45136 121.787C8.33032 121.168 8.34634 120.531 8.4983 119.92C8.65026 119.308 8.93447 118.738 9.3309 118.248C9.72733 117.758 10.2263 117.361 10.7928 117.085C11.3592 116.809 11.9793 116.66 12.6094 116.65L31.8226 93.7827L36.6193 99.9144L17.0383 121.196C16.9859 122.256 16.5466 123.259 15.8036 124.016C15.0606 124.773 14.0657 125.232 13.0072 125.305C11.9488 125.378 10.9004 125.06 10.0607 124.411C9.22105 123.763 8.64843 122.829 8.45138 121.787H8.45136Z" fill="#FFB8B8"/>
<path d="M99.6882 93.6413C99.5537 93.8358 99.4348 94.0405 99.3325 94.2537L78.3535 97.2519L75.1679 93.2083L68.4358 97.2174L74.764 107.082L100.35 99.5411C101.025 100.152 101.87 100.543 102.773 100.662C103.676 100.781 104.594 100.623 105.405 100.208C106.215 99.7926 106.88 99.1406 107.311 98.3384C107.742 97.5362 107.918 96.6219 107.817 95.717C107.715 94.8121 107.341 93.9595 106.743 93.2727C106.145 92.5858 105.352 92.0973 104.47 91.8719C103.587 91.6466 102.657 91.6952 101.803 92.0113C100.949 92.3274 100.211 92.8959 99.6882 93.6413Z" fill="#FFB8B8"/>
<path d="M63.8528 170.044L67.5653 173.74L83.5899 161.183L78.1108 155.728L63.8528 170.044Z" fill="#FFB8B8"/>
<path d="M71.2925 184.314L59.625 172.699L64.1136 168.192L71.2731 175.319C71.8651 175.909 72.3352 176.609 72.6566 177.38C72.9779 178.151 73.1442 178.978 73.146 179.813C73.1478 180.648 72.9851 181.475 72.667 182.248C72.349 183.02 71.8819 183.722 71.2925 184.314L71.2925 184.314Z" fill="#2F2E41"/>
<path d="M44.119 205.493H49.358L51.8501 185.29H44.1182L44.119 205.493Z" fill="#FFB8B8"/>
<path d="M59.4614 210.356L42.9965 210.357L42.9962 203.996L53.0997 203.996C53.9351 203.996 54.7623 204.16 55.5341 204.48C56.3059 204.8 57.0072 205.268 57.598 205.859C58.1887 206.449 58.6574 207.15 58.9771 207.922C59.2968 208.694 59.4614 209.521 59.4614 210.356Z" fill="#2F2E41"/>
<path d="M42.9802 189.889L37.0129 145.889C36.079 139.239 36.3688 132.475 37.868 125.93C39.0926 120.67 40.7469 117.026 42.7851 115.101C43.1068 114.799 43.5185 114.611 43.9573 114.566L63.6595 112.514C64.039 112.475 64.4217 112.545 64.763 112.715C65.1042 112.886 65.39 113.15 65.5868 113.477L66.2345 114.556C66.3131 114.687 66.3765 114.826 66.4234 114.972L70.589 127.883C70.6512 128.078 70.7515 128.259 70.8842 128.415C71.0169 128.571 71.1792 128.699 71.3618 128.791C77.9203 132.139 99.2245 143.44 98.0053 148.316C96.8598 152.897 86.1347 160.326 82.8748 162.493C82.5429 162.715 82.1519 162.832 81.7526 162.829C81.3533 162.826 80.9642 162.703 80.6356 162.476L75.2244 158.774C74.9602 158.594 74.7432 158.352 74.5914 158.07C74.4396 157.789 74.3574 157.475 74.3518 157.155C74.3463 156.835 74.4174 156.518 74.5592 156.231C74.7011 155.944 74.9096 155.695 75.1673 155.505L78.8989 152.756C79.1273 152.588 79.3054 152.361 79.4142 152.099C79.5229 151.837 79.5582 151.55 79.5161 151.27C79.474 150.989 79.3563 150.725 79.1755 150.507C78.9947 150.288 78.7577 150.123 78.49 150.029L58.4493 142.999C58.2243 142.92 57.9842 142.893 57.7474 142.922C57.5106 142.95 57.2835 143.032 57.0835 143.162C56.8834 143.292 56.7159 143.466 56.5936 143.671C56.4714 143.875 56.3977 144.105 56.3783 144.343L52.6832 189.497C52.6424 189.981 52.4277 190.434 52.0786 190.772C51.7296 191.11 51.2699 191.31 50.7847 191.336L45.0674 191.621C45.0326 191.623 44.9981 191.624 44.9636 191.624C44.4783 191.626 44.0091 191.451 43.6439 191.131C43.2787 190.812 43.0427 190.37 42.9802 189.889Z" fill="#2F2E41"/>
<path d="M52.0162 76.0846C57.8126 76.0846 62.5116 71.3865 62.5116 65.5912C62.5116 59.7958 57.8126 55.0978 52.0162 55.0978C46.2197 55.0978 41.5208 59.7958 41.5208 65.5912C41.5208 71.3865 46.2197 76.0846 52.0162 76.0846Z" fill="#FFB8B8"/>
<path d="M42.1995 113.303L34.4739 85.1208L34.6062 85.0316C34.7721 84.9197 51.424 73.9262 70.92 82.7855L71.2735 82.9883L66.6957 112.24C66.5958 112.908 66.2661 113.519 65.7634 113.97C65.2607 114.42 64.6165 114.681 63.9419 114.708L45.1044 115.432C45.0664 115.434 45.0286 115.435 44.9909 115.435C44.3559 115.436 43.7381 115.228 43.2334 114.843C42.7287 114.457 42.3653 113.916 42.1995 113.303Z" fill="#CCCCCC"/>
<path d="M34.18 103.468L27.7457 96.0704C27.4358 95.7149 27.2613 95.2615 27.253 94.7901C27.2447 94.3186 27.4031 93.8593 27.7002 93.4932L34.4265 85.1856L39.59 86.5936L42.3275 96.1731L37.3361 103.302C37.162 103.553 36.9329 103.759 36.6663 103.907C36.3997 104.055 36.1027 104.14 35.7983 104.155C35.7622 104.157 35.7265 104.157 35.6907 104.157C35.4041 104.158 35.1208 104.097 34.86 103.978C34.5993 103.859 34.3673 103.685 34.18 103.468Z" fill="#CCCCCC"/>
<path d="M69.7607 101.927C69.4562 101.912 69.1593 101.827 68.8927 101.679C68.6261 101.532 68.3969 101.325 68.2228 101.075L63.2314 93.9453L65.6323 83.8615L70.3864 82.5651L71.2735 82.9883L77.8587 91.2654C78.1559 91.6316 78.3143 92.0909 78.3059 92.5623C78.2976 93.0338 78.1231 93.4872 77.8132 93.8426L71.379 101.24C71.1916 101.457 70.9596 101.631 70.6989 101.75C70.4382 101.869 70.1549 101.93 69.8683 101.93C69.8326 101.93 69.7966 101.929 69.7607 101.927Z" fill="#CCCCCC"/>
<path d="M293.378 98.6237C293.382 98.73 293.346 98.8339 293.276 98.9142C293.202 99.0003 293.097 99.0536 292.984 99.0624C292.871 99.0713 292.759 99.0348 292.673 98.9612L291.242 97.7265L266.902 76.7619L198.633 17.9527C198.243 17.6194 197.747 17.4365 197.235 17.4373C196.722 17.4381 196.227 17.6224 195.838 17.9569L103.905 97.8119L103.076 98.5297C103.044 98.5578 103.008 98.5809 102.969 98.5981C102.9 98.6283 102.825 98.6401 102.751 98.6322C102.644 98.6209 102.545 98.5707 102.473 98.4912C102.436 98.4492 102.407 98.4003 102.389 98.3472C102.371 98.2942 102.364 98.2381 102.367 98.1821C102.371 98.1261 102.385 98.0714 102.41 98.0211C102.435 97.9708 102.469 97.9258 102.511 97.8888L102.627 97.7863L195.278 17.3118C195.823 16.8443 196.516 16.5865 197.234 16.585C197.952 16.5834 198.646 16.8381 199.193 17.3033L267.483 76.1296L293.229 98.3118C293.274 98.3508 293.31 98.3986 293.336 98.4522C293.362 98.5058 293.376 98.5642 293.378 98.6237Z" fill="#3F3D56"/>
<path d="M241.472 111.24L240.348 108.147L236.476 97.4659L228.135 74.4676L218.811 48.7607L201.996 2.39264C201.666 1.48842 200.991 0.75187 200.118 0.344281C199.246 -0.0633083 198.248 -0.108717 197.342 0.217999L100.123 35.4608C99.218 35.7906 98.4811 36.4655 98.0734 37.3377C97.6657 38.2098 97.6205 39.208 97.9477 40.1135L121.788 105.848L122.194 106.972L147.218 118.311L154.251 121.498L155.392 122.015L185.172 135.511L186.326 135.093L205.859 128.013L235.323 117.332L239.292 115.893C240.197 115.563 240.935 114.889 241.344 114.016C241.752 113.144 241.798 112.146 241.472 111.24Z" fill="#E6E6E6"/>
<path d="M200.705 56.4852C200.22 55.1544 199.227 54.0703 197.944 53.4704C196.661 52.8705 195.192 52.8039 193.86 53.2852L155.392 67.2345L136.817 73.9678C136.157 74.2063 135.55 74.5725 135.032 75.0455C134.513 75.5185 134.093 76.089 133.796 76.7245C133.498 77.3599 133.328 78.0477 133.297 78.7487C133.265 79.4497 133.372 80.15 133.611 80.8096C133.85 81.4693 134.217 82.0753 134.691 82.5932C135.164 83.111 135.735 83.5304 136.371 83.8274C137.007 84.1244 137.695 84.2932 138.396 84.3242C139.098 84.3552 139.798 84.2477 140.457 84.0078L155.392 78.5947L197.505 63.3295C198.836 62.8447 199.92 61.8519 200.52 60.5688C201.12 59.2858 201.187 57.8173 200.705 56.4852Z" fill="white"/>
<path d="M207.478 75.1641C206.993 73.8333 206 72.7491 204.717 72.1493C203.434 71.5494 201.965 71.4828 200.633 71.9641L194.116 74.3267L155.392 88.3657L143.59 92.6424C142.259 93.126 141.174 94.1182 140.575 95.4008C139.975 96.6835 139.909 98.1517 140.392 99.4829C140.874 100.814 141.866 101.899 143.148 102.5C144.43 103.101 145.899 103.168 147.231 102.687L155.392 99.726L204.278 82.0041C204.389 81.9657 204.496 81.9187 204.603 81.8717C205.844 81.3272 206.831 80.3313 207.365 79.0857C207.899 77.8402 207.94 76.4383 207.478 75.1641Z" fill="white"/>
<path d="M214.324 94.0394C213.84 92.7089 212.848 91.6247 211.565 91.0248C210.283 90.4248 208.814 90.3581 207.483 90.8394L189.206 97.4658L175.057 102.597L155.392 109.723L150.435 111.522C149.29 111.939 148.321 112.735 147.689 113.778C147.057 114.82 146.801 116.047 146.961 117.255C147.01 117.615 147.096 117.969 147.218 118.311L154.251 121.498L155.392 121.084H155.401L191.086 108.147L211.123 100.884C212.455 100.4 213.54 99.4072 214.14 98.1238C214.741 96.8405 214.807 95.3714 214.324 94.0394H214.324Z" fill="white"/>
<path d="M174.271 38.1225C173.786 36.7917 172.793 35.7076 171.51 35.1077C170.227 34.5079 168.758 34.4412 167.426 34.9225L145.333 42.9289C144.002 43.4126 142.918 44.4047 142.318 45.6874C141.718 46.9701 141.652 48.4383 142.135 49.7695C142.617 51.1006 143.609 52.1858 144.891 52.7865C146.173 53.3873 147.642 53.4545 148.974 52.9733L155.965 50.4398L160.593 48.7607L171.071 44.9626C172.401 44.4787 173.486 43.4867 174.086 42.2043C174.686 40.9219 174.752 39.454 174.271 38.1225Z" fill="white"/>
<path d="M262.436 48.7607H159.024C158.414 48.7613 157.814 48.9155 157.28 49.2089C156.745 49.5023 156.293 49.9257 155.965 50.4398C155.59 51.0219 155.391 51.6999 155.392 52.3923V122.015L185.172 135.511L189.368 137.413L195.996 140.416C196.384 140.591 196.805 140.682 197.231 140.682C197.657 140.682 198.078 140.591 198.466 140.416L205.094 137.413L225.836 128.013L245.168 119.251L266.068 109.783V52.3923C266.067 51.4293 265.685 50.506 265.004 49.8251C264.323 49.1442 263.399 48.7614 262.436 48.7607Z" fill="#4A83B4"/>
<path d="M241.07 97.4658H180.39C179.011 97.4666 177.685 98.0013 176.691 98.9579C175.697 99.9144 175.111 101.219 175.057 102.597C175.05 102.666 175.048 102.736 175.049 102.806C175.051 104.222 175.614 105.579 176.616 106.58C177.617 107.581 178.974 108.145 180.39 108.147H241.07C242.487 108.147 243.845 107.584 244.847 106.583C245.849 105.581 246.411 104.223 246.411 102.806C246.411 101.39 245.849 100.032 244.847 99.03C243.845 98.0285 242.487 97.4658 241.07 97.4658Z" fill="white"/>
<path d="M244.527 118.606C243.564 117.782 242.337 117.33 241.07 117.332H180.39C178.974 117.332 177.615 117.895 176.613 118.897C175.612 119.898 175.049 121.256 175.049 122.673C175.049 124.089 175.612 125.448 176.613 126.449C177.615 127.451 178.974 128.013 180.39 128.013H225.836L245.168 119.251C244.973 119.018 244.758 118.802 244.527 118.606Z" fill="white"/>
<path d="M189.369 137.413L195.996 140.416C196.384 140.591 196.805 140.682 197.231 140.682C197.657 140.682 198.078 140.591 198.466 140.416L205.094 137.413H189.369Z" fill="white"/>
<path d="M227.498 74.6984C227.122 73.6703 226.439 72.7825 225.542 72.1552C224.645 71.5278 223.576 71.1912 222.482 71.1907H198.979C197.953 71.1917 196.949 71.4879 196.086 72.0439C195.224 72.6 194.54 73.3924 194.116 74.3267C193.8 75.0184 193.636 75.7705 193.637 76.5312C193.639 77.947 194.203 79.3042 195.204 80.3053C196.205 81.3064 197.563 81.8697 198.979 81.8717H222.482C223.341 81.8718 224.188 81.6646 224.95 81.2676C225.712 80.8707 226.367 80.2958 226.859 79.5918C227.352 78.8877 227.667 78.0752 227.778 77.2233C227.889 76.3714 227.793 75.5053 227.498 74.6984Z" fill="white"/>
<path d="M223.763 128.013L203.021 137.413L198.112 139.638C197.835 139.763 197.535 139.828 197.231 139.828C196.928 139.828 196.628 139.763 196.351 139.638L191.441 137.413H189.369L195.996 140.416C196.384 140.591 196.805 140.682 197.231 140.682C197.657 140.682 198.078 140.591 198.466 140.416L205.094 137.413L225.836 128.013H223.763ZM223.763 128.013L203.021 137.413L198.112 139.638C197.835 139.763 197.535 139.828 197.231 139.828C196.928 139.828 196.628 139.763 196.351 139.638L191.441 137.413H189.369L195.996 140.416C196.384 140.591 196.805 140.682 197.231 140.682C197.657 140.682 198.078 140.591 198.466 140.416L205.094 137.413L225.836 128.013H223.763ZM223.763 128.013L203.021 137.413L198.112 139.638C197.835 139.763 197.535 139.828 197.231 139.828C196.928 139.828 196.628 139.763 196.351 139.638L191.441 137.413H189.369L195.996 140.416C196.384 140.591 196.805 140.682 197.231 140.682C197.657 140.682 198.078 140.591 198.466 140.416L205.094 137.413L225.836 128.013H223.763ZM293.378 98.6237C293.221 98.4669 293.047 98.3266 292.861 98.205C292.441 97.9329 291.96 97.771 291.461 97.7344C290.962 97.6978 290.462 97.7877 290.007 97.9956L244.527 118.606L223.763 128.013L203.021 137.413L198.111 139.638C197.835 139.763 197.535 139.828 197.231 139.828C196.928 139.828 196.628 139.763 196.351 139.638L191.441 137.413L186.326 135.093L155.401 121.084L155.392 121.079L146.961 117.256L121.788 105.848L104.456 97.9956C104.279 97.9141 104.095 97.8525 103.904 97.8119C103.486 97.7074 103.049 97.6986 102.627 97.7863C101.951 97.9246 101.343 98.2916 100.907 98.8255C100.47 99.3594 100.231 100.027 100.229 100.717V208.009C100.23 208.802 100.546 209.562 101.107 210.123C101.667 210.684 102.428 210.999 103.221 211H291.242C292.035 210.999 292.795 210.684 293.356 210.123C293.917 209.562 294.232 208.802 294.233 208.009V100.717C294.234 99.9341 293.927 99.182 293.378 98.6236V98.6237ZM293.378 208.009C293.378 208.576 293.153 209.119 292.752 209.52C292.352 209.92 291.808 210.145 291.242 210.146H103.221C102.654 210.145 102.111 209.92 101.71 209.52C101.31 209.119 101.084 208.576 101.084 208.009V100.717C101.084 100.36 101.174 100.009 101.345 99.6954C101.516 99.3819 101.763 99.1163 102.063 98.9227C102.274 98.7875 102.506 98.6893 102.751 98.6322C102.823 98.6167 102.895 98.6053 102.969 98.598C103.052 98.586 103.136 98.5803 103.221 98.5809C103.525 98.5813 103.825 98.6469 104.101 98.7732L122.194 106.972L147.218 118.311L154.251 121.498L155.392 122.015L185.172 135.511L189.368 137.413L195.996 140.416C196.384 140.591 196.805 140.682 197.231 140.682C197.657 140.682 198.078 140.591 198.466 140.416L205.094 137.413L225.836 128.013L245.168 119.251L290.361 98.7732C290.687 98.6259 291.043 98.5624 291.4 98.5885C291.756 98.6146 292.099 98.7295 292.4 98.9227C292.434 98.943 292.467 98.9659 292.498 98.9911C292.532 99.0131 292.564 99.0389 292.592 99.068C292.838 99.2668 293.036 99.5181 293.172 99.8035C293.308 100.089 293.379 100.401 293.378 100.717L293.378 208.009ZM223.763 128.013L203.021 137.413L198.112 139.638C197.835 139.763 197.535 139.828 197.231 139.828C196.928 139.828 196.628 139.763 196.351 139.638L191.441 137.413H189.369L195.996 140.416C196.384 140.591 196.805 140.682 197.231 140.682C197.657 140.682 198.078 140.591 198.466 140.416L205.094 137.413L225.836 128.013H223.763ZM223.763 128.013L203.021 137.413L198.112 139.638C197.835 139.763 197.535 139.828 197.231 139.828C196.928 139.828 196.628 139.763 196.351 139.638L191.441 137.413H189.369L195.996 140.416C196.384 140.591 196.805 140.682 197.231 140.682C197.657 140.682 198.078 140.591 198.466 140.416L205.094 137.413L225.836 128.013H223.763ZM154.251 121.498L155.392 122.015V121.084L154.251 121.498ZM223.763 128.013L203.021 137.413L198.112 139.638C197.835 139.763 197.535 139.828 197.231 139.828C196.928 139.828 196.628 139.763 196.351 139.638L191.441 137.413H189.369L195.996 140.416C196.384 140.591 196.805 140.682 197.231 140.682C197.657 140.682 198.078 140.591 198.466 140.416L205.094 137.413L225.836 128.013H223.763Z" fill="#3F3D56"/>
<path d="M75.0058 211H26.7186C26.6052 211 26.4966 210.955 26.4164 210.875C26.3363 210.795 26.2913 210.686 26.2913 210.573C26.2913 210.459 26.3363 210.351 26.4164 210.271C26.4966 210.191 26.6052 210.146 26.7186 210.146H75.0058C75.1191 210.146 75.2278 210.191 75.3079 210.271C75.3881 210.351 75.4331 210.459 75.4331 210.573C75.4331 210.686 75.3881 210.795 75.3079 210.875C75.2278 210.955 75.1191 211 75.0058 211Z" fill="#3F3D56"/>
<path d="M48.0255 73.2651C47.2372 72.8651 46.5817 72.2453 46.1383 71.4806C45.695 70.7159 45.4829 69.8391 45.5277 68.9564C45.5724 68.0736 45.8721 67.2228 46.3905 66.5068C46.9089 65.7908 47.6237 65.2404 48.4485 64.9222C51.6155 63.7003 55.166 66.194 58.4859 65.485C61.7948 64.7784 63.7089 60.8233 62.9191 57.5339C62.1293 54.2444 59.2547 51.7668 56.0848 50.5835C54.0146 49.8127 51.7976 49.5171 49.5977 49.7187C47.3978 49.9203 45.2714 50.6139 43.3758 51.7482C41.4998 52.9158 39.9375 54.5237 38.8245 56.4324C37.7115 58.341 37.0817 60.4925 36.9897 62.6999C36.9466 64.9093 37.4865 67.091 38.555 69.0254C39.6235 70.9598 41.183 72.5786 43.0763 73.7187C43.9201 74.205 44.9022 74.5954 45.8512 74.3765C46.6302 74.1235 47.3642 73.7483 48.0255 73.2651Z" fill="#2F2E41"/>
<path d="M44.6244 51.4925C41.8316 47.789 38.0617 44.7465 33.6749 43.2381C29.2881 41.7297 24.2751 41.8508 20.155 43.9825C16.035 46.1142 12.9625 50.3478 12.6418 54.9748C12.108 62.6756 18.6894 69.2216 19.3648 76.9113C19.5789 79.3487 19.1832 81.8011 18.2134 84.0475C17.2436 86.2939 15.7301 88.2639 13.8092 89.7799C11.8883 91.2959 9.62046 92.3105 7.20983 92.7321C4.7992 93.1536 2.32154 92.9691 0 92.195C1.65353 93.5559 3.57067 94.5601 5.63098 95.1447C7.6913 95.7293 9.85027 95.8816 11.9723 95.5921C14.0908 95.2742 16.112 94.4889 17.8894 93.2931C19.6667 92.0974 21.1556 90.5212 22.2481 88.6788C23.7294 86.1058 24.3376 83.117 24.5738 80.1576C24.9449 75.4783 24.4424 70.7708 23.092 66.2752C22.3538 63.8224 21.3526 61.2982 21.8208 58.7799C22.0876 57.47 22.7335 56.2674 23.6783 55.3214C24.623 54.3755 25.8249 53.7279 27.1347 53.4592C29.2513 53.0627 31.4155 53.7086 33.4366 54.4519C35.4576 55.1952 37.4953 56.0554 39.6483 56.1046C41.8012 56.1538 44.1462 55.1685 44.9782 53.1826L44.6244 51.4925Z" fill="#2F2E41"/>
</g>
<defs>
<clipPath id="clip0_1121_2445">
<rect width="325" height="211" fill="white"/>
</clipPath>
</defs>
</svg>
