<svg width="370" height="277" viewBox="0 0 370 277" fill="none" xmlns="http://www.w3.org/2000/svg">
<g clip-path="url(#clip0_1100_2001)">
<path d="M296.122 65.7016H294.603V24.086C294.603 20.923 293.98 17.7909 292.769 14.8687C291.559 11.9464 289.785 9.29123 287.548 7.05463C285.312 4.81804 282.657 3.04388 279.735 1.83344C276.813 0.623008 273.681 2.99336e-06 270.518 0H182.354C175.966 -1.41055e-05 169.84 2.53759 165.323 7.05458C160.806 11.5716 158.269 17.6979 158.269 24.0859V252.392C158.269 258.78 160.806 264.907 165.323 269.424C169.84 273.941 175.966 276.478 182.353 276.478H270.518C276.905 276.478 283.032 273.941 287.548 269.424C292.065 264.907 294.603 258.78 294.603 252.392V95.3243H296.122L296.122 65.7016Z" fill="#E6E6E6"/>
<path d="M289.476 24.254V252.224C289.476 256.995 287.581 261.57 284.208 264.944C280.835 268.317 276.259 270.212 271.489 270.212H182.902C178.131 270.212 173.556 268.317 170.183 264.944C166.81 261.57 164.915 256.995 164.915 252.224V24.254C164.915 19.4833 166.81 14.9081 170.183 11.5347C173.556 8.16133 178.131 6.26614 182.902 6.26605H193.648C193.12 7.56376 192.919 8.97135 193.063 10.365C193.206 11.7587 193.69 13.0957 194.472 14.2585C195.253 15.4213 196.309 16.3742 197.545 17.0334C198.781 17.6926 200.16 18.0379 201.561 18.039H252.07C253.471 18.0379 254.85 17.6926 256.086 17.0334C257.322 16.3742 258.378 15.4213 259.159 14.2585C259.941 13.0957 260.425 11.7587 260.568 10.365C260.712 8.97135 260.511 7.56376 259.983 6.26605H271.489C276.259 6.26614 280.835 8.16132 284.208 11.5347C287.581 14.9081 289.476 19.4833 289.476 24.254Z" fill="#F2F2F2"/>
<path d="M56.3812 227.314C55.6925 227.314 55.0269 227.066 54.507 226.614L50.2825 222.929C49.7141 222.431 49.3658 221.729 49.3139 220.975C49.262 220.222 49.5106 219.478 50.0054 218.908L80.7228 183.687C80.7837 183.615 80.8491 183.547 80.9184 183.484C81.4335 183 82.1099 182.725 82.8163 182.712C83.5227 182.7 84.2085 182.95 84.7406 183.415L88.9682 187.099C89.2501 187.345 89.4807 187.644 89.6469 187.98C89.8131 188.315 89.9117 188.679 89.9369 189.053L89.937 189.054C89.9627 189.427 89.9144 189.802 89.7949 190.157C89.6755 190.511 89.4873 190.839 89.241 191.121L58.528 226.341C58.2603 226.647 57.9303 226.892 57.56 227.06C57.1897 227.228 56.7878 227.314 56.3812 227.314L56.3812 227.314Z" fill="#4A83B4"/>
<path d="M112.813 190.673C112.517 190.672 112.223 190.627 111.94 190.539C111.584 190.426 111.253 190.243 110.967 190.001C110.681 189.759 110.446 189.464 110.274 189.131L107.706 184.146C107.414 183.583 107.319 182.938 107.437 182.314C107.554 181.69 107.877 181.124 108.354 180.706C108.528 180.549 108.722 180.415 108.931 180.308L150.467 158.893C151.139 158.548 151.92 158.484 152.639 158.713C153.358 158.943 153.957 159.448 154.305 160.118L156.873 165.103C157.218 165.775 157.282 166.556 157.053 167.275C156.823 167.994 156.318 168.593 155.647 168.941L114.112 190.356C113.711 190.564 113.265 190.673 112.813 190.673Z" fill="#4A83B4"/>
<path d="M112.065 191.881C111.536 191.879 111.017 191.73 110.566 191.453C110.115 191.175 109.75 190.778 109.51 190.306L106.995 185.295C106.69 184.69 106.612 183.995 106.775 183.337C106.786 183.286 106.803 183.231 106.819 183.178L106.834 183.128C106.879 182.997 106.923 182.811 106.973 182.594L107.003 182.469C107.189 181.663 107.42 180.659 107.885 180.24C107.943 180.186 108.008 180.141 108.079 180.105L126.315 169.05C126.652 168.877 127.02 168.772 127.398 168.742C127.776 168.712 128.156 168.758 128.516 168.877C129.232 169.116 129.825 169.628 130.165 170.302L134.77 179.793C135.107 180.469 135.162 181.25 134.923 181.966C134.685 182.682 134.173 183.275 133.499 183.614L113.305 191.587C112.921 191.781 112.496 191.882 112.065 191.881Z" fill="#2F2E41"/>
<path d="M98.4093 165.576C109.638 165.576 118.74 156.473 118.74 145.244C118.74 134.016 109.638 124.913 98.4093 124.913C87.181 124.913 78.0786 134.016 78.0786 145.244C78.0786 156.473 87.181 165.576 98.4093 165.576Z" fill="#4A83B4"/>
<path d="M93.307 276.818H87.6999C86.9445 276.817 86.2204 276.516 85.6862 275.982C85.1521 275.448 84.8517 274.724 84.8508 273.968V226.478C84.8517 225.722 85.1521 224.998 85.6862 224.464C86.2204 223.93 86.9445 223.63 87.6999 223.629H93.307C93.66 223.628 94.01 223.694 94.3382 223.825C94.8528 224.023 95.2983 224.367 95.6198 224.815C95.9413 225.263 96.1248 225.795 96.1478 226.346C96.1544 226.389 96.1572 226.434 96.1561 226.478V273.968C96.1552 274.724 95.8548 275.448 95.3207 275.982C94.7865 276.516 94.0623 276.817 93.307 276.818Z" fill="#4A83B4"/>
<path d="M124.559 247.703C124.532 247.658 124.503 247.615 124.472 247.573C124.395 247.392 124.298 247.22 124.183 247.061L114.625 233.688L106.751 222.675H93.3181L94.2678 224.001L95.9583 226.368L101.197 233.692L112.422 249.393L102.017 270.295C101.592 271.146 102.317 272.369 103.628 273.023L108.646 275.522C109.144 275.777 109.694 275.914 110.253 275.925C110.96 275.925 111.548 275.663 111.795 275.165L124.73 249.18C124.832 248.94 124.87 248.678 124.84 248.419C124.81 248.16 124.713 247.913 124.559 247.703Z" fill="#4A83B4"/>
<path d="M78.8454 204.292C78.1016 204.289 77.3885 203.995 76.8579 203.474L69.2502 196.178C68.8047 195.741 68.5165 195.169 68.4305 194.551C68.4096 194.423 68.3988 194.294 68.3983 194.164C68.3969 194.017 68.408 193.871 68.4315 193.726C68.5169 193.126 68.7937 192.571 69.2207 192.142L85.399 178.156C85.8373 177.704 86.9493 177.798 87.9302 177.88L88.0782 177.893C88.2589 177.912 88.4406 177.923 88.6223 177.924C88.6894 177.931 88.7674 177.927 88.8392 177.931C89.5198 177.979 90.1612 178.267 90.648 178.745L94.6406 182.682C95.1779 183.212 95.4827 183.935 95.4881 184.69C95.4934 185.446 95.1989 186.172 94.6692 186.711L80.9061 203.421C80.6395 203.698 80.3193 203.918 79.9651 204.068C79.6109 204.218 79.2299 204.294 78.8454 204.292Z" fill="#2F2E41"/>
<path d="M97.6025 153.54L97.5813 152.78C98.9947 152.741 100.241 152.652 101.177 151.968C101.443 151.763 101.661 151.503 101.817 151.206C101.973 150.909 102.063 150.583 102.082 150.248C102.098 150.043 102.067 149.837 101.991 149.647C101.915 149.456 101.796 149.285 101.644 149.148C101.022 148.623 100.022 148.793 99.2932 149.127L98.6645 149.415L99.87 140.606L100.623 140.709L99.5974 148.203C100.588 147.911 101.506 148.037 102.134 148.568C102.376 148.779 102.565 149.042 102.688 149.338C102.81 149.634 102.863 149.955 102.841 150.274C102.819 150.724 102.698 151.164 102.488 151.562C102.278 151.961 101.984 152.309 101.625 152.582C100.422 153.461 98.8588 153.505 97.6025 153.54Z" fill="#2F2E41"/>
<path d="M108.437 141.355H104.345V142.115H108.437V141.355Z" fill="#2F2E41"/>
<path d="M95.5213 141.355H91.4294V142.115H95.5213V141.355Z" fill="#2F2E41"/>
<path d="M116.863 233.882H80.7746C79.39 233.882 78.3054 231.658 78.3054 228.819V193.233C78.3065 188.873 79.6959 184.627 82.2723 181.109C84.8488 177.592 88.4783 174.986 92.6349 173.67C92.5796 173.42 92.5514 173.165 92.5508 172.909C92.5519 171.952 92.9325 171.035 93.609 170.358C94.2856 169.682 95.2028 169.301 96.1596 169.3H101.478C102.435 169.301 103.352 169.682 104.029 170.358C104.705 171.035 105.086 171.952 105.087 172.909C105.086 173.166 105.058 173.421 105.002 173.671C107.01 174.304 108.908 175.244 110.628 176.458C110.982 176.705 111.331 176.969 111.665 177.241C114.618 179.609 116.857 182.749 118.132 186.313C118.342 186.892 118.527 187.492 118.684 188.095L118.684 188.096C119.115 189.774 119.333 191.5 119.332 193.233V228.819C119.332 231.587 118.285 233.795 116.942 233.872C116.917 233.879 116.89 233.883 116.863 233.882Z" fill="#2F2E41"/>
<path d="M96.7295 246.798H82.2942C81.6395 246.798 81.0119 246.537 80.549 246.074C80.0861 245.611 79.8257 244.984 79.825 244.329V232.932C79.8257 232.278 80.0861 231.65 80.549 231.187C81.0119 230.724 81.6395 230.464 82.2942 230.463H96.7295C97.3841 230.464 98.0117 230.724 98.4746 231.187C98.9375 231.65 99.1979 232.278 99.1987 232.932V244.329C99.1979 244.984 98.9375 245.611 98.4746 246.074C98.0117 246.537 97.3841 246.798 96.7295 246.798Z" fill="#2F2E41"/>
<path d="M105.627 247.056C105.122 247.056 104.63 246.902 104.216 246.614C103.802 246.327 103.485 245.919 103.309 245.447L99.34 234.764C99.1128 234.15 99.1383 233.471 99.411 232.876C99.6837 232.28 100.181 231.818 100.795 231.589L114.326 226.561C114.94 226.334 115.619 226.359 116.214 226.632C116.809 226.905 117.272 227.402 117.501 228.016L121.47 238.699C121.697 239.313 121.672 239.992 121.399 240.587C121.126 241.182 120.629 241.645 120.015 241.874L106.484 246.902C106.21 247.004 105.919 247.056 105.627 247.056Z" fill="#2F2E41"/>
<path d="M88.851 135.628C92.6188 133.45 97.188 135.121 101.08 136.035C105.238 137.01 109.634 137.222 113.554 135.25C116.816 133.609 119.406 130.373 119.717 126.666C120.007 123.2 118.055 119.508 114.754 118.208C111.391 116.883 107.11 118.616 105.884 122.067L106.925 121.931C102.894 116.639 97.926 111.179 90.9929 110.148C87.8823 109.686 84.5625 110.106 81.9046 111.883C79.4133 113.548 77.8087 116.119 76.8627 118.918C75.765 122.167 75.4779 125.645 75.2793 129.047C75.2365 129.779 76.3762 129.777 76.4189 129.047C76.7308 123.704 77.2369 117.261 81.6045 113.529C83.8716 111.591 86.899 110.917 89.8219 111.151C92.9268 111.399 95.8054 112.686 98.3012 114.507C101.292 116.689 103.712 119.579 105.941 122.506C106 122.6 106.085 122.674 106.185 122.721C106.285 122.768 106.396 122.785 106.505 122.771C106.615 122.756 106.718 122.711 106.802 122.64C106.887 122.569 106.95 122.476 106.983 122.37C107.967 119.6 111.422 118.308 114.111 119.184C117.151 120.174 118.832 123.622 118.577 126.666C118.285 130.152 115.618 133.083 112.533 134.479C108.818 136.16 104.747 135.749 100.902 134.821C96.8175 133.835 92.2046 132.373 88.2758 134.644C88.1508 134.723 88.0613 134.847 88.0263 134.991C87.9912 135.135 88.0133 135.286 88.088 135.414C88.1626 135.542 88.2839 135.635 88.4262 135.675C88.5686 135.715 88.7209 135.698 88.851 135.628Z" fill="#2F2E41"/>
<path d="M187.624 27.4098C186.028 27.4098 184.447 27.7242 182.972 28.3351C181.497 28.9461 180.157 29.8415 179.028 30.9703C177.899 32.0992 177.004 33.4393 176.393 34.9142C175.782 36.3891 175.468 37.9699 175.468 39.5663C175.468 41.1628 175.782 42.7436 176.393 44.2185C177.004 45.6934 177.899 47.0335 179.028 48.1624C180.157 49.2912 181.497 50.1867 182.972 50.7976C184.447 51.4085 186.027 51.723 187.624 51.723H187.624C190.848 51.723 193.94 50.4422 196.219 48.1624C198.499 45.8826 199.78 42.7905 199.78 39.5664C199.78 36.3423 198.499 33.2502 196.219 30.9704C193.94 28.6906 190.848 27.4098 187.624 27.4098Z" fill="#D6D6D6"/>
<path d="M275.884 49.8235H212.065C211.259 49.8235 210.486 49.5033 209.916 48.9334C209.346 48.3634 209.026 47.5904 209.026 46.7844C209.026 45.9784 209.346 45.2053 209.916 44.6354C210.486 44.0654 211.259 43.7452 212.065 43.7452H275.884C276.69 43.7452 277.463 44.0654 278.033 44.6354C278.603 45.2053 278.923 45.9784 278.923 46.7844C278.923 47.5904 278.603 48.3634 278.033 48.9334C277.463 49.5033 276.69 49.8235 275.884 49.8235Z" fill="#D6D6D6"/>
<path d="M232.198 36.9072H212.065C211.259 36.9072 210.486 36.587 209.916 36.017C209.346 35.4471 209.026 34.674 209.026 33.868C209.026 33.062 209.346 32.289 209.916 31.719C210.486 31.1491 211.259 30.8289 212.065 30.8289H232.198C233.004 30.8289 233.777 31.1491 234.347 31.719C234.917 32.289 235.237 33.062 235.237 33.868C235.237 34.674 234.917 35.4471 234.347 36.017C233.777 36.587 233.004 36.9072 232.198 36.9072Z" fill="#D6D6D6"/>
<path d="M187.624 78.3155C186.028 78.3155 184.447 78.6299 182.972 79.2408C181.497 79.8518 180.157 80.7472 179.028 81.876C177.899 83.0049 177.004 84.345 176.393 85.8199C175.782 87.2948 175.468 88.8756 175.468 90.472C175.468 92.0685 175.782 93.6493 176.393 95.1242C177.004 96.5991 177.899 97.9392 179.028 99.0681C180.157 100.197 181.497 101.092 182.972 101.703C184.447 102.314 186.027 102.629 187.624 102.629H187.624C190.848 102.629 193.94 101.348 196.219 99.0681C198.499 96.7883 199.78 93.6962 199.78 90.4721C199.78 87.248 198.499 84.1559 196.219 81.8761C193.94 79.5963 190.848 78.3155 187.624 78.3155Z" fill="#D6D6D6"/>
<path d="M275.884 100.729H212.065C211.259 100.729 210.486 100.409 209.916 99.8392C209.346 99.2692 209.026 98.4962 209.026 97.6902C209.026 96.8841 209.346 96.1111 209.916 95.5411C210.486 94.9712 211.259 94.651 212.065 94.651H275.884C276.69 94.651 277.463 94.9712 278.033 95.5411C278.603 96.1111 278.923 96.8841 278.923 97.6902C278.923 98.4962 278.603 99.2692 278.033 99.8392C277.463 100.409 276.69 100.729 275.884 100.729Z" fill="#D6D6D6"/>
<path d="M232.198 87.8129H212.065C211.259 87.8129 210.486 87.4927 209.916 86.9228C209.346 86.3528 209.026 85.5798 209.026 84.7738C209.026 83.9677 209.346 83.1947 209.916 82.6248C210.486 82.0548 211.259 81.7346 212.065 81.7346H232.198C233.004 81.7346 233.777 82.0548 234.347 82.6248C234.917 83.1947 235.237 83.9677 235.237 84.7738C235.237 85.5798 234.917 86.3528 234.347 86.9228C233.777 87.4927 233.004 87.8129 232.198 87.8129Z" fill="#D6D6D6"/>
<path d="M187.624 180.127C184.4 180.127 181.308 181.408 179.028 183.688C176.749 185.967 175.468 189.059 175.468 192.284C175.468 195.508 176.748 198.6 179.028 200.88C181.308 203.159 184.4 204.44 187.624 204.44H187.624C190.848 204.44 193.94 203.159 196.219 200.88C198.499 198.6 199.78 195.508 199.78 192.284C199.78 189.06 198.499 185.967 196.219 183.688C193.94 181.408 190.848 180.127 187.624 180.127Z" fill="#D6D6D6"/>
<path d="M275.884 202.541H212.065C211.259 202.541 210.486 202.221 209.916 201.651C209.346 201.081 209.026 200.308 209.026 199.502C209.026 198.696 209.346 197.923 209.916 197.353C210.486 196.783 211.259 196.463 212.065 196.463H275.884C276.69 196.463 277.463 196.783 278.033 197.353C278.603 197.923 278.923 198.696 278.923 199.502C278.923 200.308 278.603 201.081 278.033 201.651C277.463 202.221 276.69 202.541 275.884 202.541Z" fill="#D6D6D6"/>
<path d="M232.198 189.624H212.065C211.259 189.624 210.486 189.304 209.916 188.734C209.346 188.164 209.026 187.391 209.026 186.585C209.026 185.779 209.346 185.006 209.916 184.436C210.486 183.866 211.259 183.546 212.065 183.546H232.198C233.004 183.546 233.777 183.866 234.347 184.436C234.917 185.006 235.237 185.779 235.237 186.585C235.237 187.391 234.917 188.164 234.347 188.734C233.777 189.304 233.004 189.624 232.198 189.624Z" fill="#D6D6D6"/>
<path d="M187.624 231.033C186.028 231.033 184.447 231.347 182.972 231.958C181.497 232.569 180.157 233.465 179.028 234.593C177.899 235.722 177.004 237.062 176.393 238.537C175.782 240.012 175.468 241.593 175.468 243.189C175.468 244.786 175.782 246.367 176.393 247.842C177.004 249.316 177.899 250.657 179.028 251.785C180.157 252.914 181.497 253.81 182.972 254.421C184.447 255.032 186.027 255.346 187.624 255.346H187.624C190.848 255.346 193.94 254.065 196.219 251.785C198.499 249.506 199.78 246.414 199.78 243.189C199.78 239.965 198.499 236.873 196.219 234.593C193.94 232.314 190.848 231.033 187.624 231.033Z" fill="#D6D6D6"/>
<path d="M275.884 253.447H212.065C211.259 253.447 210.486 253.126 209.916 252.556C209.346 251.986 209.026 251.213 209.026 250.407C209.026 249.601 209.346 248.828 209.916 248.258C210.486 247.688 211.259 247.368 212.065 247.368H275.884C276.69 247.368 277.463 247.688 278.033 248.258C278.603 248.828 278.923 249.601 278.923 250.407C278.923 251.213 278.603 251.986 278.033 252.556C277.463 253.126 276.69 253.447 275.884 253.447Z" fill="#D6D6D6"/>
<path d="M232.198 240.53H212.065C211.259 240.53 210.486 240.21 209.916 239.64C209.346 239.07 209.026 238.297 209.026 237.491C209.026 236.685 209.346 235.912 209.916 235.342C210.486 234.772 211.259 234.452 212.065 234.452H232.198C233.004 234.452 233.777 234.772 234.347 235.342C234.917 235.912 235.237 236.685 235.237 237.491C235.237 238.297 234.917 239.07 234.347 239.64C233.777 240.21 233.004 240.53 232.198 240.53Z" fill="#D6D6D6"/>
<path d="M300.512 170.63H153.879C152.218 170.628 150.624 169.967 149.449 168.792C148.274 167.617 147.613 166.023 147.611 164.362V117.255C147.613 115.593 148.274 114 149.449 112.824C150.624 111.649 152.218 110.988 153.879 110.986H300.512C302.174 110.988 303.767 111.649 304.942 112.824C306.117 114 306.778 115.593 306.78 117.255V164.362C306.778 166.023 306.117 167.617 304.942 168.792C303.767 169.967 302.174 170.628 300.512 170.63Z" fill="#F2F2F2"/>
<path d="M187.624 128.651C184.4 128.651 181.308 129.932 179.028 132.212C176.749 134.492 175.468 137.584 175.468 140.808C175.468 144.032 176.748 147.124 179.028 149.404C181.308 151.684 184.4 152.965 187.624 152.965H187.624C190.848 152.965 193.94 151.684 196.219 149.404C198.499 147.124 199.78 144.032 199.78 140.808C199.78 137.584 198.499 134.492 196.219 132.212C193.94 129.932 190.848 128.651 187.624 128.651Z" fill="#4A83B4"/>
<path d="M275.884 151.065H212.065C211.259 151.065 210.486 150.745 209.916 150.175C209.346 149.605 209.026 148.832 209.026 148.026C209.026 147.22 209.346 146.447 209.916 145.877C210.486 145.307 211.259 144.987 212.065 144.987H275.884C276.69 144.987 277.463 145.307 278.033 145.877C278.603 146.447 278.923 147.22 278.923 148.026C278.923 148.832 278.603 149.605 278.033 150.175C277.463 150.745 276.69 151.065 275.884 151.065Z" fill="#CCCCCC"/>
<path d="M232.198 138.149H212.065C211.259 138.149 210.486 137.829 209.916 137.259C209.346 136.689 209.026 135.916 209.026 135.11C209.026 134.304 209.346 133.531 209.916 132.961C210.486 132.391 211.259 132.071 212.065 132.071H232.198C233.004 132.071 233.777 132.391 234.347 132.961C234.917 133.531 235.237 134.304 235.237 135.11C235.237 135.916 234.917 136.689 234.347 137.259C233.777 137.829 233.004 138.149 232.198 138.149Z" fill="#CCCCCC"/>
<path d="M300.512 170.63H153.879C152.218 170.628 150.624 169.967 149.449 168.792C148.274 167.617 147.613 166.023 147.611 164.362V117.255C147.613 115.593 148.274 114 149.449 112.824C150.624 111.649 152.218 110.988 153.879 110.986H300.512C302.174 110.988 303.767 111.649 304.942 112.824C306.117 114 306.778 115.593 306.78 117.255V164.362C306.778 166.023 306.117 167.617 304.942 168.792C303.767 169.967 302.174 170.628 300.512 170.63ZM153.879 111.366C152.318 111.368 150.822 111.989 149.718 113.093C148.614 114.197 147.993 115.694 147.991 117.255V164.362C147.993 165.923 148.614 167.419 149.718 168.523C150.822 169.627 152.318 170.248 153.879 170.25H300.512C302.073 170.248 303.569 169.627 304.673 168.523C305.777 167.419 306.398 165.923 306.4 164.362V117.255C306.398 115.694 305.777 114.197 304.673 113.093C303.569 111.989 302.073 111.368 300.512 111.366H153.879Z" fill="#3F3D56"/>
<path d="M186.471 145.857C186.151 145.857 185.839 145.754 185.583 145.562L185.567 145.55L182.224 142.993C181.912 142.753 181.708 142.399 181.656 142.008C181.605 141.618 181.711 141.223 181.95 140.91C182.19 140.598 182.544 140.393 182.934 140.342C183.324 140.29 183.719 140.395 184.032 140.635L186.197 142.295L191.314 135.619C191.433 135.465 191.58 135.335 191.749 135.237C191.918 135.14 192.105 135.076 192.298 135.051C192.491 135.025 192.688 135.038 192.876 135.088C193.064 135.139 193.241 135.226 193.396 135.344L193.396 135.345L193.365 135.389L193.397 135.345C193.709 135.585 193.914 135.939 193.965 136.329C194.017 136.72 193.911 137.115 193.672 137.427L187.653 145.276C187.514 145.457 187.335 145.603 187.13 145.703C186.925 145.804 186.7 145.856 186.472 145.855L186.471 145.857Z" fill="#F2F2F2"/>
<path d="M369.62 277H0.379877C0.279127 277 0.182504 276.96 0.111263 276.889C0.0400223 276.818 0 276.721 0 276.62C0 276.519 0.0400223 276.423 0.111263 276.351C0.182504 276.28 0.279127 276.24 0.379877 276.24H369.62C369.721 276.24 369.818 276.28 369.889 276.351C369.96 276.423 370 276.519 370 276.62C370 276.721 369.96 276.818 369.889 276.889C369.818 276.96 369.721 277 369.62 277Z" fill="#CCCCCC"/>
</g>
<defs>
<clipPath id="clip0_1100_2001">
<rect width="370" height="277" fill="white"/>
</clipPath>
</defs>
</svg>
