<svg width="386" height="213" viewBox="0 0 386 213" fill="none" xmlns="http://www.w3.org/2000/svg">
<g clip-path="url(#clip0_1100_2096)">
<path d="M309.882 213H70.3751C67.9268 212.997 65.9429 211.319 65.9399 209.248V35.9618C65.9429 33.8901 67.9268 32.2115 70.3751 32.2093H309.882C312.331 32.2118 314.315 33.8904 314.317 35.9621V209.249C314.315 211.321 312.331 213 309.882 213ZM70.3751 33.7101C68.9062 33.7101 67.7155 34.7186 67.714 35.9618V209.249C67.714 210.491 68.9062 211.499 70.3754 211.5H309.883C311.352 211.5 312.542 210.491 312.544 209.249V35.9618C312.544 34.719 311.352 33.7116 309.883 33.7101H70.3751Z" fill="#1E1F1F"/>
<path d="M168.882 102.595L232.763 89.8234L234.15 124.866L229.149 164.564L232.763 211.906H163.869L165.662 156.978C165.662 156.978 150.29 135.291 159.346 113.431L168.882 102.595Z" fill="#4A83B4"/>
<path d="M311.325 19.4653C311.645 20.9361 311.638 22.4593 311.306 23.9275C310.974 25.3957 310.324 26.7731 309.402 27.9629C308.479 29.1527 307.307 30.1258 305.968 30.8138C304.629 31.5017 303.156 31.8877 301.651 31.9447L240.394 102.972L226.152 85.6895L290.844 21.3081C290.916 18.7745 291.915 16.3552 293.652 14.5088C295.388 12.6624 297.742 11.5172 300.267 11.2902C302.792 11.0632 305.312 11.7702 307.35 13.2772C309.388 14.7842 310.803 16.9865 311.326 19.4667L311.325 19.4653Z" fill="#FEB8B8"/>
<path d="M253.73 95.2198C253.745 95.8831 253.616 96.5417 253.352 97.1507C253.089 97.7597 252.697 98.3047 252.204 98.7485L234.979 114.253C233.91 115.554 232.595 116.632 231.11 117.425C229.624 118.218 227.997 118.711 226.32 118.876C224.644 119.04 222.952 118.873 221.341 118.383C219.729 117.894 218.23 117.092 216.928 116.023C215.627 114.954 214.549 113.639 213.755 112.154C212.962 110.668 212.469 109.041 212.305 107.365C212.14 105.689 212.308 103.997 212.797 102.386C213.287 100.774 214.089 99.2753 215.158 97.974L227.182 78.0784C227.526 77.5105 227.987 77.0232 228.536 76.6497C229.084 76.2762 229.707 76.0254 230.361 75.9142C231.015 75.803 231.686 75.8341 232.327 76.0054C232.968 76.1767 233.565 76.4841 234.076 76.9067L252.055 91.7619C252.567 92.1843 252.981 92.7123 253.271 93.3096C253.56 93.9069 253.716 94.5596 253.73 95.2231L253.73 95.2198Z" fill="#4A83B4"/>
<path d="M68.7184 186.379C68.6226 184.877 68.8575 183.372 69.4064 181.97C69.9553 180.568 70.8049 179.304 71.8954 178.266C72.9859 177.228 74.2907 176.442 75.718 175.963C77.1453 175.483 78.6603 175.323 80.1563 175.493L151.379 114.462L162.866 133.685L89.2445 187.631C88.7933 190.125 87.4426 192.367 85.4485 193.932C83.4543 195.497 80.9552 196.276 78.4249 196.122C75.8946 195.968 73.5088 194.89 71.7198 193.095C69.9308 191.299 68.8628 188.909 68.7184 186.378V186.379Z" fill="#FEB8B8"/>
<path d="M198.568 72.2871C212.931 72.2871 224.574 60.6453 224.574 46.2844C224.574 31.9236 212.931 20.2818 198.568 20.2818C184.206 20.2818 172.563 31.9236 172.563 46.2844C172.563 60.6453 184.206 72.2871 198.568 72.2871Z" fill="#3F3D56"/>
<path d="M137.029 120.123C137.114 119.465 137.34 118.834 137.692 118.271C138.044 117.708 138.513 117.228 139.067 116.863L158.423 104.119C159.669 102.984 161.126 102.106 162.71 101.535C164.295 100.963 165.977 100.709 167.66 100.788C169.343 100.867 170.994 101.276 172.519 101.993C174.044 102.71 175.412 103.721 176.546 104.967C177.68 106.212 178.557 107.67 179.128 109.255C179.698 110.84 179.951 112.522 179.871 114.205C179.791 115.887 179.381 117.538 178.663 119.062C177.945 120.586 176.933 121.953 175.686 123.086C175.65 123.119 175.613 123.152 175.577 123.185L160.701 141.055C160.277 141.565 159.747 141.978 159.149 142.265C158.551 142.552 157.898 142.706 157.234 142.718C156.571 142.73 155.913 142.598 155.304 142.333C154.696 142.067 154.153 141.674 153.71 141.179L138.164 123.797C137.722 123.302 137.391 122.718 137.195 122.084C136.998 121.45 136.941 120.781 137.027 120.123H137.029Z" fill="#4A83B4"/>
<path d="M196.108 86.2435C209.112 86.2435 219.653 75.7032 219.653 62.7009C219.653 49.6987 209.112 39.1583 196.108 39.1583C183.104 39.1583 172.563 49.6987 172.563 62.7009C172.563 75.7032 183.104 86.2435 196.108 86.2435Z" fill="#FEB8B8"/>
<path d="M212.143 0C210.177 2.80642 207.264 4.8086 203.94 5.63801C198.204 7.17389 203.893 15.7917 203.893 15.7917C203.893 15.7917 201.824 12.6579 204.808 9.33901C207.792 6.02015 212.594 3.75137 212.143 0Z" fill="#3F3D56"/>
<path d="M202.877 25.1055C206.879 25.1055 210.124 21.8611 210.124 17.859C210.124 13.8569 206.879 10.6125 202.877 10.6125C198.874 10.6125 195.629 13.8569 195.629 17.859C195.629 21.8611 198.874 25.1055 202.877 25.1055Z" fill="#3F3D56"/>
<path d="M213.707 23.9331C207.798 21.6987 197.96 20.5657 192.9 21.3417L193.593 16.2738C198.459 18.7882 208.252 19.9701 214.4 18.8652L213.707 23.9331Z" fill="#4A83B4"/>
<path d="M200.056 24.881C200.056 24.881 192.651 37.1958 175.433 41.806C158.215 46.4162 175.293 72.2875 175.293 72.2875C175.293 72.2875 169.083 62.8798 178.04 52.9167C186.997 42.9535 201.411 36.1421 200.056 24.881Z" fill="#3F3D56"/>
<path d="M202.862 24.9982C202.862 24.9982 209.975 41.9133 217.785 43.5127C225.594 45.1121 225.002 71.8396 212.789 75.8475C212.789 75.8475 221.696 60.1785 214.083 49.67C206.469 39.1616 201.662 30.8544 202.862 24.9982Z" fill="#3F3D56"/>
<path d="M386 211.906H-9V212.636H386V211.906Z" fill="#1E1F1F"/>
<path d="M59.9465 194.557C59.9466 193.642 59.7664 192.736 59.4163 191.891C59.0662 191.046 58.5531 190.278 57.9061 189.631C57.2592 188.984 56.4911 188.471 55.6458 188.121C54.8005 187.77 53.8945 187.59 52.9795 187.59H52.9791V182.231H26.1799V208.752C26.1799 209.677 26.5478 210.565 27.2025 211.22C27.8572 211.875 28.7452 212.242 29.6711 212.242H49.488C50.4139 212.242 51.3019 211.875 51.9566 211.22C52.6113 210.565 52.9791 209.677 52.9791 208.752V201.524C54.827 201.524 56.5992 200.79 57.9059 199.483C59.2125 198.177 59.9465 196.405 59.9465 194.557ZM52.9792 198.844L52.9791 198.844V190.269C54.1163 190.269 55.207 190.721 56.0111 191.525C56.8152 192.329 57.267 193.419 57.267 194.556C57.267 195.694 56.8152 196.784 56.0111 197.588C55.207 198.392 54.1164 198.844 52.9792 198.844V198.844Z" fill="#1E1F1F"/>
<path d="M346.347 186.771C351.595 192.402 351.866 200.678 351.866 200.678C351.866 200.678 343.629 199.824 338.381 194.194C333.134 188.564 332.862 180.288 332.862 180.288C332.862 180.288 341.099 181.141 346.347 186.771Z" fill="#1E1F1F"/>
<path d="M362.867 195.56C357.236 200.807 348.959 201.078 348.959 201.078C348.959 201.078 349.813 192.842 355.444 187.595C361.075 182.348 369.352 182.077 369.352 182.077C369.352 182.077 368.499 190.313 362.867 195.56Z" fill="#1E1F1F"/>
<path d="M361.468 212.272H340.756C340.359 212.272 339.969 212.16 339.632 211.95C339.295 211.739 339.025 211.438 338.851 211.08L334.342 201.811C334.184 201.488 334.111 201.131 334.13 200.772C334.149 200.413 334.259 200.065 334.45 199.761C334.64 199.456 334.905 199.205 335.22 199.031C335.534 198.857 335.887 198.766 336.247 198.766H365.977C366.336 198.766 366.69 198.857 367.004 199.031C367.319 199.205 367.584 199.456 367.774 199.761C367.965 200.065 368.075 200.413 368.093 200.772C368.112 201.131 368.04 201.488 367.882 201.811L363.373 211.08C363.199 211.437 362.929 211.738 362.592 211.949C362.255 212.16 361.865 212.272 361.468 212.271L361.468 212.272Z" fill="#1E1F1F"/>
</g>
<defs>
<clipPath id="clip0_1100_2096">
<rect width="395" height="213" fill="white" transform="translate(-9)"/>
</clipPath>
</defs>
</svg>
