<svg width="500" height="500" viewBox="0 0 500 500" fill="none" xmlns="http://www.w3.org/2000/svg">
<path d="M74 50C74 22.3858 96.3858 0 124 0H139C166.614 0 189 22.3858 189 50V449C189 476.614 166.614 499 139 499H74V50Z" fill="#F55B53"/>
<path d="M224 115V50C224 22.3858 246.386 0 274 0L376 0C403.614 0 426 22.3858 426 50V65C426 92.6142 403.614 115 376 115L224 115Z" fill="#4A83B4"/>
<path d="M224 280V214C224 186.386 246.386 164 274 164H376C403.614 164 426 186.386 426 214V230C426 257.614 403.614 280 376 280H224Z" fill="#4A83B4"/>
</svg>
